<svg width="301" height="172" viewBox="0 0 301 172" fill="none" xmlns="http://www.w3.org/2000/svg">
<g opacity="0.4">
<rect y="0.612907" width="27.4693" height="3.87097" fill="#B5B5B5"/>
<rect x="0.5" y="1.11291" width="26.4693" height="2.87097" stroke="#A8A8A8" stroke-opacity="0.7"/>
<rect y="55" width="27.4693" height="3.87097" fill="#B5B5B5"/>
<rect x="0.5" y="55.5" width="26.4693" height="2.87097" stroke="#A8A8A8" stroke-opacity="0.7"/>
<rect y="107" width="301" height="4" fill="#B5B5B5"/>
<rect x="0.5" y="107.5" width="300" height="3" stroke="#A8A8A8" stroke-opacity="0.7"/>
<rect y="121" width="236" height="4" fill="#B5B5B5"/>
<rect x="0.5" y="121.5" width="235" height="3" stroke="#A8A8A8" stroke-opacity="0.7"/>
<rect y="14" width="301" height="31" fill="white"/>
<rect x="0.5" y="14.5" width="300" height="30" stroke="#A8A8A8" stroke-opacity="0.7"/>
<rect y="69" width="300.885" height="22.5806" fill="white"/>
<rect x="0.5" y="69.5" width="299.885" height="21.5806" stroke="#A8A8A8" stroke-opacity="0.7"/>
<rect y="140" width="299" height="32" fill="#CBCBCB"/>
<rect x="0.5" y="140.5" width="298" height="31" stroke="#A8A8A8" stroke-opacity="0.7"/>
<path d="M14.7656 27.6378C14.7277 27.3016 14.5715 27.0412 14.2969 26.8565C14.0223 26.6695 13.6766 26.576 13.2599 26.576C12.9616 26.576 12.7036 26.6233 12.4858 26.718C12.268 26.8104 12.0987 26.9382 11.978 27.1016C11.8596 27.2625 11.8004 27.446 11.8004 27.652C11.8004 27.8248 11.8407 27.974 11.9212 28.0994C12.004 28.2249 12.1117 28.3303 12.2443 28.4155C12.3793 28.4983 12.5237 28.5682 12.6776 28.625C12.8314 28.6795 12.9794 28.7244 13.1214 28.7599L13.8317 28.9446C14.0637 29.0014 14.3016 29.0784 14.5455 29.1754C14.7893 29.2725 15.0154 29.4003 15.2237 29.5589C15.4321 29.7176 15.6001 29.9141 15.728 30.1484C15.8582 30.3828 15.9233 30.6634 15.9233 30.9901C15.9233 31.402 15.8168 31.7678 15.6037 32.0874C15.393 32.407 15.0864 32.6591 14.6839 32.8438C14.2839 33.0284 13.7997 33.1207 13.2315 33.1207C12.687 33.1207 12.2159 33.0343 11.8182 32.8615C11.4205 32.6887 11.1091 32.4437 10.8842 32.1264C10.6593 31.8068 10.535 31.428 10.5114 30.9901H11.6122C11.6335 31.2528 11.7188 31.4718 11.8679 31.647C12.0194 31.8198 12.2124 31.9489 12.4467 32.0341C12.6835 32.117 12.9427 32.1584 13.2244 32.1584C13.5346 32.1584 13.8104 32.1098 14.0518 32.0128C14.2957 31.9134 14.4875 31.776 14.6271 31.6009C14.7668 31.4233 14.8366 31.2161 14.8366 30.9794C14.8366 30.764 14.7751 30.5876 14.652 30.4503C14.5313 30.313 14.3667 30.1993 14.1584 30.1094C13.9524 30.0194 13.7192 29.9401 13.4588 29.8714L12.5994 29.6371C12.017 29.4785 11.5554 29.2453 11.2145 28.9375C10.8759 28.6297 10.7067 28.2225 10.7067 27.7159C10.7067 27.2969 10.8203 26.9311 11.0476 26.6186C11.2749 26.3061 11.5826 26.0634 11.9709 25.8906C12.3591 25.7154 12.7971 25.6278 13.2848 25.6278C13.7772 25.6278 14.2116 25.7143 14.5881 25.8871C14.9669 26.0599 15.2652 26.2978 15.483 26.6009C15.7008 26.9015 15.8144 27.2472 15.8239 27.6378H14.7656ZM19.5002 33.1101C18.9628 33.1101 18.4999 32.9953 18.1117 32.7656C17.7258 32.5336 17.4275 32.2081 17.2168 31.7891C17.0085 31.3677 16.9043 30.8741 16.9043 30.3082C16.9043 29.7495 17.0085 29.2571 17.2168 28.831C17.4275 28.4048 17.7211 28.0722 18.0975 27.8331C18.4763 27.594 18.919 27.4744 19.4256 27.4744C19.7334 27.4744 20.0317 27.5253 20.3205 27.6271C20.6093 27.7289 20.8685 27.8887 21.0982 28.1065C21.3278 28.3243 21.5089 28.6072 21.6415 28.9553C21.7741 29.3009 21.8404 29.7211 21.8404 30.2159V30.5923H17.5044V29.7969H20.7999C20.7999 29.5175 20.7431 29.2701 20.6294 29.0547C20.5158 28.8369 20.356 28.6652 20.15 28.5398C19.9464 28.4143 19.7073 28.3516 19.4327 28.3516C19.1344 28.3516 18.874 28.425 18.6515 28.5717C18.4313 28.7161 18.2608 28.9055 18.1401 29.1399C18.0217 29.3719 17.9625 29.6241 17.9625 29.8963V30.5178C17.9625 30.8823 18.0265 31.1925 18.1543 31.4482C18.2845 31.7038 18.4656 31.8991 18.6976 32.0341C18.9296 32.1667 19.2007 32.233 19.5108 32.233C19.7121 32.233 19.8955 32.2045 20.0613 32.1477C20.227 32.0885 20.3702 32.0009 20.4909 31.8849C20.6117 31.7689 20.704 31.6257 20.7679 31.4553L21.7729 31.6364C21.6924 31.9323 21.548 32.1915 21.3397 32.4141C21.1337 32.6342 20.8745 32.8059 20.562 32.929C20.2518 33.0497 19.8979 33.1101 19.5002 33.1101ZM24.0803 25.7273V33H23.0185V25.7273H24.0803ZM27.8596 33.1101C27.3221 33.1101 26.8593 32.9953 26.4711 32.7656C26.0852 32.5336 25.7869 32.2081 25.5762 31.7891C25.3678 31.3677 25.2637 30.8741 25.2637 30.3082C25.2637 29.7495 25.3678 29.2571 25.5762 28.831C25.7869 28.4048 26.0804 28.0722 26.4569 27.8331C26.8356 27.594 27.2783 27.4744 27.785 27.4744C28.0927 27.4744 28.391 27.5253 28.6799 27.6271C28.9687 27.7289 29.2279 27.8887 29.4576 28.1065C29.6872 28.3243 29.8683 28.6072 30.0009 28.9553C30.1335 29.3009 30.1998 29.7211 30.1998 30.2159V30.5923H25.8638V29.7969H29.1593C29.1593 29.5175 29.1025 29.2701 28.9888 29.0547C28.8752 28.8369 28.7154 28.6652 28.5094 28.5398C28.3058 28.4143 28.0667 28.3516 27.7921 28.3516C27.4938 28.3516 27.2334 28.425 27.0108 28.5717C26.7907 28.7161 26.6202 28.9055 26.4995 29.1399C26.3811 29.3719 26.3219 29.6241 26.3219 29.8963V30.5178C26.3219 30.8823 26.3858 31.1925 26.5137 31.4482C26.6439 31.7038 26.825 31.8991 27.057 32.0341C27.289 32.1667 27.5601 32.233 27.8702 32.233C28.0714 32.233 28.2549 32.2045 28.4206 32.1477C28.5864 32.0885 28.7296 32.0009 28.8503 31.8849C28.9711 31.7689 29.0634 31.6257 29.1273 31.4553L30.1323 31.6364C30.0518 31.9323 29.9074 32.1915 29.699 32.4141C29.4931 32.6342 29.2338 32.8059 28.9213 32.929C28.6112 33.0497 28.2573 33.1101 27.8596 33.1101ZM33.6754 33.1101C33.1475 33.1101 32.6929 32.9905 32.3118 32.7514C31.933 32.5099 31.6418 32.1773 31.4382 31.7536C31.2346 31.3298 31.1328 30.8445 31.1328 30.2976C31.1328 29.7436 31.237 29.2547 31.4453 28.831C31.6536 28.4048 31.9472 28.0722 32.326 27.8331C32.7048 27.594 33.151 27.4744 33.6648 27.4744C34.0791 27.4744 34.4484 27.5514 34.7727 27.7053C35.0971 27.8568 35.3587 28.0698 35.5575 28.3445C35.7588 28.6191 35.8783 28.9399 35.9162 29.3068H34.8828C34.826 29.0511 34.6958 28.831 34.4922 28.6463C34.291 28.4616 34.0211 28.3693 33.6825 28.3693C33.3866 28.3693 33.1274 28.4474 32.9048 28.6037C32.6847 28.7576 32.513 28.9777 32.3899 29.2642C32.2668 29.5483 32.2053 29.8845 32.2053 30.2727C32.2053 30.6705 32.2656 31.0137 32.3864 31.3026C32.5071 31.5914 32.6776 31.8151 32.8977 31.9737C33.1203 32.1323 33.3819 32.2116 33.6825 32.2116C33.8838 32.2116 34.0661 32.175 34.2294 32.1016C34.3951 32.0258 34.5336 31.9181 34.6449 31.7784C34.7585 31.6387 34.8378 31.4706 34.8828 31.2741H35.9162C35.8783 31.6269 35.7635 31.9418 35.5717 32.2188C35.38 32.4957 35.1231 32.7135 34.8011 32.8722C34.4815 33.0308 34.1063 33.1101 33.6754 33.1101ZM39.5978 27.5455V28.3977H36.6184V27.5455H39.5978ZM37.4174 26.2386H38.4792V31.3984C38.4792 31.6044 38.51 31.7595 38.5716 31.8636C38.6331 31.9654 38.7124 32.0353 38.8095 32.0732C38.9089 32.1087 39.0166 32.1264 39.1326 32.1264C39.2179 32.1264 39.2924 32.1205 39.3564 32.1087C39.4203 32.0968 39.47 32.0874 39.5055 32.0803L39.6973 32.9574C39.6357 32.9811 39.5481 33.0047 39.4345 33.0284C39.3208 33.0545 39.1788 33.0687 39.0083 33.071C38.729 33.0758 38.4686 33.026 38.2271 32.9219C37.9856 32.8177 37.7903 32.6567 37.6412 32.4389C37.492 32.2211 37.4174 31.9477 37.4174 31.6186V26.2386ZM45.0062 33.1207C44.6606 33.1207 44.3481 33.0568 44.0687 32.929C43.7894 32.7988 43.568 32.6106 43.4047 32.3643C43.2437 32.1181 43.1632 31.8163 43.1632 31.4588C43.1632 31.151 43.2224 30.8977 43.3407 30.6989C43.4591 30.5 43.6189 30.3426 43.8201 30.2266C44.0214 30.1106 44.2463 30.023 44.4949 29.9638C44.7434 29.9046 44.9967 29.8596 45.2548 29.8288C45.5815 29.791 45.8467 29.7602 46.0502 29.7365C46.2538 29.7105 46.4018 29.669 46.4941 29.6122C46.5865 29.5554 46.6326 29.4631 46.6326 29.3352V29.3104C46.6326 29.0002 46.545 28.7599 46.3699 28.5895C46.197 28.419 45.939 28.3338 45.5957 28.3338C45.2382 28.3338 44.9565 28.4131 44.7505 28.5717C44.5469 28.728 44.4061 28.902 44.3279 29.0938L43.3301 28.8665C43.4484 28.535 43.6213 28.2675 43.8485 28.0639C44.0782 27.858 44.3422 27.7088 44.6404 27.6165C44.9387 27.5218 45.2524 27.4744 45.5815 27.4744C45.7993 27.4744 46.0301 27.5005 46.274 27.5526C46.5202 27.6023 46.7498 27.6946 46.9629 27.8295C47.1783 27.9645 47.3547 28.1574 47.492 28.4084C47.6293 28.657 47.698 28.9801 47.698 29.3778V33H46.661V32.2543H46.6184C46.5498 32.3916 46.4468 32.5265 46.3095 32.6591C46.1722 32.7917 45.9958 32.9018 45.7804 32.9893C45.5649 33.0769 45.3069 33.1207 45.0062 33.1207ZM45.237 32.2685C45.5306 32.2685 45.7815 32.2105 45.9899 32.0945C46.2006 31.9785 46.3604 31.8269 46.4693 31.6399C46.5806 31.4505 46.6362 31.2481 46.6362 31.0327V30.3295C46.5983 30.3674 46.5249 30.4029 46.416 30.4361C46.3095 30.4669 46.1876 30.4941 46.0502 30.5178C45.9129 30.5391 45.7792 30.5592 45.649 30.5781C45.5188 30.5947 45.4099 30.6089 45.3223 30.6207C45.1163 30.6468 44.9281 30.6906 44.7576 30.7521C44.5895 30.8137 44.4546 30.9025 44.3528 31.0185C44.2534 31.1321 44.2037 31.2836 44.2037 31.473C44.2037 31.7358 44.3007 31.9347 44.4949 32.0696C44.689 32.2022 44.9364 32.2685 45.237 32.2685ZM53.8006 33.1065C53.3603 33.1065 52.9673 32.9941 52.6216 32.7692C52.2783 32.5419 52.0085 32.2187 51.812 31.7997C51.6178 31.3783 51.5208 30.8729 51.5208 30.2834C51.5208 29.6939 51.619 29.1896 51.8155 28.7706C52.0144 28.3516 52.2866 28.0308 52.6323 27.8082C52.9779 27.5857 53.3697 27.4744 53.8077 27.4744C54.1462 27.4744 54.4185 27.5312 54.6245 27.6449C54.8328 27.7562 54.9938 27.8864 55.1074 28.0355C55.2234 28.1847 55.3134 28.3161 55.3773 28.4297H55.4412V25.7273H56.503V33H55.4661V32.1513H55.3773C55.3134 32.2673 55.2211 32.3999 55.1003 32.549C54.9819 32.6982 54.8186 32.8284 54.6103 32.9396C54.4019 33.0509 54.132 33.1065 53.8006 33.1065ZM54.035 32.201C54.3404 32.201 54.5984 32.1205 54.8091 31.9595C55.0222 31.7962 55.1832 31.5701 55.2921 31.2812C55.4033 30.9924 55.459 30.6562 55.459 30.2727C55.459 29.8939 55.4045 29.5625 55.2956 29.2784C55.1867 28.9943 55.0269 28.773 54.8162 28.6143C54.6055 28.4557 54.3451 28.3764 54.035 28.3764C53.7154 28.3764 53.449 28.4593 53.236 28.625C53.0229 28.7907 52.8619 29.0168 52.753 29.3033C52.6465 29.5897 52.5932 29.9129 52.5932 30.2727C52.5932 30.6373 52.6477 30.9652 52.7566 31.2564C52.8655 31.5476 53.0265 31.7784 53.2395 31.9489C53.455 32.117 53.7201 32.201 54.035 32.201ZM59.6058 33.1207C59.2602 33.1207 58.9477 33.0568 58.6683 32.929C58.389 32.7988 58.1676 32.6106 58.0043 32.3643C57.8433 32.1181 57.7628 31.8163 57.7628 31.4588C57.7628 31.151 57.822 30.8977 57.9403 30.6989C58.0587 30.5 58.2185 30.3426 58.4197 30.2266C58.621 30.1106 58.8459 30.023 59.0945 29.9638C59.343 29.9046 59.5964 29.8596 59.8544 29.8288C60.1811 29.791 60.4463 29.7602 60.6499 29.7365C60.8535 29.7105 61.0014 29.669 61.0938 29.6122C61.1861 29.5554 61.2322 29.4631 61.2322 29.3352V29.3104C61.2322 29.0002 61.1446 28.7599 60.9695 28.5895C60.7966 28.419 60.5386 28.3338 60.1953 28.3338C59.8378 28.3338 59.5561 28.4131 59.3501 28.5717C59.1465 28.728 59.0057 28.902 58.9276 29.0938L57.9297 28.8665C58.0481 28.535 58.2209 28.2675 58.4482 28.0639C58.6778 27.858 58.9418 27.7088 59.2401 27.6165C59.5384 27.5218 59.852 27.4744 60.1811 27.4744C60.3989 27.4744 60.6297 27.5005 60.8736 27.5526C61.1198 27.6023 61.3494 27.6946 61.5625 27.8295C61.7779 27.9645 61.9543 28.1574 62.0916 28.4084C62.2289 28.657 62.2976 28.9801 62.2976 29.3778V33H61.2607V32.2543H61.218C61.1494 32.3916 61.0464 32.5265 60.9091 32.6591C60.7718 32.7917 60.5954 32.9018 60.38 32.9893C60.1645 33.0769 59.9065 33.1207 59.6058 33.1207ZM59.8366 32.2685C60.1302 32.2685 60.3812 32.2105 60.5895 32.0945C60.8002 31.9785 60.96 31.8269 61.0689 31.6399C61.1802 31.4505 61.2358 31.2481 61.2358 31.0327V30.3295C61.1979 30.3674 61.1245 30.4029 61.0156 30.4361C60.9091 30.4669 60.7872 30.4941 60.6499 30.5178C60.5125 30.5391 60.3788 30.5592 60.2486 30.5781C60.1184 30.5947 60.0095 30.6089 59.9219 30.6207C59.7159 30.6468 59.5277 30.6906 59.3572 30.7521C59.1892 30.8137 59.0542 30.9025 58.9524 31.0185C58.853 31.1321 58.8033 31.2836 58.8033 31.473C58.8033 31.7358 58.9003 31.9347 59.0945 32.0696C59.2886 32.2022 59.536 32.2685 59.8366 32.2685ZM66.258 27.5455V28.3977H63.2786V27.5455H66.258ZM64.0776 26.2386H65.1394V31.3984C65.1394 31.6044 65.1702 31.7595 65.2317 31.8636C65.2933 31.9654 65.3726 32.0353 65.4696 32.0732C65.5691 32.1087 65.6768 32.1264 65.7928 32.1264C65.878 32.1264 65.9526 32.1205 66.0165 32.1087C66.0804 32.0968 66.1301 32.0874 66.1657 32.0803L66.3574 32.9574C66.2959 32.9811 66.2083 33.0047 66.0946 33.0284C65.981 33.0545 65.839 33.0687 65.6685 33.071C65.3891 33.0758 65.1287 33.026 64.8873 32.9219C64.6458 32.8177 64.4505 32.6567 64.3013 32.4389C64.1522 32.2211 64.0776 31.9477 64.0776 31.6186V26.2386ZM69.7248 33.1101C69.1874 33.1101 68.7246 32.9953 68.3363 32.7656C67.9504 32.5336 67.6521 32.2081 67.4414 31.7891C67.2331 31.3677 67.1289 30.8741 67.1289 30.3082C67.1289 29.7495 67.2331 29.2571 67.4414 28.831C67.6521 28.4048 67.9457 28.0722 68.3221 27.8331C68.7009 27.594 69.1436 27.4744 69.6502 27.4744C69.958 27.4744 70.2563 27.5253 70.5451 27.6271C70.8339 27.7289 71.0932 27.8887 71.3228 28.1065C71.5524 28.3243 71.7335 28.6072 71.8661 28.9553C71.9987 29.3009 72.065 29.7211 72.065 30.2159V30.5923H67.729V29.7969H71.0245C71.0245 29.5175 70.9677 29.2701 70.854 29.0547C70.7404 28.8369 70.5806 28.6652 70.3746 28.5398C70.171 28.4143 69.9319 28.3516 69.6573 28.3516C69.359 28.3516 69.0986 28.425 68.8761 28.5717C68.6559 28.7161 68.4854 28.9055 68.3647 29.1399C68.2463 29.3719 68.1871 29.6241 68.1871 29.8963V30.5178C68.1871 30.8823 68.2511 31.1925 68.3789 31.4482C68.5091 31.7038 68.6902 31.8991 68.9222 32.0341C69.1542 32.1667 69.4253 32.233 69.7354 32.233C69.9367 32.233 70.1201 32.2045 70.2859 32.1477C70.4516 32.0885 70.5948 32.0009 70.7156 31.8849C70.8363 31.7689 70.9286 31.6257 70.9925 31.4553L71.9975 31.6364C71.917 31.9323 71.7726 32.1915 71.5643 32.4141C71.3583 32.6342 71.0991 32.8059 70.7866 32.929C70.4764 33.0497 70.1225 33.1101 69.7248 33.1101Z" fill="#909090"/>
</g>
</svg>
