<svg width="520" height="160" viewBox="0 0 520 160" fill="none" xmlns="http://www.w3.org/2000/svg"><g clip-path="url(#clip0_11_92)"><path opacity=".5" d="M154 0H6C2.68629 0 0 2.68629 0 6V154C0 157.314 2.68629 160 6 160H154C157.314 160 160 157.314 160 154V6C160 2.68629 157.314 0 154 0Z" fill="#E1E1E1"/><path opacity=".5" d="M334 0H186C182.686 0 180 2.68629 180 6V154C180 157.314 182.686 160 186 160H334C337.314 160 340 157.314 340 154V6C340 2.68629 337.314 0 334 0Z" fill="#E1E1E1"/><path opacity=".5" d="M514 0H366C362.686 0 360 2.68629 360 6V154C360 157.314 362.686 160 366 160H514C517.314 160 520 157.314 520 154V6C520 2.68629 517.314 0 514 0Z" fill="#E1E1E1"/></g><defs><clipPath id="clip0_11_92"><rect width="520" height="160" fill="white"/></clipPath></defs></svg>