<svg width="223" height="240" viewBox="0 0 223 240" fill="none" xmlns="http://www.w3.org/2000/svg"><rect y="2" width="13" height="13" rx="6.5" fill="rgba(181,181,181,0.5)"/><rect x="21" width="177" height="16" fill="rgba(225,225,225,0.5)"/><rect x="25" y="34" width="13" height="13" rx="6.5" fill="rgba(181,181,181,0.5)"/><rect x="46" y="32" width="177" height="16" fill="rgba(225,225,225,0.5)"/><rect x="25" y="66" width="13" height="13" rx="6.5" fill="rgba(181,181,181,0.5)"/><rect x="46" y="64" width="177" height="16" fill="rgba(225,225,225,0.5)"/><rect x="25" y="98" width="13" height="13" rx="6.5" fill="rgba(181,181,181,0.5)"/><rect x="46" y="96" width="177" height="16" fill="rgba(225,225,225,0.5)"/><rect y="130" width="13" height="13" rx="6.5" fill="rgba(181,181,181,0.5)"/><rect x="21" y="128" width="177" height="16" fill="rgba(225,225,225,0.5)"/><rect y="162" width="13" height="13" rx="6.5" fill="rgba(181,181,181,0.5)"/><rect x="21" y="160" width="177" height="16" fill="rgba(225,225,225,0.5)"/><rect x="25" y="194" width="13" height="13" rx="6.5" fill="rgba(181,181,181,0.5)"/><rect x="46" y="192" width="177" height="16" fill="rgba(225,225,225,0.5)"/><rect y="226" width="13" height="13" rx="6.5" fill="rgba(181,181,181,0.5)"/><rect x="21" y="224" width="177" height="16" fill="rgba(225,225,225,0.5)"/></svg>