<svg xmlns="http://www.w3.org/2000/svg" viewBox="0 0 620 400" fill="none"><g clip-path="url(#a)"><g opacity=".38"><path fill="url(#b)" d="M40.45 328.323c-1.99 0 3.914-1.581 5.828-2.748 4.172-2.54 8.309-5.409 12.45-8.192 13.096-8.803 22.273-16.03 35.641-22.686 38.051-18.95 76.561-32.617 115.273-43.904 117.192-34.162 240.924-4.415 352.576 77.833"/><path stroke="#fff" stroke-miterlimit="10" stroke-width=".462" d="M40.45 328.323c-1.99 0 3.914-1.581 5.828-2.748 4.172-2.54 8.309-5.409 12.45-8.192 13.096-8.803 22.273-16.03 35.641-22.686 38.051-18.95 76.561-32.617 115.273-43.904 117.192-34.162 240.924-4.415 352.576 77.833"/></g><path fill="#004C76" d="M295.177 103.969c-1.026-1.025-.667-4.813-.642-6.07.131-6.152 2.879-13.829 7.404-18.197 1.707-1.647 3.945-2.707 5.914-4.005 19.717-13.026 42.233-1.157 44.389 22.409 1.025 11.182-5.843 21.045-14.848 27.121-2.611 1.763-6.319 4.808-9.728 4.389-9.091-1.121-16.621-8.803-22.924-14.833-3.166-3.031-8.798-6.511-10.278-10.849" opacity=".15"/><path fill="#4585C5" d="M293.688 236.111c0-.132.469.485.494.52a17.27 17.27 0 0 1 1.046 1.924c.798 1.692 1.5 3.424 2.192 5.157 1.949 4.894 4.015 9.783 5.677 14.783 3.984 12 5.959 28.444 6.464 41.121.096 2.369.152 4.747.015 7.116-.212 3.571-.05 4.02 3.399 5.202.546.187 2.162 1.086 2.748.924 1.086-.298 1.964-4.793 2.161-5.576 1.531-5.934 2.293-12.065 2.809-18.166 1.601-18.909-1.657-43.298-7.758-61.253-1.551-4.56-3.576-8.954-5.586-13.328-.449-.975-1.212-3.601-2.439-4-1.243-.404-3.505 1.611-4.43 2.227-1.171.778-2.232 1.677-2.833 2.98-1.071 2.328-.99 5.248-1.364 7.737a112.115 112.115 0 0 1-2.348 11.617M296.505 118.207c0-2.076-4.207-4.192-5.672-4.844-6.404-2.848-15.166-1.272-20.116 3.627-9.904 9.803-14.944 35.883-14.808 49.262.01 1.227.096 2.46.859 3.47 1.464 1.944 10.651 8.404 13.555 8.091.97-.106 1.707-1.111 2.232-1.834 9.076-12.545 10.536-28.323 16.591-42.262 1.44-3.313 6.95-11.576 7.116-14.823"/><path fill="#67CBE4" d="M314.722 127.015c-.257 0 1.021-.5 1.273-.515 1.116-.056 2.243.242 3.086 1.005 2.076 1.873 2.141 5.101 1.732 7.651-1.666 10.485-8.045 20.834-12.101 30.556-.52 1.242-3.666 8.813-5.272 8.505-.672-.131-.425-2.308-.415-2.727a89.89 89.89 0 0 1 .647-9.177c1.48-11.753 4.97-24.722 11.025-35.01"/><path fill="#004C76" d="M266.944 204.833c-.894-.894-.156-4.712-.081-5.768.42-6.06 1.349-12.192 2.399-18.171 3.516-20.01 7.591-39.667 19.117-56.849 4.267-6.363 12.383-14.894 21.06-10.964 5.783 2.621 7.389 10.823 6.258 16.348-1.349 6.576-4.44 12.919-6.197 19.424-3.101 11.465-4.707 23.677-4.788 35.541-.04 6.136-.076 12.237.566 18.348.065.647.863 6.248.641 6.49-2.727 2.975-9.798 2.571-13.379 3.131-6.197.97-12.485 2.061-18.767 1.207-1.43-.191-5.051-.495-6.076-1.747-.667-.813-.707-6.439-.808-7.758"/><path fill="#FAB01D" d="M245.909 83.57c-.076 0 .384-1.151.414-1.227.657-1.566 1.369-3.242 2.455-4.566.116-.14.368-.535.601-.46 1.424.476.353 4.612 1.182 5.652.904 1.132 4.767.551 5.025 2.268.197 1.318-2.46 2.02-2.621 3.43-.107.919.863 4.802.212 5.313-.798.626-3.622-2.894-4.768-2.97-1.485-.096-5.313 3.59-6.015 3.237-.419-.207 1-4.177 1.05-4.722.187-2.05-5.156-3.076-3.606-3.798 1.157-.535 2.47-.823 3.662-1.283M203.728 163.631c-.036.066.489-.646.58-.773.253-.338 2.384-3.388 2.707-2.949.662.894-.772 2.51-.181 3.419.409.626 2.873.783 2.833 1.571-.046.843-2.157.672-2.429 1.399-.258.692.404 3.273-.349 3.631-.217.106-.545-.308-.661-.429a28.07 28.07 0 0 1-1.061-1.147c-1.546-1.788-2.344 1.187-3.965.778-.353-.091.571-2.146.541-2.495-.132-1.313-4.344-1.666-1.101-2.879M372.268 185.762c-.041 0 3.06-4.045 3.439-3.358.54.985-.5 2.424-.081 3.469.258.652 2.167 1.359 2.081 2.021-.096.732-1.848.535-2.162 1.161-.464.93-.08 3.056-.919 3.697-.394.303-1.636-2.394-2.358-2.469-1.869-.197-3.889.823-3.965.636-.227-.566 1.197-1.94 1.217-2.637.025-.989-2.151-1.757-1.914-2.565.146-.505 2.157.015 2.48.071"/><path fill="#67CBE4" d="M424.495 165.848c-36.207-38.803 25.748-84.808 54.662-41.434 21.217 31.823-23.01 72.782-54.662 41.434Z"/><path fill="#F3F3F3" d="M311.343 120.257c0 .071.041.021.081-.015.571-.475 1.041-1.116 1.556-1.651 1.106-1.162 4.045-2.359 5.272-.975 7.874 8.879 6.162-2.071 11.086-.359 4.702 1.632 3.147-1.06 5.642-4.272 2.176-2.803 5.171-4.662 7.52-7.278 1.207-1.349 3.939-4.111 2.737-6.147-2.252-3.818-6.747-3.692-10.414-4.848-3.454-1.091-8.449-4.712-11.944-4.232-7.177.984-8.702 11.282-12.652 15.863-1.672 1.935-5.268 3.48-6.227 5.884-.657 1.636 5.939 8.995 7.601 8.414"/><path stroke="#35444C" stroke-miterlimit="10" stroke-width="1.75" d="M311.343 120.257c0 .071.041.021.081-.015.571-.475 1.041-1.116 1.556-1.651 1.106-1.162 4.045-2.359 5.272-.975 7.874 8.879 6.162-2.071 11.086-.359 4.702 1.632 3.147-1.06 5.642-4.272 2.176-2.803 5.171-4.662 7.52-7.278 1.207-1.349 3.939-4.111 2.737-6.147-2.252-3.818-6.747-3.692-10.414-4.848-3.454-1.091-8.449-4.712-11.944-4.232-7.177.984-8.702 11.282-12.652 15.863-1.672 1.935-5.268 3.48-6.227 5.884-.657 1.636 5.939 8.995 7.601 8.414"/><path fill="#FAB01D" d="M303.142 110.485c0-.056.272-.243.318-.278 1.833-1.53 3.217-2.904 3.858-5.293.899-3.349-.161-7.091 1.066-10.338.828-2.197 4.121-3.697 5.874-7.505 1.788-3.884 4.419-9.48 9.419-9.692 6.742-.283 6 7.07 10.919 9.53 5.546 2.773 13.354 3.212 15.551 10.273.308.995.394 2.055.257 3.085-.182 1.399-1.025 2.531-2.283 3.162-5.348 2.677-5.863-3.056-9.313-3.95-2-.52-4.005 1.208-6.222.445-1.313-.45-1.707-2.667-2.985-2.828-2.419-.303-3.919 3.111-6.151 2.616-1.435-.318 1.05-6.465-2.753-5.404-2.429.677-4.464 7.48-3.192 9.47 1.157 1.803 7.47-.899 4.086 4.176-1.702 2.551-4.495-.207-6.495-.363-1.01-.076-1.964.469-2.909.747-1.571.465-8.889 6.177-8.475 2.253"/><path fill="#4585C5" d="M291.677 103.126c1.752 1.753 2.919 4.424 4.368 6.434 2.379 3.303 5.223 6.329 8.213 9.081 3.05 2.808 6.383 5.132 9.944 7.233 3.944 2.328 7.934 4.489 12.071 6.449 1.126.535 4.288-2.864 4.262-2.939-.116-.344-2.591-.955-2.939-1.122-2.747-1.318-5.48-2.833-8.106-4.378-7.207-4.248-13.657-10.177-19.404-16.202-1.783-1.874-3.424-3.894-4.662-6.177-.045-.081-.394-.884-.515-.869-.742.106-1.995 2.061-2.879 2.505"/><path fill="#67CBE4" d="M278.409 216.656c0-3.636-1.677-7.611-2.101-11.257-1.086-9.233-1.616-18.611-1.485-27.909.122-8.778.894-17.334 2.127-26.021 1.141-8.035 2.681-20.651 8.025-27.131 4.99-6.05 14.308-4.227 14.823 4.141.51 8.288-4.651 16.561-7.263 24.102-4.025 11.626-6.949 23.813-7.994 36.09-.561 6.571-.869 13.213-1.041 19.809-.111 4.287 2.182 8.555-2.737 8.126-.738-.066-1.667.222-2.359-.005"/><path fill="#004C76" d="M221.041 304.919c0-.056.54-.162.575-.172 1.455-.419 2.834-.99 4.207-1.631 3.293-1.53 6.425-3.349 9.334-5.525 9.101-6.808 15.823-16.152 21.419-25.925 7.187-12.555 12.581-26.02 14.773-40.383.828-5.435.767-11.071.995-16.561.01-.303-.394-2.677-.324-2.96.005-.02.667.137.707.142.909.146 1.899-.02 2.808-.111 2.293-.218 4.581-.475 6.874-.713 5.52-.565 11.157-.959 16.591-2.121 1.126-.242 5.172-1.848 6.202-1.116.98.697 1.01 4.581 1.096 5.621.667 7.925-4.505 16.596-7.869 23.404-9.959 20.162-25.434 38.637-41.075 54.632-6.445 6.591-13.521 13.106-21.707 17.474-1.657.884-3.364 1.627-5.086 2.364-.192.081-2.222 1.217-2.399 1.131-.768-.383-1.409-2.591-2.091-3.293-1.525-1.58-3.591-2.075-5.369-3.257"/><path fill="#004C76" d="M347.223 290.52c-.697-.348 4.863-.515 5.535-.414 3.369.51 13.46 1.434 14.328 5.853.031.162.041.334 0 .495-.838 3.182-19.909 1.081-20.596-3.343M366.672 261.353c-.122-.06 1.671-.172 1.853-.177 2.738-.07 5.475.117 8.202.303 6.429.44 12.813 1.223 19.192 2.142 20.389 2.939 41.207 6.954 60.081 15.53 4.106 1.869 17.146 7.323 15.414 13.864-2 7.576-23.667 5.889-29.055 5.358-23.122-2.293-46.48-9.202-67.854-18.232-2.45-1.035-31.01-13.707-12.763-15.944M269.182 299.48c1.237-2.47 17.581-5.303 17.258-1.329-.526 6.404-24.379 9.031-18.278 3.404M174.253 278.495c0-2.818 9.798-6.227 11.53-6.975 5.687-2.444 45.975-15.5 48.793-8.459 2.586 6.469-37.268 15.621-43.116 16.838-2.546.53-19.445 4.525-17.738 1.217M188.071 296.661c-.283-.282.303-.651.495-.798 1.323-1.025 9.212-5.141 10.156-2.444 1.016 2.894-13.247 9.884-11.899 6.379" opacity=".15"/><path fill="#67CBE4" d="M263.687 205.798c-.546 0 1.035.333 1.56.485 1.202.343 2.379.788 3.591 1.091 3.409.863 6.93 1.08 10.435 1.08 6.232 0 12.54-1.454 18.57-2.878 2.571-.606 5.217-1.208 7.707-2.112.308-.111 1.596-.899 1.914-.762.435.187 1.066 6.439.975 7.404-.192 2.005-11.924 4.177-13.843 4.571-7.323 1.495-15.631 1.474-23.061.621-1.545-.177-5.621.298-6.823-.904-.636-.637-1.056-6.985-1.237-8.445"/><path fill="#4585C5" d="M273.217 203.747c0-.333.151.621.166.692.102.535.223 1.066.354 1.591a85.683 85.683 0 0 1 1.131 5.141c1 5.465.98 6.591 6.581 7.056.581.05 3.379.439 3.844-.081.959-1.071.439-5.495.469-6.869.076-3.424.056-7.05.733-10.419.025-.126.131-.419.015-.535-.566-.561-14.985-.046-13.152 3.626"/><path fill="#67CBE4" d="M277.682 217.262c0-.116-.571 1.273-.692 1.546a4.882 4.882 0 0 1-2.465 2.464c-1.59.707-12.01-.474-7.934 4.728 3.293 4.202 11.586 4.464 14.869.308 1.217-1.536 4.035-7.031 1.212-8.793-1.288-.803-3.652-.298-5.126-.445M311.985 315.328c0 .086-1.813-1.141-1.959-1.283-.93-.909-3.869-4.449-1.273-5.277 2.571-.824 5.889 1.449 8.237 2.232 3.112 1.035 6.172.853 9.354 1.288 1.359.187 2.944.949 3.066 2.505.181 2.328-2.349 3.136-4.182 3.419-4.515.692-8.798-.167-12.687-2.485M225.207 305.136c0 .02-1.086-.581-1.212-.652-.843-.459-1.727-.813-2.707-.656-1.692.273-1.323 2.581-.773 3.662 2.283 4.474 11.99 11.57 16.798 13.202 2.424.823 9.086.742 7.561-3.728-.854-2.495-5.339-3.197-7.536-3.873-4.252-1.319-9.484-4.228-12.025-8.041"/><path fill="#4585C5" d="M221.151 303.601c-.166-.339 1.52 1.05 1.697 1.207 1.268 1.101 2.505 2.232 3.753 3.353 4.141 3.743 5.581 4.41 10.474 1.445.46-.278 2.601-.934 2.697-1.505.283-1.642-3.722-4.399-4.787-5.45-1.056-1.04-4.329-5.53-5.364-5.853-.667-.212-1.581 1.096-2.005 1.464-1.611 1.41-5.187 2.899-6.136 4.793"/><path fill="#004C76" d="M306.409 305.293c-.272-.167.657 1.792.768 2.166.167.561-.025 3.556.247 3.859.814.899 10.142 1.475 11.399.889.985-.465.864-1.884.99-2.531.132-.661 1.116-2.479.318-3.065-.545-.399-2.899-.177-3.666-.217-3.227-.152-6.318-.612-9.46-1.031"/><path fill="#004C76" d="M423.702 118.05c-3.05-1.964-47.247-26.884-41.439-8.783 7.384 23.005 76.247 56.207 97.52 66.657 5.111 2.51 33.323 16.687 37.742 8.763 5.445-9.758-31.03-32.718-33.181-31.369-.425.262-1.495 1.454-1.167 1.964.369.581 1.151.96 1.697 1.344 6.838 4.843 17.111 10.914 20.661 18.864.379.848.612 1.883-.51 2.191-2.772.758-6.707-.919-9.257-1.792a82.528 82.528 0 0 1-7.389-2.945c-24.717-11.222-49.808-23.742-71.914-39.515-2.753-1.965-20.288-14.818-16.44-19.414 4.914-5.874 14.642 6.101 19.147 8.848" opacity=".15"/><g opacity=".19"><path fill="url(#c)" d="M239.536 315.222c.732 0-1.465-.066-2.192-.091-1.409-.045-2.813-.071-4.222-.126a2058.41 2058.41 0 0 1-13.601-.601c-13.243-.627-26.465-1.359-39.723-1.798-.429-.015-.858-.031-1.282-.051-.399-.015-.798-.03-1.197-.05-2.814-.121-5.556.03-8.344.03-.217 0-.308.076-.343.308-.238 1.46 2.02 17.727 2.404 18.076 2.076 1.909 8.848-.253 11.197-.566 10.384-1.374 20.671-3.121 30.884-5.454 5.585-1.278 11.227-2.374 16.792-3.758.521-.131 9.475-1.141 9.773-1.742"/><path stroke="#fff" stroke-miterlimit="10" stroke-width=".242" d="M239.536 315.222c.732 0-1.465-.066-2.192-.091-1.409-.045-2.813-.071-4.222-.126a2058.41 2058.41 0 0 1-13.601-.601c-13.243-.627-26.465-1.359-39.723-1.798-.429-.015-.858-.031-1.282-.051-.399-.015-.798-.03-1.197-.05-2.814-.121-5.556.03-8.344.03-.217 0-.308.076-.343.308-.238 1.46 2.02 17.727 2.404 18.076 2.076 1.909 8.848-.253 11.197-.566 10.384-1.374 20.671-3.121 30.884-5.454 5.585-1.278 11.227-2.374 16.792-3.758.521-.131 9.475-1.141 9.773-1.742"/></g><g opacity=".19"><path fill="url(#d)" d="M321.349 315.222c.733 0-1.464-.066-2.192-.091-1.409-.045-2.813-.071-4.222-.126-4.535-.182-9.066-.389-13.601-.601-13.242-.627-26.465-1.359-39.722-1.798-.429-.015-.859-.031-1.283-.051-.399-.015-.798-.03-1.197-.05-2.813-.121-5.556.03-8.343.03-.218 0-.308.076-.344.308-.237 1.46 2.02 17.727 2.404 18.076 2.076 1.909 8.849-.253 11.197-.566 10.384-1.374 20.672-3.121 30.884-5.454 5.586-1.278 11.227-2.374 16.793-3.758.52-.131 9.475-1.141 9.773-1.742"/><path stroke="#fff" stroke-miterlimit="10" stroke-width=".242" d="M321.349 315.222c.733 0-1.464-.066-2.192-.091-1.409-.045-2.813-.071-4.222-.126-4.535-.182-9.066-.389-13.601-.601-13.242-.627-26.465-1.359-39.722-1.798-.429-.015-.859-.031-1.283-.051-.399-.015-.798-.03-1.197-.05-2.813-.121-5.556.03-8.343.03-.218 0-.308.076-.344.308-.237 1.46 2.02 17.727 2.404 18.076 2.076 1.909 8.849-.253 11.197-.566 10.384-1.374 20.672-3.121 30.884-5.454 5.586-1.278 11.227-2.374 16.793-3.758.52-.131 9.475-1.141 9.773-1.742"/></g><path stroke="#004C76" stroke-dasharray="8.82 8.82" stroke-miterlimit="10" stroke-width="1.471" d="M150.106 135.146s37.268-37.217 85.298-46.383M186.732 120.773c9.192-5.389 16.177-15.763 48.667-26.106"/></g><defs><linearGradient id="b" x1="302.426" x2="305.043" y1="290.007" y2="212.366" gradientUnits="userSpaceOnUse"><stop stop-color="#fff"/><stop offset="1" stop-color="#51C7EA"/></linearGradient><linearGradient id="c" x1="169.062" x2="240.164" y1="322.041" y2="322.494" gradientUnits="userSpaceOnUse"><stop stop-color="#fff"/><stop offset="1" stop-color="#51C7EA"/></linearGradient><linearGradient id="d" x1="250.875" x2="321.978" y1="322.041" y2="322.494" gradientUnits="userSpaceOnUse"><stop stop-color="#fff"/><stop offset="1" stop-color="#51C7EA"/></linearGradient><clipPath id="a"><path fill="#fff" d="M.91 0H619.09v400H.91z"/></clipPath></defs></svg>