<svg width="620" height="400" viewBox="0 0 620 400" fill="none" xmlns="http://www.w3.org/2000/svg">
<g clip-path="url(#clip0_1413_56034)">
<g opacity="0.38">
<path d="M40.4501 328.323C38.4602 328.323 44.3643 326.742 46.2784 325.575C50.4501 323.035 54.5865 320.166 58.7279 317.383C71.8239 308.58 81.0006 301.353 94.3693 294.697C132.42 275.747 170.93 262.08 209.642 250.793C326.834 216.631 450.566 246.378 562.218 328.626" fill="url(#paint0_linear_1413_56034)"/>
<path d="M40.4501 328.323C38.4602 328.323 44.3643 326.742 46.2784 325.575C50.4501 323.035 54.5865 320.166 58.7279 317.383C71.8239 308.58 81.0006 301.353 94.3693 294.697C132.42 275.747 170.93 262.08 209.642 250.793C326.834 216.631 450.566 246.378 562.218 328.626" stroke="white" stroke-width="0.4617" stroke-miterlimit="10"/>
</g>
<path opacity="0.15" d="M295.177 103.969C294.151 102.944 294.51 99.1563 294.535 97.8987C294.666 91.7472 297.414 84.0704 301.939 79.7017C303.646 78.0553 305.884 76.9947 307.853 75.6967C327.57 62.6714 350.086 74.5401 352.242 98.1058C353.267 109.288 346.399 119.151 337.394 125.227C334.783 126.99 331.075 130.035 327.666 129.616C318.575 128.495 311.045 120.813 304.742 114.783C301.576 111.752 295.944 108.272 294.464 103.934" fill="#004C76"/>
<path d="M293.688 236.111C293.688 235.979 294.157 236.596 294.182 236.631C294.571 237.247 294.92 237.894 295.228 238.555C296.026 240.247 296.728 241.979 297.42 243.712C299.369 248.606 301.435 253.495 303.097 258.495C307.081 270.495 309.056 286.939 309.561 299.616C309.657 301.985 309.713 304.363 309.576 306.732C309.364 310.303 309.526 310.752 312.975 311.934C313.521 312.121 315.137 313.02 315.723 312.858C316.809 312.56 317.687 308.065 317.884 307.282C319.415 301.348 320.177 295.217 320.693 289.116C322.294 270.207 319.036 245.818 312.935 227.863C311.384 223.303 309.359 218.909 307.349 214.535C306.9 213.56 306.137 210.934 304.91 210.535C303.667 210.131 301.405 212.146 300.48 212.762C299.309 213.54 298.248 214.439 297.647 215.742C296.576 218.07 296.657 220.99 296.283 223.479C295.703 227.404 294.925 231.252 293.935 235.096" fill="#4585C5"/>
<path d="M296.505 118.207C296.505 116.131 292.298 114.015 290.833 113.363C284.429 110.515 275.667 112.091 270.717 116.99C260.813 126.793 255.773 152.873 255.909 166.252C255.919 167.479 256.005 168.712 256.768 169.722C258.232 171.666 267.419 178.126 270.323 177.813C271.293 177.707 272.03 176.702 272.555 175.979C281.631 163.434 283.091 147.656 289.146 133.717C290.586 130.404 296.096 122.141 296.262 118.894" fill="#4585C5"/>
<path d="M314.722 127.015C314.465 127.015 315.743 126.515 315.995 126.5C317.111 126.444 318.238 126.742 319.081 127.505C321.157 129.378 321.222 132.606 320.813 135.156C319.147 145.641 312.768 155.99 308.712 165.712C308.192 166.954 305.046 174.525 303.44 174.217C302.768 174.086 303.015 171.909 303.025 171.49C303.091 168.429 303.293 165.348 303.672 162.313C305.152 150.56 308.642 137.591 314.697 127.303" fill="#67CBE4"/>
<path d="M266.944 204.833C266.05 203.939 266.788 200.121 266.863 199.065C267.283 193.005 268.212 186.873 269.262 180.894C272.778 160.884 276.853 141.227 288.379 124.045C292.646 117.682 300.762 109.151 309.439 113.081C315.222 115.702 316.828 123.904 315.697 129.429C314.348 136.005 311.257 142.348 309.5 148.853C306.399 160.318 304.793 172.53 304.712 184.394C304.672 190.53 304.636 196.631 305.278 202.742C305.343 203.389 306.141 208.99 305.919 209.232C303.192 212.207 296.121 211.803 292.54 212.363C286.343 213.333 280.055 214.424 273.773 213.57C272.343 213.379 268.722 213.075 267.697 211.823C267.03 211.01 266.99 205.384 266.889 204.065" fill="#004C76"/>
<path d="M245.909 83.5705C245.833 83.5705 246.293 82.4189 246.323 82.3432C246.98 80.7775 247.692 79.1008 248.778 77.7775C248.894 77.6361 249.146 77.2422 249.379 77.3179C250.803 77.7927 249.732 81.929 250.561 82.9694C251.465 84.1008 255.328 83.52 255.586 85.2371C255.783 86.5553 253.126 87.2573 252.965 88.6664C252.858 89.5856 253.828 93.4695 253.177 93.9796C252.379 94.6058 249.555 91.0856 248.409 91.0099C246.924 90.9139 243.096 94.6008 242.394 94.2472C241.975 94.0402 243.394 90.0705 243.444 89.525C243.631 87.4745 238.288 86.4493 239.838 85.727C240.995 85.1917 242.308 84.9038 243.5 84.4442" fill="#FAB01D"/>
<path d="M203.728 163.631C203.692 163.697 204.217 162.985 204.308 162.858C204.561 162.52 206.692 159.47 207.015 159.909C207.677 160.803 206.243 162.419 206.834 163.328C207.243 163.954 209.707 164.111 209.667 164.899C209.621 165.742 207.51 165.571 207.238 166.298C206.98 166.99 207.642 169.571 206.889 169.929C206.672 170.035 206.344 169.621 206.228 169.5C205.864 169.126 205.51 168.747 205.167 168.353C203.621 166.565 202.823 169.54 201.202 169.131C200.849 169.04 201.773 166.985 201.743 166.636C201.611 165.323 197.399 164.97 200.642 163.757" fill="#FAB01D"/>
<path d="M372.268 185.762C372.227 185.762 375.328 181.717 375.707 182.404C376.247 183.389 375.207 184.828 375.626 185.873C375.884 186.525 377.793 187.232 377.707 187.894C377.611 188.626 375.859 188.429 375.545 189.055C375.081 189.985 375.465 192.111 374.626 192.752C374.232 193.055 372.99 190.358 372.268 190.283C370.399 190.086 368.379 191.106 368.303 190.919C368.076 190.353 369.5 188.979 369.52 188.282C369.545 187.293 367.369 186.525 367.606 185.717C367.752 185.212 369.763 185.732 370.086 185.788" fill="#FAB01D"/>
<path d="M424.495 165.848C388.288 127.045 450.243 81.0399 479.157 124.414C500.374 156.237 456.147 197.196 424.495 165.848Z" fill="#67CBE4"/>
<path d="M311.343 120.257C311.343 120.328 311.384 120.278 311.424 120.242C311.995 119.767 312.465 119.126 312.98 118.591C314.086 117.429 317.025 116.232 318.252 117.616C326.126 126.495 324.414 115.545 329.338 117.257C334.04 118.889 332.485 116.197 334.98 112.985C337.156 110.182 340.151 108.323 342.5 105.707C343.707 104.358 346.439 101.596 345.237 99.5604C342.985 95.7422 338.49 95.8685 334.823 94.7119C331.369 93.621 326.374 89.9998 322.879 90.4796C315.702 91.4644 314.177 101.762 310.227 106.343C308.555 108.278 304.959 109.823 304 112.227C303.343 113.863 309.939 121.222 311.601 120.641" fill="#F3F3F3"/>
<path d="M311.343 120.257C311.343 120.328 311.384 120.278 311.424 120.242C311.995 119.767 312.465 119.126 312.98 118.591C314.086 117.429 317.025 116.232 318.252 117.616C326.126 126.495 324.414 115.545 329.338 117.257C334.04 118.889 332.485 116.197 334.98 112.985C337.156 110.182 340.151 108.323 342.5 105.707C343.707 104.358 346.439 101.596 345.237 99.5604C342.985 95.7422 338.49 95.8685 334.823 94.7119C331.369 93.621 326.374 89.9998 322.879 90.4796C315.702 91.4644 314.177 101.762 310.227 106.343C308.555 108.278 304.959 109.823 304 112.227C303.343 113.863 309.939 121.222 311.601 120.641" stroke="#35444C" stroke-width="1.75" stroke-miterlimit="10"/>
<path d="M303.142 110.485C303.142 110.429 303.414 110.242 303.46 110.207C305.293 108.677 306.677 107.303 307.318 104.914C308.217 101.565 307.157 97.823 308.384 94.5755C309.212 92.3785 312.505 90.8785 314.258 87.0705C316.046 83.1866 318.677 77.5907 323.677 77.3785C330.419 77.0957 329.677 84.4492 334.596 86.9088C340.142 89.6816 347.95 90.121 350.147 97.1816C350.455 98.1765 350.541 99.2371 350.404 100.267C350.222 101.666 349.379 102.798 348.121 103.429C342.773 106.106 342.258 100.373 338.808 99.4795C336.808 98.9593 334.803 100.687 332.586 99.924C331.273 99.4745 330.879 97.2573 329.601 97.0957C327.182 96.7927 325.682 100.207 323.45 99.7119C322.015 99.3937 324.5 93.2472 320.697 94.3078C318.268 94.9846 316.233 101.788 317.505 103.778C318.662 105.581 324.975 102.879 321.591 107.954C319.889 110.505 317.096 107.747 315.096 107.591C314.086 107.515 313.132 108.06 312.187 108.338C310.616 108.803 303.298 114.515 303.712 110.591" fill="#FAB01D"/>
<path d="M291.677 103.126C293.429 104.879 294.596 107.55 296.045 109.56C298.424 112.863 301.268 115.889 304.258 118.641C307.308 121.449 310.641 123.773 314.202 125.874C318.146 128.202 322.136 130.363 326.273 132.323C327.399 132.858 330.561 129.459 330.535 129.384C330.419 129.04 327.944 128.429 327.596 128.262C324.849 126.944 322.116 125.429 319.49 123.884C312.283 119.636 305.833 113.707 300.086 107.682C298.303 105.808 296.662 103.788 295.424 101.505C295.379 101.424 295.03 100.621 294.909 100.636C294.167 100.742 292.914 102.697 292.03 103.141" fill="#4585C5"/>
<path d="M278.409 216.656C278.409 213.02 276.732 209.045 276.308 205.399C275.222 196.166 274.692 186.788 274.823 177.49C274.945 168.712 275.717 160.156 276.95 151.469C278.091 143.434 279.631 130.818 284.975 124.338C289.965 118.288 299.283 120.111 299.798 128.479C300.308 136.767 295.147 145.04 292.535 152.581C288.51 164.207 285.586 176.394 284.541 188.671C283.98 195.242 283.672 201.884 283.5 208.48C283.389 212.767 285.682 217.035 280.763 216.606C280.025 216.54 279.096 216.828 278.404 216.601" fill="#67CBE4"/>
<path d="M221.041 304.919C221.041 304.863 221.581 304.757 221.616 304.747C223.071 304.328 224.45 303.757 225.823 303.116C229.116 301.586 232.248 299.767 235.157 297.591C244.258 290.783 250.98 281.439 256.576 271.666C263.763 259.111 269.157 245.646 271.349 231.283C272.177 225.848 272.116 220.212 272.344 214.722C272.354 214.419 271.95 212.045 272.02 211.762C272.025 211.742 272.687 211.899 272.727 211.904C273.636 212.05 274.626 211.884 275.535 211.793C277.828 211.575 280.116 211.318 282.409 211.08C287.929 210.515 293.566 210.121 299 208.959C300.126 208.717 304.172 207.111 305.202 207.843C306.182 208.54 306.212 212.424 306.298 213.464C306.965 221.389 301.793 230.06 298.429 236.868C288.47 257.03 272.995 275.505 257.354 291.5C250.909 298.091 243.833 304.606 235.647 308.974C233.99 309.858 232.283 310.601 230.561 311.338C230.369 311.419 228.339 312.555 228.162 312.469C227.394 312.086 226.753 309.878 226.071 309.176C224.546 307.596 222.48 307.101 220.702 305.919" fill="#004C76"/>
<path opacity="0.15" d="M347.223 290.52C346.526 290.172 352.086 290.005 352.758 290.106C356.127 290.616 366.218 291.54 367.086 295.959C367.117 296.121 367.127 296.293 367.086 296.454C366.248 299.636 347.177 297.535 346.49 293.111" fill="#004C76"/>
<path opacity="0.15" d="M366.672 261.353C366.55 261.293 368.343 261.181 368.525 261.176C371.263 261.106 374 261.293 376.727 261.479C383.156 261.919 389.54 262.702 395.919 263.621C416.308 266.56 437.126 270.575 456 279.151C460.106 281.02 473.146 286.474 471.414 293.015C469.414 300.591 447.747 298.904 442.359 298.373C419.237 296.08 395.879 289.171 374.505 280.141C372.055 279.106 343.495 266.434 361.742 264.197" fill="#004C76"/>
<path opacity="0.15" d="M269.182 299.48C270.419 297.01 286.763 294.177 286.44 298.151C285.914 304.555 262.061 307.182 268.162 301.555" fill="#004C76"/>
<path opacity="0.15" d="M174.253 278.495C174.253 275.677 184.051 272.268 185.783 271.52C191.47 269.076 231.758 256.02 234.576 263.061C237.162 269.53 197.308 278.682 191.46 279.899C188.914 280.429 172.015 284.424 173.722 281.116" fill="#004C76"/>
<path opacity="0.15" d="M188.071 296.661C187.788 296.379 188.374 296.01 188.566 295.863C189.889 294.838 197.778 290.722 198.722 293.419C199.738 296.313 185.475 303.303 186.823 299.798" fill="#004C76"/>
<path d="M263.687 205.798C263.141 205.798 264.722 206.131 265.247 206.283C266.449 206.626 267.626 207.071 268.838 207.374C272.247 208.237 275.768 208.454 279.273 208.454C285.505 208.454 291.813 207 297.843 205.576C300.414 204.97 303.06 204.368 305.55 203.464C305.858 203.353 307.146 202.565 307.464 202.702C307.899 202.889 308.53 209.141 308.439 210.106C308.247 212.111 296.515 214.283 294.596 214.677C287.273 216.172 278.965 216.151 271.535 215.298C269.99 215.121 265.914 215.596 264.712 214.394C264.076 213.757 263.656 207.409 263.475 205.949" fill="#67CBE4"/>
<path d="M273.217 203.747C273.217 203.414 273.368 204.368 273.383 204.439C273.485 204.974 273.606 205.505 273.737 206.03C274.161 207.737 274.55 209.444 274.868 211.171C275.868 216.636 275.848 217.762 281.449 218.227C282.03 218.277 284.828 218.666 285.293 218.146C286.252 217.075 285.732 212.651 285.762 211.277C285.838 207.853 285.818 204.227 286.495 200.858C286.52 200.732 286.626 200.439 286.51 200.323C285.944 199.762 271.525 200.277 273.358 203.949" fill="#4585C5"/>
<path d="M277.682 217.262C277.682 217.146 277.111 218.535 276.99 218.808C276.5 219.904 275.616 220.788 274.525 221.272C272.935 221.979 262.515 220.798 266.591 226C269.884 230.202 278.177 230.464 281.46 226.308C282.677 224.772 285.495 219.277 282.672 217.515C281.384 216.712 279.02 217.217 277.546 217.07" fill="#67CBE4"/>
<path d="M311.985 315.328C311.985 315.414 310.172 314.187 310.026 314.045C309.096 313.136 306.157 309.596 308.753 308.768C311.324 307.944 314.642 310.217 316.99 311C320.102 312.035 323.162 311.853 326.344 312.288C327.703 312.475 329.288 313.237 329.41 314.793C329.591 317.121 327.061 317.929 325.228 318.212C320.713 318.904 316.43 318.045 312.541 315.727" fill="#67CBE4"/>
<path d="M225.207 305.136C225.207 305.156 224.121 304.555 223.995 304.484C223.152 304.025 222.268 303.671 221.288 303.828C219.596 304.101 219.965 306.409 220.515 307.49C222.798 311.964 232.505 319.06 237.313 320.692C239.737 321.515 246.399 321.434 244.874 316.964C244.02 314.469 239.535 313.767 237.338 313.091C233.086 311.772 227.854 308.863 225.313 305.05" fill="#67CBE4"/>
<path d="M221.151 303.601C220.985 303.262 222.671 304.651 222.848 304.808C224.116 305.909 225.353 307.04 226.601 308.161C230.742 311.904 232.182 312.571 237.075 309.606C237.535 309.328 239.676 308.672 239.772 308.101C240.055 306.459 236.05 303.702 234.985 302.651C233.929 301.611 230.656 297.121 229.621 296.798C228.954 296.586 228.04 297.894 227.616 298.262C226.005 299.672 222.429 301.161 221.48 303.055" fill="#4585C5"/>
<path d="M306.409 305.293C306.137 305.126 307.066 307.085 307.177 307.459C307.344 308.02 307.152 311.015 307.424 311.318C308.238 312.217 317.566 312.793 318.823 312.207C319.808 311.742 319.687 310.323 319.813 309.676C319.945 309.015 320.929 307.197 320.131 306.611C319.586 306.212 317.232 306.434 316.465 306.394C313.238 306.242 310.147 305.782 307.005 305.363" fill="#004C76"/>
<path opacity="0.15" d="M423.702 118.05C420.652 116.086 376.455 91.1663 382.263 109.267C389.647 132.272 458.51 165.474 479.783 175.924C484.894 178.434 513.106 192.611 517.525 184.687C522.97 174.929 486.495 151.969 484.344 153.318C483.919 153.58 482.849 154.772 483.177 155.282C483.546 155.863 484.328 156.242 484.874 156.626C491.712 161.469 501.985 167.54 505.535 175.49C505.914 176.338 506.147 177.373 505.025 177.681C502.253 178.439 498.318 176.762 495.768 175.889C493.258 175.03 490.793 174.04 488.379 172.944C463.662 161.722 438.571 149.202 416.465 133.429C413.712 131.464 396.177 118.611 400.025 114.015C404.939 108.141 414.667 120.116 419.172 122.863" fill="#004C76"/>
<g opacity="0.19">
<path d="M239.536 315.222C240.268 315.222 238.071 315.156 237.344 315.131C235.935 315.086 234.531 315.06 233.122 315.005C228.586 314.823 224.056 314.616 219.521 314.404C206.278 313.777 193.056 313.045 179.798 312.606C179.369 312.591 178.94 312.575 178.516 312.555C178.117 312.54 177.718 312.525 177.319 312.505C174.505 312.384 171.763 312.535 168.975 312.535C168.758 312.535 168.667 312.611 168.632 312.843C168.394 314.303 170.652 330.57 171.036 330.919C173.112 332.828 179.884 330.666 182.233 330.353C192.617 328.979 202.904 327.232 213.117 324.899C218.702 323.621 224.344 322.525 229.909 321.141C230.43 321.01 239.384 320 239.682 319.399" fill="url(#paint1_linear_1413_56034)"/>
<path d="M239.536 315.222C240.268 315.222 238.071 315.156 237.344 315.131C235.935 315.086 234.531 315.06 233.122 315.005C228.586 314.823 224.056 314.616 219.521 314.404C206.278 313.777 193.056 313.045 179.798 312.606C179.369 312.591 178.94 312.575 178.516 312.555C178.117 312.54 177.718 312.525 177.319 312.505C174.505 312.384 171.763 312.535 168.975 312.535C168.758 312.535 168.667 312.611 168.632 312.843C168.394 314.303 170.652 330.57 171.036 330.919C173.112 332.828 179.884 330.666 182.233 330.353C192.617 328.979 202.904 327.232 213.117 324.899C218.702 323.621 224.344 322.525 229.909 321.141C230.43 321.01 239.384 320 239.682 319.399" stroke="white" stroke-width="0.2416" stroke-miterlimit="10"/>
</g>
<g opacity="0.19">
<path d="M321.349 315.222C322.082 315.222 319.885 315.156 319.157 315.131C317.748 315.086 316.344 315.06 314.935 315.005C310.4 314.823 305.869 314.616 301.334 314.404C288.092 313.777 274.869 313.045 261.612 312.606C261.183 312.591 260.753 312.575 260.329 312.555C259.93 312.54 259.531 312.525 259.132 312.505C256.319 312.384 253.576 312.535 250.789 312.535C250.571 312.535 250.481 312.611 250.445 312.843C250.208 314.303 252.465 330.57 252.849 330.919C254.925 332.828 261.698 330.666 264.046 330.353C274.43 328.979 284.718 327.232 294.93 324.899C300.516 323.621 306.157 322.525 311.723 321.141C312.243 321.01 321.198 320 321.496 319.399" fill="url(#paint2_linear_1413_56034)"/>
<path d="M321.349 315.222C322.082 315.222 319.885 315.156 319.157 315.131C317.748 315.086 316.344 315.06 314.935 315.005C310.4 314.823 305.869 314.616 301.334 314.404C288.092 313.777 274.869 313.045 261.612 312.606C261.183 312.591 260.753 312.575 260.329 312.555C259.93 312.54 259.531 312.525 259.132 312.505C256.319 312.384 253.576 312.535 250.789 312.535C250.571 312.535 250.481 312.611 250.445 312.843C250.208 314.303 252.465 330.57 252.849 330.919C254.925 332.828 261.698 330.666 264.046 330.353C274.43 328.979 284.718 327.232 294.93 324.899C300.516 323.621 306.157 322.525 311.723 321.141C312.243 321.01 321.198 320 321.496 319.399" stroke="white" stroke-width="0.2416" stroke-miterlimit="10"/>
</g>
<path d="M150.106 135.146C150.106 135.146 187.374 97.9291 235.404 88.7625" stroke="#004C76" stroke-width="1.4707" stroke-miterlimit="10" stroke-dasharray="8.82 8.82"/>
<path d="M186.732 120.773C195.924 115.384 202.909 105.01 235.399 94.6665" stroke="#004C76" stroke-width="1.4707" stroke-miterlimit="10" stroke-dasharray="8.82 8.82"/>
</g>
<defs>
<linearGradient id="paint0_linear_1413_56034" x1="302.426" y1="290.007" x2="305.043" y2="212.366" gradientUnits="userSpaceOnUse">
<stop stop-color="white"/>
<stop offset="1" stop-color="#51C7EA"/>
</linearGradient>
<linearGradient id="paint1_linear_1413_56034" x1="169.062" y1="322.041" x2="240.164" y2="322.494" gradientUnits="userSpaceOnUse">
<stop stop-color="white"/>
<stop offset="1" stop-color="#51C7EA"/>
</linearGradient>
<linearGradient id="paint2_linear_1413_56034" x1="250.875" y1="322.041" x2="321.978" y2="322.494" gradientUnits="userSpaceOnUse">
<stop stop-color="white"/>
<stop offset="1" stop-color="#51C7EA"/>
</linearGradient>
<clipPath id="clip0_1413_56034">
<rect width="618.182" height="400" fill="white" transform="translate(0.90918)"/>
</clipPath>
</defs>
</svg>
