<svg xmlns="http://www.w3.org/2000/svg" viewBox="0 0 620 400" fill="none"><g clip-path="url(#a)"><path fill="url(#b)" d="M335.586 362.46c-10.096-2.086-17.005-12.121-18.682-22.293-1.677-10.172.788-20.525 3.298-30.525s5.101-20.298 3.677-30.511c-1.419-10.151-6.687-19.313-9.636-29.126a65.37 65.37 0 0 1-1.697-30.348c.969-5.329 2.848-10.899 7.181-14.142 4.743-3.55 11.147-3.464 17.026-4.171 13.671-1.637 26.404-8.329 36.828-17.319 10.429-8.989 18.717-20.202 25.98-31.899 7.05-11.353 13.535-23.606 24.227-31.621 10.697-8.015 27.263-10.217 36.758-.808 2.873 2.849 4.863 6.515 6.07 10.384 2.389 7.641 1.748 16.192-1.762 23.389-5.768 11.828-18.02 18.773-27.813 27.566-11.409 10.242-20.248 26.151-15.127 40.601 1.531 4.323 4.197 8.136 6.213 12.252 4.237 8.657 5.52 18.823 3.055 28.141-2.465 9.319-8.768 17.657-17.303 22.132-10.091 5.288-22.253 4.99-32.742 9.429-8.349 3.535-15.374 10.106-19.45 18.202-7.555 15.005-5.066 34.207-15.05 47.717-3.036 4.106-9.566 7.323-12.788 3.364" opacity=".32"/><path fill="url(#c)" d="M159.293 336.086a203.975 203.975 0 0 1 41.151-54.212l9.521 6.409c.621.419 1.267.869 1.575 1.55.364.808.167 1.743-.03 2.606a367.08 367.08 0 0 0-8.293 53.581" opacity=".32"/><path fill="url(#d)" d="M297.778 243.884c-6.47-2.521-13.964-.203-19.576 3.883-5.611 4.086-9.833 9.748-14.464 14.914-9.707 10.834-22.955 20.228-37.47 19.253-1.798-.121-3.677-.439-5.091-1.561-1.242-.984-1.975-2.479-2.47-3.984-3.126-9.465 1.662-19.92-.247-29.702-1.843-9.445-9.591-16.612-17.732-21.748-8.142-5.131-17.177-9.02-24.293-15.495s-12.081-16.651-8.924-25.742c3.07-8.849 12.459-13.627 21.151-17.111 8.697-3.485 18.258-7.137 22.919-15.258 4.919-8.581 2.94-19.919 8.147-28.323 3.737-6.031 10.596-9.475 17.485-11.187 9.378-2.328 21.292-.849 25.671 7.768 3.738 7.348.253 16.247 1.263 24.429 1.459 11.813 12.04 20.414 22.848 25.399 10.814 4.98 22.758 7.768 32.485 14.636 14.399 10.167 21.924 29.202 18.379 46.465-1.45 7.05-4.763 13.954-10.409 18.419-5.647 4.465-13.864 6.025-20.243 2.692-5.015-2.621-9.5-8.126-15.005-6.798" opacity=".32"/><path fill="#68CBE3" d="M190.283 285.762c7.126-20.59 19.5-39.338 35.626-53.984 5.379-4.884 12.283-9.596 19.359-7.935 7.374 1.733 11.621 10.147 11.03 17.697-.591 7.551-4.848 14.283-9.399 20.339-9.49 12.626-21.025 23.99-34.974 31.394-3.642 1.934-7.611 3.626-11.733 3.439-4.121-.187-8.384-2.758-9.318-6.773-.949-4.086 1.636-8.076 4.096-11.48M400.829 258.242c-1.566-6.394-9.788-8.798-12.788-14.661-3.187-6.222.657-13.788 5.46-18.869 3.055-3.232 6.757-6.167 11.151-6.874 6.748-1.086 13.122 3.278 18.061 8 18.429 17.596 28.374 43.702 26.318 69.096-.288 3.556-2.298 8.223-5.763 7.379-1.212-.298-2.136-1.252-2.979-2.172-3.283-3.575-6.48-7.227-9.677-10.878-11.712-13.384-23.424-26.773-35.142-40.157"/><path fill="url(#e)" d="M487.955 340.96a193.122 193.122 0 0 0-38.969-51.334c-3.005 2.02-6.011 4.046-9.016 6.066-.585.394-1.202.823-1.495 1.465-.348.762-.161 1.651.031 2.469a347.764 347.764 0 0 1 7.853 50.738" opacity=".32"/><path fill="url(#f)" d="M391.93 205.394c-3.884-8.101-10.642-10.545-17.763-13.364-11.879-4.697-24.394-8.151-37.161-8.545-12.768-.389-25.849 2.439-36.511 9.48-6.752 4.459-12.358 10.459-18.944 15.166a60.768 60.768 0 0 1-22.571 9.97c-7.267 1.561-14.762 1.773-22.06 3.167-7.298 1.399-14.687 4.202-19.546 9.823-5.702 6.601-6.894 16.742-2.879 24.485 4.202 8.096 12.809 12.687 20.263 17.944 7.455 5.258 14.727 13.036 13.813 22.111-.278 2.753-1.308 5.374-1.727 8.112-1.02 6.707 1.889 13.691 6.833 18.333 4.945 4.641 11.712 7.071 18.48 7.525 7.04.475 14.495-1.252 19.672-6.045 6.449-5.965 8.217-15.263 11.071-23.571 2.121-6.162 5.116-12.212 9.949-16.586 4.833-4.374 11.768-6.823 18.03-5.03 8.889 2.54 13.44 12.005 18.935 19.439a57.023 57.023 0 0 0 16.692 15.096c9.848 5.849 22.929 8.389 32.51 2.116 6.681-4.378 10.399-12.343 11.237-20.293.838-7.949-.859-15.944-3.071-23.621-1.697-5.894-3.692-12.293-1.414-17.99 1.101-2.752 3.121-5.06 4.197-7.823 2.758-7.071-1.278-14.934-6.02-20.864-4.732-5.924-10.53-11.59-12.015-19.035Z" opacity=".32"/><path fill="url(#g)" d="M270.268 153.995c2.273 8.505 9.03 11.954 15.677 15.757 11.091 6.344 22.98 11.546 35.565 13.753 12.581 2.207 25.935 1.268 37.49-4.182 7.318-3.454 13.722-8.591 20.909-12.313a60.898 60.898 0 0 1 23.763-6.657c7.414-.505 14.864.349 22.288.005 7.424-.343 15.136-2.065 20.742-6.939 6.586-5.722 9.207-15.586 6.334-23.828-3.005-8.616-10.869-14.379-17.5-20.647-6.632-6.267-12.723-15-10.521-23.853.667-2.687 2.061-5.131 2.864-7.783 1.965-6.495.081-13.818-4.151-19.121-4.238-5.298-10.586-8.667-17.218-10.081-6.899-1.475-14.525-.823-20.333 3.182-7.232 4.985-10.308 13.934-14.318 21.752-2.975 5.798-6.808 11.359-12.212 15-5.404 3.642-12.616 5.076-18.566 2.414-8.434-3.777-11.591-13.798-15.97-21.939a57.02 57.02 0 0 0-14.373-17.323c-8.914-7.192-21.5-11.57-31.874-6.722-7.243 3.383-12.051 10.737-14.015 18.484-1.965 7.748-1.419 15.904-.323 23.819.838 6.075 1.904 12.692-1.162 18.01-1.48 2.565-3.808 4.565-5.268 7.146-3.737 6.606-.863 14.965 2.985 21.51 3.844 6.541 8.778 12.975 9.187 20.556Z" opacity=".32"/><path fill="#004D76" d="M222.531 258.288c.465 6.671.611 13.363.45 20.05 40 11.722 82.636 9.071 124.171 5.591 10.632-.889 21.278-1.833 31.788-3.656a191.442 191.442 0 0 0 39.773-11.445c1.025-.419 2.106-.894 2.753-1.793.641-.894.742-2.055.823-3.151.323-4.44.778-11.324 1.101-15.763-27.596 6.323-56.268 9.475-84.576 9.904-38.439.581-76.889.697-115.333.354"/><path fill="#4684C5" d="M239.46 250.566c15.02-5.879 41.732-6.278 59.116-7.495 40.747-2.854 53.52-2.687 93.136-1.818 10.036.217 20.091 1.909 29.566 5.227.879.308 1.864.747 2.116 1.646.293 1.026-.545 2.01-1.343 2.718-6.515 5.772-15.02 8.717-23.394 11.085-54.546 15.435-112.571 9.995-168.808 2.92-2.955-.374-8.172-3.702-7.313-6.556.262-.859 6.106-4.02 6.969-4.278 4.955-1.51 5.692-2.384 9.955-3.449Z"/><path fill="#004C76" d="M233.783 258.354c.298-28.006-3.964-54.637-3.848-82.642.116-28.005 7.687-58.055 29.364-75.793 5.848-4.788 12.52-8.495 19.449-11.51 13.207-5.742 27.505-9.02 41.904-9.404a108.944 108.944 0 0 1 42.445 7.424c8.161 3.192 15.974 7.404 22.702 13.02 19.995 16.697 28.202 43.889 29.793 69.889 1.59 26-2.394 52.041-1.889 78.086.02.98.03 2.02-.475 2.864-.606 1.015-1.798 1.49-2.909 1.889-35.738 12.778-74.46 13.939-112.414 13.909-21.642-.015-41.546-4.137-64.122-7.732Z" opacity=".08"/><mask id="h" width="187" height="189" x="229" y="78" maskUnits="userSpaceOnUse" style="mask-type:luminance"><path fill="#fff" d="M233.783 258.354c.298-28.006-3.964-54.637-3.848-82.642.116-28.005 7.687-58.055 29.364-75.793 5.848-4.788 12.52-8.495 19.449-11.51 13.207-5.742 27.505-9.02 41.904-9.404a108.944 108.944 0 0 1 42.445 7.424c8.161 3.192 15.974 7.404 22.702 13.02 19.995 16.697 28.202 43.889 29.793 69.889 1.59 26-2.394 52.041-1.889 78.086.02.98.03 2.02-.475 2.864-.606 1.015-1.798 1.49-2.909 1.889-35.738 12.778-74.465 14.348-112.414 13.909-22.344-.253-65.49-7.97-64.122-7.732Z"/></mask><g mask="url(#h)"><path fill="#69CCE5" d="M278.971 237.151h-.647v-80.803h.647v80.803Zm-3.995 0h-.647v-83.56h.647v83.56Zm-3.99-.161h-.647v-86.197h.647v86.197Zm11.979-.041h-.646v-78.484h.646v78.484Zm-15.974-.277h-.647v-88.516h.647v88.516Zm19.969-.122h-.646v-77.09h.646v77.09Zm-23.964-.358h-.647v-90.389h.647v90.389Zm27.959-.278h-.646V159.5h.646v76.414Zm-31.954-.359h-.647v-91.868h.647v91.868Zm35.949-.479h-.646v-76.01h.646v76.01Zm-39.944-.283h-.647v-92.945h.647v92.945Zm43.939-.798h-.646v-75.611h.646v75.611Zm-47.934-.116h-.646v-93.268h.646v93.268Zm-3.995-1h-.646v-92.707h.646v92.707Zm55.924-.243h-.646v-75.131h.646v75.131Zm-59.919-.954h-.646v-91.551h.646v91.551ZM306.93 231h-.646v-74.455h.646V231Zm-67.899-.601h-.646v-89.828h.646v89.828Zm71.894-1.318h-.646v-73.536h.646v73.536Zm-75.889-.116h-.646v-87.516h.646v87.516Zm-3.995-1.642h-.646v-84.596h.646v84.596Zm83.879-.515h-.646v-72.177h.646v72.177Zm-87.874-1.278h-.646v-81.126h.646v81.126Zm91.869-1.318h-.646v-70.5h.646v70.5Zm-95.864-.722h-.646v-77.01h.646v77.01Zm-3.995-2.238h-.646v-72.257h.646v72.257Zm103.854-.116h-.647V152.99h.647v68.146Zm-107.849-2.399h-.646V152.03h.646v66.707Zm111.844-1.156h-.647V152.51h.647v65.071Zm-115.833-1.758h-.647v-60.197h.647v60.197Zm119.828-2.439h-.647v-61.071h.647v61.071Zm-123.823-.879h-.647v-52.444h.647v52.444Zm127.818-4.152h-.652v-55.681h.647v55.681h.005Zm-131.813 0h-.647v-42.818h.647v42.818Zm-3.995-5.434h-.647v-30.035h.647v30.035ZM338.885 202h-.647v-48.172h.647V202Zm3.995-8.546h-.647v-36.787h.647v36.787Zm-147.788-1.757h-.647v-5.591h.647v5.591Zm151.783-16.217h-.647v-8.51h.647v8.51Z" opacity=".6"/></g><mask id="i" width="187" height="189" x="229" y="78" maskUnits="userSpaceOnUse" style="mask-type:luminance"><path fill="#fff" d="M233.783 258.354c.298-28.006-3.964-54.637-3.848-82.642.116-28.005 7.687-58.055 29.364-75.793 5.848-4.788 12.52-8.495 19.449-11.51 13.207-5.742 27.505-9.02 41.904-9.404a108.944 108.944 0 0 1 42.445 7.424c8.161 3.192 15.974 7.404 22.702 13.02 19.995 16.697 28.202 43.889 29.793 69.889 1.59 26-2.394 52.041-1.889 78.086.02.98.03 2.02-.475 2.864-.606 1.015-1.798 1.49-2.909 1.889-35.738 12.778-74.465 14.348-112.414 13.909-22.344-.253-65.49-7.97-64.122-7.732Z"/></mask><g mask="url(#i)"><g opacity=".31"><path fill="url(#j)" d="M462.697 185.182c8.182-6.036 17.965-16.005 4.46-29.515-14.323-14.324-45.965 21.247-60.126-6.556-8.596-16.869 18.54-36.197 9.485-65.596-12.384-40.227-85.364-50.232-114.703-49.121-83.434 3.157-129.525 70.136-128.898 130.096.787 75.505 96.747 185.939 201.893 102.858 31.728-25.07 24.218-35.949 53.601-58.696"/><path stroke="#fff" stroke-miterlimit="10" stroke-width=".166" d="M462.697 185.182c8.182-6.036 17.965-16.005 4.46-29.515-14.323-14.324-45.965 21.247-60.126-6.556-8.596-16.869 18.54-36.197 9.485-65.596-12.384-40.227-85.364-50.232-114.703-49.121-83.434 3.157-129.525 70.136-128.898 130.096.787 75.505 96.747 185.939 201.893 102.858 31.728-25.07 24.218-35.949 53.601-58.696"/></g><path fill="url(#k)" stroke="#fff" stroke-miterlimit="10" stroke-width=".166" d="M443.015 134.379c-5.227 4.671-17.611 11.823-24.353 3.368-7.101-8.909 1.772-21.843 7.101-26.186 5.641-4.596 14.596-7.086 21.282-.485 7.354 7.272.738 19.04-4.03 23.303Z" opacity=".31"/><path fill="#68CBE3" d="M237.435 120.212c-.631-6.202 3.884-11.742 10.086-12.369 6.202-.631 11.737 3.889 12.368 10.086.632 6.202-3.883 11.738-10.085 12.369-6.202.631-11.738-3.884-12.369-10.086Z"/><path fill="#fff" d="M272.849 243.278c0-.818.666-1.485 1.484-1.485a1.484 1.484 0 1 1-1.484 1.485ZM342.799 229.485a1.485 1.485 0 1 1 2.97 0 1.485 1.485 0 0 1-2.97 0ZM404.253 183.697c0-.818.667-1.485 1.485-1.485a1.485 1.485 0 1 1-1.485 1.485ZM247.177 217.955a1.483 1.483 0 1 1 2.969 0c0 .818-.666 1.484-1.484 1.484a1.483 1.483 0 0 1-1.485-1.484ZM324.783 131.737c0-.818.667-1.485 1.485-1.485a1.484 1.484 0 1 1-1.485 1.485ZM379.142 137.106c0-.818.666-1.485 1.484-1.485.819 0 1.485.667 1.485 1.485 0 .818-.666 1.485-1.485 1.485a1.487 1.487 0 0 1-1.484-1.485ZM374.904 227.47a1.122 1.122 0 1 1 2.244.002 1.122 1.122 0 0 1-2.244-.002ZM312.439 92.43a2.382 2.382 0 0 1 2.384-2.385 2.382 2.382 0 0 1 2.384 2.384 2.382 2.382 0 0 1-2.384 2.384 2.382 2.382 0 0 1-2.384-2.384ZM235.632 108.909c0-.621.5-1.121 1.121-1.121s1.121.5 1.121 1.121-.5 1.121-1.121 1.121c-.616 0-1.121-.5-1.121-1.121ZM262.5 123.066c2.722-.389 3.035-.702 3.419-3.425.384 2.723.702 3.031 3.424 3.425-2.722.388-3.035.697-3.424 3.419-.384-2.722-.697-3.031-3.419-3.419ZM284.39 112.167c2.722-.389 3.035-.702 3.424-3.42.384 2.723.702 3.031 3.419 3.42-2.722.389-3.035.702-3.419 3.424-.389-2.722-.702-3.035-3.424-3.424ZM280.965 130.535c2.722-.384 3.035-.697 3.424-3.419.384 2.722.697 3.035 3.424 3.419-2.722.389-3.035.702-3.424 3.425-.389-2.723-.702-3.036-3.424-3.425ZM408.521 234.066c1.282-.182 1.429-.329 1.611-1.611.181 1.277.328 1.429 1.611 1.611-1.283.182-1.43.328-1.611 1.611-.187-1.283-.334-1.429-1.611-1.611Z"/><path fill="#004C76" d="m333.515 256.848 33.844-30.989a.237.237 0 0 1 .333.015.238.238 0 0 1 0 .318l-30.99 33.843a2.259 2.259 0 0 1-3.187.142 2.253 2.253 0 0 1 0-3.329ZM244.884 169.879l22.929-21a.16.16 0 0 1 .228.01.163.163 0 0 1 0 .217l-21 22.929a1.526 1.526 0 1 1-2.253-2.06c.031-.036.066-.066.096-.096Z" opacity=".15"/><path fill="#fff" d="M291.056 260.621a.89.89 0 1 1-.581 1.682.89.89 0 0 1 .581-1.682ZM290.44 251.429a1.195 1.195 0 1 1-.784 2.258 1.195 1.195 0 0 1 .784-2.258Z"/><path fill="#fff" d="m290.64 261.369-5.664 9.099.295.184 5.664-9.099-.295-.184Z"/><path fill="#fff" d="m289.874 252.571.349-.026.717 8.904-.349.031-.717-8.909ZM232.076 160.702l-.247.167-3.874-5.627.248-.171 3.873 5.631Z"/><path fill="#fff" d="m232.102 160.769-.294.046 5.687 36.708.294-.046-5.687-36.708Z"/><path fill="#fff" d="m246.293 194.232-8.58 3.399-.111-.277 8.58-3.399.111.277Z"/><path fill="#fff" d="m246.384 194.096-.298-.01.278-7.399.298.01-.278 7.399Z"/><path fill="#fff" d="m246.586 186.823-9.722 5.248-.141-.263 9.722-5.247.141.262Z"/><path fill="#fff" d="M246.147 187.429a.823.823 0 1 1 .737-1.475.824.824 0 1 1-.737 1.475ZM237.288 198.232a.821.821 0 0 1-.364-1.106.827.827 0 0 1 1.106-.368.823.823 0 0 1 .369 1.106.83.83 0 0 1-1.111.368ZM245.965 194.626a.596.596 0 0 1-.268-.803.598.598 0 1 1 .268.803ZM236.525 192.475a.598.598 0 1 1 .537-1.071.598.598 0 0 1-.537 1.071ZM231.485 161.222a.598.598 0 1 1 .535-1.07.598.598 0 0 1-.535 1.07ZM333.288 99.151a1.232 1.232 0 0 1-1.151-1.313 1.234 1.234 0 1 1 1.151 1.313ZM332.556 110.268a.916.916 0 0 1-.854-.98.924.924 0 0 1 .975-.859c.505.036.889.47.859.975a.926.926 0 0 1-.98.864ZM382.313 87.101a1.23 1.23 0 0 1-1.146-1.313 1.233 1.233 0 0 1 1.313-1.152 1.232 1.232 0 0 1 1.152 1.308 1.246 1.246 0 0 1-1.319 1.157ZM325.778 115.859a1.233 1.233 0 0 1-1.146-1.314 1.233 1.233 0 0 1 1.313-1.151 1.23 1.23 0 0 1 1.151 1.308 1.242 1.242 0 0 1-1.318 1.157Z"/><path fill="#fff" d="M271.995 71.828c-.03.05-.081.076-.116.116l53.874 42.824.222-.283-53.884-42.834c-.03.061-.061.122-.096.177Z"/><path fill="#fff" d="m332.486 109.219-6.754 5.276.221.282 6.754-5.276-.221-.282Z"/><path fill="#fff" d="m333.551 97.93-.758 11.434-.358-.021.757-11.434.359.02Z"/><path fill="#fff" d="m333.546 97.869-.348.1-9.192-31.01.343-.106 9.197 31.016ZM348.894 45.813l-.274.23 33.62 39.948.274-.23-33.62-39.948Z"/><path fill="#fff" d="m380.369 137.328-.358-.01 2.207-51.454.358.015-2.207 51.449Z"/><path fill="#68CBE3" d="M276.233 171.611c8.616-4.121 18.974-.465 23.096 8.152 4.121 8.616.464 18.974-8.152 23.096a17.208 17.208 0 0 1-7.45 1.697c-6.464 0-12.681-3.632-15.651-9.844-4.116-8.616-.46-18.98 8.157-23.101Z"/><path fill="#004C76" d="M252.566 203.318c.601 1.253 2.237 1.798 4.626 1.798 3.904 0 9.803-1.48 16.369-3.848 4.581-1.632 9.485-3.702 14.273-5.99 4.606-2.202 9.126-4.616 13.161-7.066 9.839-5.939 16.834-12.005 15.233-15.343-1.904-3.975-13.445-.627-20.526 1.879.465.429.899.899 1.313 1.399 11.824-4.086 17.021-3.778 17.627-2.521.697 1.465-3.541 6.308-13.647 12.546-3.798 2.343-8.419 4.889-13.919 7.525-5.727 2.732-10.773 4.793-15.091 6.298-10.889 3.773-17.141 4-17.828 2.566-.591-1.223 2.323-5.374 12.596-11.859a12.965 12.965 0 0 1-.273-1.909c-6.217 3.859-15.783 10.621-13.914 14.525ZM295.687 129.429l33.844-30.99a.238.238 0 0 1 .333.016.239.239 0 0 1 0 .318l-30.99 33.843a2.259 2.259 0 0 1-3.187.142 2.253 2.253 0 0 1-.141-3.187c.045-.051.096-.096.141-.142Z" opacity=".15"/></g><mask id="l" width="187" height="189" x="229" y="78" maskUnits="userSpaceOnUse" style="mask-type:luminance"><path fill="#fff" d="M233.783 258.354c.298-28.006-3.964-54.637-3.848-82.642.116-28.005 7.687-58.055 29.364-75.793 5.848-4.788 12.52-8.495 19.449-11.51 13.207-5.742 27.505-9.02 41.904-9.404a108.944 108.944 0 0 1 42.445 7.424c8.161 3.192 15.974 7.404 22.702 13.02 19.995 16.697 28.202 43.889 29.793 69.889 1.59 26-2.394 52.041-1.889 78.086.02.98.03 2.02-.475 2.864-.606 1.015-1.798 1.49-2.909 1.889-35.738 12.778-74.465 14.348-112.414 13.909-22.344-.253-65.49-7.97-64.122-7.732Z"/></mask><g mask="url(#l)"><path fill="#68CBE3" d="M330.904 229.495c-3.454-.288-7.086 1.358-8.858 4.338-1.773 2.975-1.384 7.177 1.136 9.556 1.05.99 2.379 1.636 3.742 2.116 1.566.551 3.308.894 4.864.328 1.051-.378 1.919-1.141 2.646-1.99 1.526-1.787 2.506-4.07 2.551-6.419.045-2.348-.894-4.737-2.657-6.288-.924-.813-2.277-1.474-3.424-1.641Z"/></g><mask id="m" width="187" height="189" x="229" y="78" maskUnits="userSpaceOnUse" style="mask-type:luminance"><path fill="#fff" d="M233.783 258.354c.298-28.006-3.964-54.637-3.848-82.642.116-28.005 7.687-58.055 29.364-75.793 5.848-4.788 12.52-8.495 19.449-11.51 13.207-5.742 27.505-9.02 41.904-9.404a108.944 108.944 0 0 1 42.445 7.424c8.161 3.192 15.974 7.404 22.702 13.02 19.995 16.697 28.202 43.889 29.793 69.889 1.59 26-2.394 52.041-1.889 78.086.02.98.03 2.02-.475 2.864-.606 1.015-1.798 1.49-2.909 1.889-35.738 12.778-74.465 14.348-112.414 13.909-22.344-.253-65.49-7.97-64.122-7.732Z"/></mask><g mask="url(#m)"><path fill="#68CBE3" d="M367.217 120.237c-36.444-.485-31.217 52.253 4.182 46.92 25.975-3.91 26.369-45.309-4.182-46.92Z"/><path fill="#004C76" d="M342.556 141.909c-2.404-.646-35.485-11.601-23.601-17.01 15.101-6.874 63.783 12.798 78.919 18.788 3.636 1.439 23.869 9.232 21.884 15.136-2.445 7.273-30.96-.666-31.268-2.379-.06-.338.051-1.429.46-1.5.464-.08 1.02.142 1.464.243 5.622 1.237 13.45 3.656 19.132 1.788.606-.197 1.242-.561.879-1.273-.899-1.758-3.566-2.985-5.187-3.879a57.227 57.227 0 0 0-4.909-2.399c-17.122-7.384-35.071-14.353-53.298-18.308-2.268-.49-16.899-3.47-17.46.611-.717 5.212 9.864 4.626 13.338 5.647" opacity=".15"/></g><path fill="#fff" d="M406.673 202.096c2.767-4.707 2.919-10.445 3-15.904.116-7.975.227-15.965-.49-23.904a114.554 114.554 0 0 0-10.248-38.02c-2.762-5.925-6.091-11.692-10.782-16.243-3.894-3.778-8.596-6.596-13.253-9.384l-10.384-6.212c-2.904-1.737-5.828-3.485-8.98-4.727-6.878-2.707-14.454-2.874-21.848-3.005-7.667-.136-15.374-.268-22.96.848-6.05.89-11.969 2.571-17.722 4.652-7.298 2.641-14.833 6.364-18.566 13.172a809.703 809.703 0 0 1 30.581 4.641c5.475.939 10.975 1.944 16.172 3.894 8.066 3.03 15.111 8.222 21.98 13.424 13.424 10.167 26.707 20.677 37.995 33.172 11.288 12.495 20.575 27.141 24.823 43.439" opacity=".71"/><path fill="#F0B11D" d="m387.693 184.899 1.005-1.626c.217-.354.758-.182.743.232-.021.46-.101.944.05 1.364.197.555.717.853 1.303 1.025.303.091.369.485.126.687a4.004 4.004 0 0 0-1.399 2.894.399.399 0 0 1-.651.293c-.44-.354-.859-.733-1.207-1.177a.403.403 0 0 0-.465-.116c-.545.222-1.076.474-1.601.742-.323.167-.692-.141-.566-.48.197-.54.324-1.096.324-1.666 0-.657-.192-1.334-.571-1.864-.202-.273.02-.667.359-.631.434.045.863.161 1.257.348M297.819 146.848l1.005-1.626c.217-.353.758-.182.743.233-.021.459-.101.944.05 1.363.197.556.717.854 1.303 1.025.303.091.369.485.126.687a4.004 4.004 0 0 0-1.399 2.894.399.399 0 0 1-.651.293c-.44-.353-.859-.732-1.207-1.177a.404.404 0 0 0-.465-.116c-.545.222-1.076.475-1.601.743-.323.166-.692-.142-.566-.48.197-.541.324-1.096.324-1.667 0-.656-.192-1.333-.571-1.863-.202-.273.02-.667.359-.632.434.046.863.162 1.257.349M359.501 206.177c.227-.869.672-1.202 1.106-1.793.187-.253.581-.222.712.06.187.384.324.793.404 1.218a.413.413 0 0 0 .435.333l1.626-.106c.364-.025.581.399.353.687a5.25 5.25 0 0 1-.757.778c-.162.131-.338.267-.404.464-.056.167-.02.354.02.525.086.349.192.697.318 1.031.121.318-.182.651-.51.55a2.678 2.678 0 0 1-.783-.379c-.222-.161-.459-.368-.732-.333-.177.02-.323.136-.46.248l-1.252 1.03c-.243.202-.626.071-.677-.243a3.851 3.851 0 0 0-.217-.752 4.438 4.438 0 0 0-1.596-1.98.416.416 0 0 1 .116-.742c.793-.243 1.636-.591 2.298-.596ZM210.087 122.359l1.005-1.627c.217-.353.757-.182.742.233-.02.459-.101.944.051 1.363.197.556.717.854 1.303 1.026.303.09.368.484.126.686a4 4 0 0 0-1.399 2.894.4.4 0 0 1-.652.293c-.439-.353-.858-.732-1.207-1.177a.403.403 0 0 0-.464-.116 20.92 20.92 0 0 0-1.601.743c-.324.166-.692-.142-.566-.48.197-.54.323-1.096.323-1.667 0-.656-.192-1.333-.57-1.863-.202-.273.02-.667.358-.632.434.046.864.162 1.258.349M335.349 53.773l1.005-1.627c.218-.353.758-.181.743.233-.02.46-.101.944.05 1.363.197.556.717.854 1.303 1.026.303.09.369.484.127.687a3.996 3.996 0 0 0-1.399 2.893.4.4 0 0 1-.652.293c-.439-.353-.858-.732-1.207-1.176a.403.403 0 0 0-.465-.117c-.545.223-1.075.475-1.601.743-.323.166-.692-.142-.565-.48.197-.54.323-1.096.323-1.667 0-.656-.192-1.333-.571-1.863a.4.4 0 0 1 .359-.632c.434.046.863.162 1.257.349M314.491 302.596l1.005-1.626c.217-.354.758-.182.742.232-.02.46-.101.944.051 1.364.197.555.717.853 1.303 1.025.303.091.369.485.126.687a4.004 4.004 0 0 0-1.399 2.894.399.399 0 0 1-.651.293c-.44-.354-.859-.733-1.207-1.177a.401.401 0 0 0-.465-.116c-.545.222-1.076.474-1.601.742-.323.167-.692-.141-.566-.48.197-.54.324-1.096.324-1.666 0-.657-.192-1.334-.571-1.864-.202-.273.02-.667.358-.631a3.87 3.87 0 0 1 1.258.348"/><path fill="#68CBE3" d="M435.647 278.394c-7.01-11.394-17.151-20.839-29.01-27.03-1.596-.834-3.288-1.627-5.086-1.642-2.883-.025-5.5 2.051-6.757 4.647-1.258 2.596-1.349 5.616-.975 8.474.995 7.551 5.076 14.445 10.343 19.945 5.268 5.5 11.697 9.742 18.218 13.672 2.823 1.702 5.767 3.383 9.025 3.868 3.263.48 6.944-.505 8.803-3.227 2.217-3.242 1.187-7.672-.404-11.263a44.034 44.034 0 0 0-11.652-15.611"/><path fill="#004D76" d="M426.4 303.864c4.49-1.637 8.156-4.915 11.702-8.122 5.414-4.899 10.833-9.798 16.247-14.697.566-.51 1.293-1.055 2.01-.808.576.202.859.829 1.126 1.374a10.95 10.95 0 0 0 5.632 5.222 168.595 168.595 0 0 1-29.066 27.111l-8.187-8.717"/><path fill="#68CBE3" d="M207.102 295.939c4.56-13.025 13.394-24.515 24.813-32.262 5.035-3.42 10.863-6.192 16.944-5.904 1.945.09 4.015.58 5.298 2.04 1.647 1.869 1.5 4.732.727 7.101-1.656 5.071-5.565 9.045-9.52 12.621a163.632 163.632 0 0 1-20.636 15.879c-3.374 2.192-6.945 4.308-10.924 4.924-1.44.222-2.99.227-4.258-.48-2.268-1.262-2.848-4.429-1.99-6.873.859-2.45 2.793-4.339 4.662-6.137"/><path fill="#004D76" d="M190.672 273.833a133.9 133.9 0 0 0 26.47 22.596c.965.626 1.99 1.303 2.429 2.369.667 1.626-.288 3.424-1.212 4.914a5471.958 5471.958 0 0 1-4.399 7.101 113.299 113.299 0 0 1-30.732-26.177c-.339-.414-.687-.853-.778-1.379-.126-.702.227-1.388.576-2.01a55.321 55.321 0 0 1 6.692-9.399"/></g><defs><linearGradient id="b" x1="300.559" x2="459.472" y1="339.315" y2="118.583" gradientUnits="userSpaceOnUse"><stop stop-color="#fff" stop-opacity="0"/><stop offset="1" stop-color="#51C7EA"/></linearGradient><linearGradient id="c" x1="178.105" x2="203.718" y1="349.662" y2="279.719" gradientUnits="userSpaceOnUse"><stop stop-color="#fff" stop-opacity="0"/><stop offset="1" stop-color="#004C75"/></linearGradient><linearGradient id="d" x1="337.013" x2="172.12" y1="234.209" y2="171.571" gradientUnits="userSpaceOnUse"><stop stop-color="#fff" stop-opacity="0"/><stop offset="1" stop-color="#51C7EA"/></linearGradient><linearGradient id="e" x1="470.141" x2="445.887" y1="353.812" y2="287.582" gradientUnits="userSpaceOnUse"><stop stop-color="#fff" stop-opacity="0"/><stop offset="1" stop-color="#004C75"/></linearGradient><linearGradient id="f" x1="221.444" x2="410.215" y1="218.865" y2="298.479" gradientUnits="userSpaceOnUse"><stop stop-color="#fff" stop-opacity="0"/><stop offset="1" stop-color="#51C7EA"/></linearGradient><linearGradient id="g" x1="440.928" x2="265.432" y1="164.962" y2="59.267" gradientUnits="userSpaceOnUse"><stop stop-color="#fff" stop-opacity="0"/><stop offset="1" stop-color="#51C7EA"/></linearGradient><linearGradient id="j" x1="179.331" x2="360.451" y1="116.272" y2="184.192" gradientUnits="userSpaceOnUse"><stop stop-color="#fff"/><stop offset="1" stop-color="#51C7EA"/></linearGradient><linearGradient id="k" x1="155.047" x2="376.217" y1="20.364" y2="103.303" gradientUnits="userSpaceOnUse"><stop stop-color="#fff"/><stop offset="1" stop-color="#51C7EA"/></linearGradient><clipPath id="a"><path fill="#fff" d="M.91 0H619.09v400H.91z"/></clipPath></defs></svg>