<svg width="620" height="400" viewBox="0 0 620 400" fill="none" xmlns="http://www.w3.org/2000/svg">
<g clip-path="url(#clip0_1413_45850)">
<g opacity="0.32">
<path d="M335.586 362.46C325.49 360.374 318.581 350.339 316.904 340.167C315.227 329.995 317.692 319.642 320.202 309.642C322.712 299.642 325.303 289.344 323.879 279.131C322.46 268.98 317.192 259.818 314.243 250.005C311.303 240.212 310.717 229.717 312.546 219.657C313.515 214.328 315.394 208.758 319.727 205.515C324.47 201.965 330.874 202.051 336.753 201.344C350.424 199.707 363.157 193.015 373.581 184.025C384.01 175.036 392.298 163.823 399.561 152.126C406.611 140.773 413.096 128.52 423.788 120.505C434.485 112.49 451.051 110.288 460.546 119.697C463.419 122.546 465.409 126.212 466.616 130.081C469.005 137.722 468.364 146.273 464.854 153.47C459.086 165.298 446.834 172.243 437.041 181.036C425.632 191.278 416.793 207.187 421.914 221.637C423.445 225.96 426.111 229.773 428.127 233.889C432.364 242.546 433.647 252.712 431.182 262.03C428.717 271.349 422.414 279.687 413.879 284.162C403.788 289.45 391.626 289.152 381.137 293.591C372.788 297.126 365.763 303.697 361.687 311.793C354.132 326.798 356.621 346 346.637 359.51C343.601 363.616 337.071 366.833 333.849 362.874" fill="url(#paint0_linear_1413_45850)"/>
</g>
<g opacity="0.32">
<path d="M159.293 336.086C169.843 315.879 183.823 297.47 200.444 281.874C203.616 284.01 206.793 286.147 209.965 288.283C210.586 288.702 211.232 289.152 211.54 289.833C211.904 290.641 211.707 291.576 211.51 292.439C207.429 310.061 204.657 327.985 203.217 346.02" fill="url(#paint1_linear_1413_45850)"/>
</g>
<g opacity="0.32">
<path d="M297.778 243.884C291.308 241.363 283.814 243.681 278.202 247.767C272.591 251.853 268.369 257.515 263.738 262.681C254.031 273.515 240.783 282.909 226.268 281.934C224.47 281.813 222.591 281.495 221.177 280.373C219.935 279.389 219.202 277.894 218.707 276.389C215.581 266.924 220.369 256.469 218.46 246.687C216.617 237.242 208.869 230.075 200.728 224.939C192.586 219.808 183.551 215.919 176.435 209.444C169.319 202.969 164.354 192.793 167.511 183.702C170.581 174.853 179.97 170.075 188.662 166.591C197.359 163.106 206.92 159.454 211.581 151.333C216.5 142.752 214.521 131.414 219.728 123.01C223.465 116.979 230.324 113.535 237.213 111.823C246.591 109.495 258.505 110.974 262.884 119.591C266.622 126.939 263.137 135.838 264.147 144.02C265.606 155.833 276.187 164.434 286.995 169.419C297.809 174.399 309.753 177.187 319.48 184.055C333.879 194.222 341.404 213.257 337.859 230.52C336.409 237.57 333.096 244.474 327.45 248.939C321.803 253.404 313.586 254.964 307.207 251.631C302.192 249.01 297.707 243.505 292.202 244.833" fill="url(#paint2_linear_1413_45850)"/>
</g>
<path d="M190.283 285.762C197.409 265.172 209.783 246.424 225.909 231.778C231.288 226.894 238.192 222.182 245.268 223.843C252.642 225.576 256.889 233.99 256.298 241.54C255.707 249.091 251.45 255.823 246.899 261.879C237.409 274.505 225.874 285.869 211.925 293.273C208.283 295.207 204.314 296.899 200.192 296.712C196.071 296.525 191.808 293.954 190.874 289.939C189.925 285.853 192.51 281.863 194.97 278.459" fill="#68CBE3"/>
<path d="M400.829 258.242C399.263 251.848 391.041 249.444 388.041 243.581C384.854 237.359 388.698 229.793 393.501 224.712C396.556 221.48 400.258 218.545 404.652 217.838C411.4 216.752 417.774 221.116 422.713 225.838C441.142 243.434 451.087 269.54 449.031 294.934C448.743 298.49 446.733 303.157 443.268 302.313C442.056 302.015 441.132 301.061 440.289 300.141C437.006 296.566 433.809 292.914 430.612 289.263C418.9 275.879 407.188 262.49 395.47 249.106" fill="#68CBE3"/>
<g opacity="0.32">
<path d="M487.955 340.96C477.965 321.828 464.728 304.394 448.986 289.626C445.981 291.646 442.975 293.672 439.97 295.692C439.385 296.086 438.768 296.515 438.475 297.157C438.127 297.919 438.314 298.808 438.506 299.626C442.369 316.313 444.996 333.288 446.359 350.364" fill="url(#paint3_linear_1413_45850)"/>
</g>
<g opacity="0.32">
<path d="M391.93 205.394C388.046 197.293 381.288 194.849 374.167 192.03C362.288 187.333 349.773 183.879 337.006 183.485C324.238 183.096 311.157 185.924 300.495 192.965C293.743 197.424 288.137 203.424 281.551 208.131C274.814 212.95 267.081 216.369 258.98 218.101C251.713 219.662 244.218 219.874 236.92 221.268C229.622 222.667 222.233 225.47 217.374 231.091C211.672 237.692 210.48 247.833 214.495 255.576C218.697 263.672 227.304 268.263 234.758 273.52C242.213 278.778 249.485 286.556 248.571 295.631C248.293 298.384 247.263 301.005 246.844 303.743C245.824 310.45 248.733 317.434 253.677 322.076C258.622 326.717 265.389 329.147 272.157 329.601C279.197 330.076 286.652 328.349 291.829 323.556C298.278 317.591 300.046 308.293 302.9 299.985C305.021 293.823 308.016 287.773 312.849 283.399C317.682 279.025 324.617 276.576 330.879 278.369C339.768 280.909 344.319 290.374 349.814 297.808C354.304 303.884 360.016 309.051 366.506 312.904C376.354 318.753 389.435 321.293 399.016 315.02C405.697 310.642 409.415 302.677 410.253 294.727C411.091 286.778 409.394 278.783 407.182 271.106C405.485 265.212 403.49 258.813 405.768 253.116C406.869 250.364 408.889 248.056 409.965 245.293C412.723 238.222 408.687 230.359 403.945 224.429C399.213 218.505 393.415 212.839 391.93 205.394Z" fill="url(#paint4_linear_1413_45850)"/>
</g>
<g opacity="0.32">
<path d="M270.268 153.995C272.541 162.5 279.298 165.949 285.945 169.752C297.036 176.096 308.925 181.298 321.51 183.505C334.091 185.712 347.445 184.773 359 179.323C366.318 175.869 372.722 170.732 379.909 167.01C387.263 163.202 395.404 160.919 403.672 160.353C411.086 159.848 418.536 160.702 425.96 160.358C433.384 160.015 441.096 158.293 446.702 153.419C453.288 147.697 455.909 137.833 453.036 129.591C450.031 120.975 442.167 115.212 435.536 108.944C428.904 102.677 422.813 93.9443 425.015 85.0908C425.682 82.4039 427.076 79.9595 427.879 77.3079C429.844 70.813 427.96 63.4898 423.728 58.1867C419.49 52.8888 413.142 49.5201 406.51 48.1059C399.611 46.6312 391.985 47.2827 386.177 51.2877C378.945 56.2726 375.869 65.2221 371.859 73.0403C368.884 78.8382 365.051 84.3989 359.647 88.0403C354.243 91.6817 347.031 93.116 341.081 90.4544C332.647 86.6766 329.49 76.6564 325.111 68.515C321.536 61.8635 316.616 55.9342 310.738 51.1918C301.824 43.9999 289.238 39.6211 278.864 44.4696C271.621 47.8534 266.813 55.2069 264.849 62.9544C262.884 70.7019 263.43 78.8584 264.526 86.7726C265.364 92.8483 266.43 99.4645 263.364 104.783C261.884 107.348 259.556 109.348 258.096 111.929C254.359 118.535 257.233 126.894 261.081 133.439C264.925 139.98 269.859 146.414 270.268 153.995Z" fill="url(#paint5_linear_1413_45850)"/>
</g>
<path d="M222.531 258.288C222.996 264.959 223.142 271.651 222.981 278.338C262.981 290.06 305.617 287.409 347.152 283.929C357.784 283.04 368.43 282.096 378.94 280.273C392.562 277.909 405.92 274.066 418.713 268.828C419.738 268.409 420.819 267.934 421.466 267.035C422.107 266.141 422.208 264.98 422.289 263.884C422.612 259.444 423.067 252.56 423.39 248.121C395.794 254.444 367.122 257.596 338.814 258.025C300.375 258.606 261.925 258.722 223.481 258.379" fill="#004D76"/>
<path d="M239.46 250.566C254.48 244.687 281.192 244.288 298.576 243.071C339.323 240.217 352.096 240.384 391.712 241.253C401.748 241.47 411.803 243.162 421.278 246.48C422.157 246.788 423.142 247.227 423.394 248.126C423.687 249.152 422.849 250.136 422.051 250.844C415.536 256.616 407.031 259.561 398.657 261.929C344.111 277.364 286.086 271.924 229.849 264.849C226.894 264.475 221.677 261.147 222.536 258.293C222.798 257.434 228.642 254.273 229.505 254.015C234.46 252.505 235.197 251.631 239.46 250.566Z" fill="#4684C5"/>
<g opacity="0.08">
<path d="M233.783 258.354C234.081 230.348 229.819 203.717 229.935 175.712C230.051 147.707 237.622 117.657 259.299 99.9192C265.147 95.1313 271.819 91.4242 278.748 88.4091C291.955 82.6666 306.253 79.3888 320.652 79.005C335.107 78.6212 349.632 81.1616 363.097 86.4293C371.258 89.6212 379.071 93.8333 385.799 99.4495C405.794 116.146 414.001 143.338 415.592 169.338C417.182 195.338 413.198 221.379 413.703 247.424C413.723 248.404 413.733 249.444 413.228 250.288C412.622 251.303 411.43 251.778 410.319 252.177C374.581 264.955 335.859 266.116 297.905 266.086C276.263 266.071 256.359 261.949 233.783 258.354Z" fill="#004C76"/>
</g>
<mask id="mask0_1413_45850" style="mask-type:luminance" maskUnits="userSpaceOnUse" x="229" y="78" width="187" height="189">
<path d="M233.783 258.354C234.081 230.348 229.819 203.717 229.935 175.712C230.051 147.707 237.622 117.657 259.299 99.9192C265.147 95.1313 271.819 91.4242 278.748 88.4091C291.955 82.6666 306.253 79.3888 320.652 79.005C335.107 78.6212 349.632 81.1616 363.097 86.4293C371.258 89.6212 379.071 93.8333 385.799 99.4495C405.794 116.146 414.001 143.338 415.592 169.338C417.182 195.338 413.198 221.379 413.703 247.424C413.723 248.404 413.733 249.444 413.228 250.288C412.622 251.303 411.43 251.778 410.319 252.177C374.581 264.955 335.854 266.525 297.905 266.086C275.561 265.833 232.415 258.116 233.783 258.354Z" fill="white"/>
</mask>
<g mask="url(#mask0_1413_45850)">
<path opacity="0.6" d="M278.971 237.151H278.324V156.348H278.971V237.151ZM274.976 237.151H274.329V153.591H274.976V237.151ZM270.986 236.99H270.339V150.793H270.986V236.99ZM282.965 236.949H282.319V158.465H282.965V236.949ZM266.991 236.672H266.344V148.156H266.991V236.672ZM286.96 236.55H286.314V159.46H286.96V236.55ZM262.996 236.192H262.349V145.803H262.996V236.192ZM290.955 235.914H290.309V159.5H290.955V235.914ZM259.001 235.555H258.354V143.687H259.001V235.555ZM294.95 235.076H294.304V159.066H294.95V235.076ZM255.006 234.793H254.359V141.848H255.006V234.793ZM298.945 233.995H298.299V158.384H298.945V233.995ZM251.011 233.879H250.365V140.611H251.011V233.879ZM247.016 232.879H246.37V140.172H247.016V232.879ZM302.94 232.636H302.294V195.737V157.505H302.94V232.636ZM243.021 231.682H242.375V140.131H243.021V231.682ZM306.93 231H306.284V156.545H306.93V231ZM239.031 230.399H238.385V140.571H239.031V230.399ZM310.925 229.081H310.279V155.545H310.925V229.081ZM235.036 228.965H234.39V141.449H235.036V228.965ZM231.041 227.323H230.395V142.727H231.041V227.323ZM314.92 226.808H314.274V154.631H314.92V226.808ZM227.046 225.53H226.4V144.404H227.046V225.53ZM318.915 224.212H318.269V153.712H318.915V224.212ZM223.051 223.49H222.405V146.48H223.051V223.49ZM219.056 221.252H218.41V148.995H219.056V221.252ZM322.91 221.136H322.263V152.99H322.91V221.136ZM215.061 218.737H214.415V152.03H215.061V218.737ZM326.905 217.581H326.258V152.51H326.905V217.581ZM211.072 215.823H210.425V155.626H211.072V215.823ZM330.9 213.384H330.253V152.313H330.9V213.384ZM207.077 212.505H206.43V160.061H207.077V212.505ZM334.895 208.353H334.243V152.672H334.89V208.353H334.895ZM203.082 208.353H202.435V165.535H203.082V208.353ZM199.087 202.919H198.44V172.884H199.087V202.919ZM338.885 202H338.238V153.828H338.885V202ZM342.88 193.454H342.233V156.667H342.88V193.454ZM195.092 191.697H194.445V186.106H195.092V191.697ZM346.875 175.48H346.228V166.97H346.875V175.48Z" fill="#69CCE5"/>
</g>
<mask id="mask1_1413_45850" style="mask-type:luminance" maskUnits="userSpaceOnUse" x="229" y="78" width="187" height="189">
<path d="M233.783 258.354C234.081 230.348 229.819 203.717 229.935 175.712C230.051 147.707 237.622 117.657 259.299 99.9192C265.147 95.1313 271.819 91.4242 278.748 88.4091C291.955 82.6666 306.253 79.3888 320.652 79.005C335.107 78.6212 349.632 81.1616 363.097 86.4293C371.258 89.6212 379.071 93.8333 385.799 99.4495C405.794 116.146 414.001 143.338 415.592 169.338C417.182 195.338 413.198 221.379 413.703 247.424C413.723 248.404 413.733 249.444 413.228 250.288C412.622 251.303 411.43 251.778 410.319 252.177C374.581 264.955 335.854 266.525 297.905 266.086C275.561 265.833 232.415 258.116 233.783 258.354Z" fill="white"/>
</mask>
<g mask="url(#mask1_1413_45850)">
<g opacity="0.31">
<path d="M462.697 185.182C470.879 179.146 480.662 169.177 467.157 155.667C452.834 141.343 421.192 176.914 407.031 149.111C398.435 132.242 425.571 112.914 416.516 83.5151C404.132 43.2879 331.152 33.2828 301.813 34.3939C218.379 37.5505 172.288 104.53 172.915 164.49C173.702 239.995 269.662 350.429 374.808 267.348C406.536 242.278 399.026 231.399 428.409 208.652" fill="url(#paint6_linear_1413_45850)"/>
<path d="M462.697 185.182C470.879 179.146 480.662 169.177 467.157 155.667C452.834 141.343 421.192 176.914 407.031 149.111C398.435 132.242 425.571 112.914 416.516 83.5151C404.132 43.2879 331.152 33.2828 301.813 34.3939C218.379 37.5505 172.288 104.53 172.915 164.49C173.702 239.995 269.662 350.429 374.808 267.348C406.536 242.278 399.026 231.399 428.409 208.652" stroke="white" stroke-width="0.1663" stroke-miterlimit="10"/>
</g>
<path opacity="0.31" d="M443.015 134.379C437.788 139.05 425.404 146.202 418.662 137.747C411.561 128.838 420.434 115.904 425.763 111.561C431.404 106.965 440.359 104.475 447.045 111.076C454.399 118.348 447.783 130.116 443.015 134.379Z" fill="url(#paint7_linear_1413_45850)" stroke="white" stroke-width="0.1663" stroke-miterlimit="10"/>
<path d="M237.435 120.212C236.804 114.01 241.319 108.47 247.521 107.843C253.723 107.212 259.258 111.732 259.889 117.929C260.521 124.131 256.006 129.667 249.804 130.298C243.602 130.929 238.066 126.414 237.435 120.212Z" fill="#68CBE3"/>
<path d="M272.849 243.278C272.849 242.46 273.515 241.793 274.333 241.793C275.152 241.793 275.818 242.46 275.818 243.278C275.818 244.101 275.152 244.763 274.333 244.763C273.51 244.763 272.849 244.101 272.849 243.278Z" fill="white"/>
<path d="M342.799 229.485C342.799 228.667 343.465 228 344.284 228C345.107 228 345.769 228.667 345.769 229.485C345.769 230.303 345.102 230.97 344.284 230.97C343.465 230.97 342.799 230.308 342.799 229.485Z" fill="white"/>
<path d="M404.253 183.697C404.253 182.879 404.92 182.212 405.738 182.212C406.556 182.212 407.223 182.879 407.223 183.697C407.223 184.52 406.556 185.182 405.738 185.182C404.915 185.182 404.253 184.515 404.253 183.697Z" fill="white"/>
<path d="M247.177 217.955C247.177 217.131 247.843 216.47 248.662 216.47C249.48 216.47 250.146 217.136 250.146 217.955C250.146 218.773 249.48 219.439 248.662 219.439C247.843 219.439 247.177 218.778 247.177 217.955Z" fill="white"/>
<path d="M324.783 131.737C324.783 130.919 325.45 130.252 326.268 130.252C327.086 130.252 327.753 130.919 327.753 131.737C327.753 132.561 327.086 133.222 326.268 133.222C325.45 133.222 324.783 132.555 324.783 131.737Z" fill="white"/>
<path d="M379.142 137.106C379.142 136.288 379.808 135.621 380.626 135.621C381.445 135.621 382.111 136.288 382.111 137.106C382.111 137.924 381.445 138.591 380.626 138.591C379.808 138.591 379.142 137.924 379.142 137.106Z" fill="white"/>
<path d="M374.904 227.47C374.904 226.849 375.409 226.349 376.025 226.349C376.647 226.349 377.147 226.849 377.147 227.47C377.147 228.091 376.647 228.591 376.025 228.591C375.409 228.591 374.904 228.091 374.904 227.47Z" fill="white"/>
<path d="M312.439 92.4292C312.439 91.1111 313.505 90.0454 314.823 90.0454C316.141 90.0454 317.207 91.1111 317.207 92.4292C317.207 93.7474 316.141 94.8131 314.823 94.8131C313.505 94.8131 312.439 93.7474 312.439 92.4292Z" fill="white"/>
<path d="M235.632 108.909C235.632 108.288 236.132 107.788 236.753 107.788C237.374 107.788 237.874 108.288 237.874 108.909C237.874 109.53 237.374 110.03 236.753 110.03C236.137 110.03 235.632 109.53 235.632 108.909Z" fill="white"/>
<path d="M262.5 123.066C265.222 122.677 265.535 122.364 265.919 119.641C266.303 122.364 266.621 122.672 269.343 123.066C266.621 123.454 266.308 123.763 265.919 126.485C265.535 123.763 265.222 123.454 262.5 123.066Z" fill="white"/>
<path d="M284.39 112.167C287.112 111.778 287.425 111.465 287.814 108.747C288.198 111.47 288.516 111.778 291.233 112.167C288.511 112.556 288.198 112.869 287.814 115.591C287.425 112.869 287.112 112.556 284.39 112.167Z" fill="white"/>
<path d="M280.965 130.535C283.687 130.151 284 129.838 284.389 127.116C284.773 129.838 285.086 130.151 287.813 130.535C285.091 130.924 284.778 131.237 284.389 133.96C284 131.237 283.687 130.924 280.965 130.535Z" fill="white"/>
<path d="M408.521 234.066C409.803 233.884 409.95 233.737 410.132 232.455C410.313 233.732 410.46 233.884 411.743 234.066C410.46 234.248 410.313 234.394 410.132 235.677C409.945 234.394 409.798 234.248 408.521 234.066Z" fill="white"/>
<path opacity="0.15" d="M333.515 256.848L367.359 225.859C367.455 225.773 367.606 225.778 367.692 225.874C367.773 225.965 367.773 226.101 367.692 226.192L336.702 260.035C335.864 260.954 334.434 261.015 333.515 260.177C332.596 259.338 332.53 257.909 333.374 256.99C333.419 256.939 333.47 256.889 333.515 256.848Z" fill="#004C76"/>
<path opacity="0.15" d="M244.884 169.879L267.813 148.879C267.879 148.818 267.98 148.823 268.041 148.889C268.096 148.949 268.096 149.045 268.041 149.106L247.041 172.035C246.47 172.657 245.505 172.702 244.884 172.131C244.263 171.561 244.218 170.596 244.788 169.975C244.819 169.939 244.854 169.909 244.884 169.879Z" fill="#004C76"/>
<path d="M291.056 260.621C291.52 260.783 291.768 261.288 291.606 261.753C291.445 262.217 290.94 262.46 290.475 262.303C290.01 262.141 289.763 261.636 289.924 261.172C290.086 260.712 290.591 260.46 291.056 260.621Z" fill="white"/>
<path d="M290.44 251.429C291.061 251.646 291.394 252.323 291.177 252.949C290.96 253.571 290.283 253.904 289.657 253.687C289.031 253.47 288.702 252.793 288.919 252.167C289.137 251.545 289.813 251.212 290.44 251.429Z" fill="white"/>
<path d="M290.64 261.369L284.976 270.468L285.271 270.652L290.935 261.553L290.64 261.369Z" fill="white"/>
<path d="M289.874 252.571L290.223 252.545L290.94 261.449L290.591 261.48L289.874 252.571Z" fill="white"/>
<path d="M232.076 160.702L231.829 160.869L227.955 155.242L228.203 155.071L232.076 160.702Z" fill="white"/>
<path d="M232.102 160.769L231.808 160.815L237.495 197.523L237.789 197.477L232.102 160.769Z" fill="white"/>
<path d="M246.293 194.232L237.713 197.631L237.602 197.354L246.182 193.955L246.293 194.232Z" fill="white"/>
<path d="M246.384 194.096L246.086 194.086L246.364 186.687L246.662 186.697L246.384 194.096Z" fill="white"/>
<path d="M246.586 186.823L236.864 192.071L236.723 191.808L246.445 186.561L246.586 186.823Z" fill="white"/>
<path d="M246.147 187.429C245.738 187.227 245.576 186.732 245.778 186.323C245.98 185.919 246.475 185.752 246.884 185.954C247.293 186.156 247.455 186.651 247.253 187.061C247.046 187.47 246.551 187.631 246.147 187.429Z" fill="white"/>
<path d="M237.288 198.232C236.884 198.03 236.717 197.535 236.924 197.126C237.126 196.722 237.621 196.556 238.03 196.758C238.439 196.96 238.601 197.455 238.399 197.864C238.192 198.273 237.697 198.434 237.288 198.232Z" fill="white"/>
<path d="M245.965 194.626C245.667 194.48 245.55 194.121 245.697 193.823C245.843 193.525 246.207 193.409 246.5 193.556C246.798 193.702 246.914 194.066 246.768 194.359C246.621 194.657 246.263 194.778 245.965 194.626Z" fill="white"/>
<path d="M236.525 192.475C236.232 192.328 236.111 191.965 236.258 191.672C236.404 191.374 236.768 191.258 237.061 191.404C237.359 191.551 237.475 191.914 237.328 192.207C237.182 192.505 236.823 192.621 236.525 192.475Z" fill="white"/>
<path d="M231.485 161.222C231.187 161.076 231.071 160.712 231.217 160.419C231.364 160.121 231.728 160.005 232.02 160.152C232.318 160.298 232.435 160.662 232.288 160.955C232.142 161.247 231.778 161.369 231.485 161.222Z" fill="white"/>
<path d="M333.288 99.1515C332.606 99.106 332.091 98.5202 332.137 97.8384C332.182 97.1616 332.768 96.6414 333.45 96.6868C334.132 96.7323 334.642 97.3182 334.601 97.9949C334.556 98.6767 333.97 99.197 333.288 99.1515Z" fill="white"/>
<path d="M332.556 110.268C332.051 110.237 331.667 109.798 331.702 109.288C331.738 108.783 332.172 108.399 332.677 108.429C333.182 108.465 333.566 108.899 333.536 109.404C333.495 109.919 333.061 110.303 332.556 110.268Z" fill="white"/>
<path d="M382.313 87.101C381.632 87.0555 381.121 86.4697 381.167 85.7879C381.212 85.106 381.798 84.5909 382.48 84.6363C383.162 84.6818 383.677 85.2676 383.632 85.9444C383.581 86.6262 382.995 87.1464 382.313 87.101Z" fill="white"/>
<path d="M325.778 115.859C325.101 115.813 324.586 115.227 324.632 114.545C324.677 113.864 325.263 113.348 325.945 113.394C326.627 113.439 327.142 114.025 327.096 114.702C327.046 115.389 326.46 115.904 325.778 115.859Z" fill="white"/>
<path d="M271.995 71.8283C271.965 71.8788 271.914 71.904 271.879 71.9444L325.753 114.768L325.975 114.485L272.091 71.6515C272.061 71.7121 272.03 71.7727 271.995 71.8283Z" fill="white"/>
<path d="M332.486 109.219L325.732 114.495L325.953 114.777L332.707 109.501L332.486 109.219Z" fill="white"/>
<path d="M333.551 97.9293L332.793 109.364L332.435 109.343L333.192 97.9091L333.551 97.9293Z" fill="white"/>
<path d="M333.546 97.8687L333.198 97.9697L324.006 66.9596L324.349 66.8535L333.546 97.8687Z" fill="white"/>
<path d="M348.894 45.813L348.62 46.0439L382.24 85.9914L382.514 85.7605L348.894 45.813Z" fill="white"/>
<path d="M380.369 137.328L380.011 137.318L382.218 85.8636L382.576 85.8788L380.369 137.328Z" fill="white"/>
<path d="M276.233 171.611C284.849 167.49 295.207 171.146 299.329 179.763C303.45 188.379 299.793 198.737 291.177 202.859C288.773 204.01 286.233 204.556 283.727 204.556C277.263 204.556 271.046 200.924 268.076 194.712C263.96 186.096 267.616 175.732 276.233 171.611Z" fill="#68CBE3"/>
<path opacity="0.15" d="M252.566 203.318C253.167 204.571 254.803 205.116 257.192 205.116C261.096 205.116 266.995 203.636 273.561 201.268C278.142 199.636 283.046 197.566 287.834 195.278C292.44 193.076 296.96 190.662 300.995 188.212C310.834 182.273 317.829 176.207 316.228 172.869C314.324 168.894 302.783 172.242 295.702 174.748C296.167 175.177 296.601 175.647 297.015 176.147C308.839 172.061 314.036 172.369 314.642 173.626C315.339 175.091 311.101 179.934 300.995 186.172C297.197 188.515 292.576 191.061 287.076 193.697C281.349 196.429 276.303 198.49 271.985 199.995C261.096 203.768 254.844 203.995 254.157 202.561C253.566 201.338 256.48 197.187 266.753 190.702C266.611 190.066 266.526 189.434 266.48 188.793C260.263 192.652 250.697 199.414 252.566 203.318Z" fill="#004C76"/>
<path opacity="0.15" d="M295.687 129.429L329.531 98.4394C329.626 98.3535 329.778 98.3585 329.864 98.4545C329.945 98.5454 329.945 98.6818 329.864 98.7727L298.874 132.616C298.036 133.535 296.606 133.596 295.687 132.758C294.768 131.919 294.702 130.49 295.546 129.571C295.591 129.52 295.642 129.475 295.687 129.429Z" fill="#004C76"/>
</g>
<mask id="mask2_1413_45850" style="mask-type:luminance" maskUnits="userSpaceOnUse" x="229" y="78" width="187" height="189">
<path d="M233.783 258.354C234.081 230.348 229.819 203.717 229.935 175.712C230.051 147.707 237.622 117.657 259.299 99.9192C265.147 95.1313 271.819 91.4242 278.748 88.4091C291.955 82.6666 306.253 79.3888 320.652 79.005C335.107 78.6212 349.632 81.1616 363.097 86.4293C371.258 89.6212 379.071 93.8333 385.799 99.4495C405.794 116.146 414.001 143.338 415.592 169.338C417.182 195.338 413.198 221.379 413.703 247.424C413.723 248.404 413.733 249.444 413.228 250.288C412.622 251.303 411.43 251.778 410.319 252.177C374.581 264.955 335.854 266.525 297.905 266.086C275.561 265.833 232.415 258.116 233.783 258.354Z" fill="white"/>
</mask>
<g mask="url(#mask2_1413_45850)">
<path d="M330.904 229.495C327.45 229.207 323.818 230.853 322.046 233.833C320.273 236.808 320.662 241.01 323.182 243.389C324.232 244.379 325.561 245.025 326.924 245.505C328.49 246.056 330.232 246.399 331.788 245.833C332.839 245.455 333.707 244.692 334.434 243.843C335.96 242.056 336.94 239.773 336.985 237.424C337.03 235.076 336.091 232.687 334.328 231.136C333.404 230.323 332.051 229.662 330.904 229.495Z" fill="#68CBE3"/>
</g>
<mask id="mask3_1413_45850" style="mask-type:luminance" maskUnits="userSpaceOnUse" x="229" y="78" width="187" height="189">
<path d="M233.783 258.354C234.081 230.348 229.819 203.717 229.935 175.712C230.051 147.707 237.622 117.657 259.299 99.9192C265.147 95.1313 271.819 91.4242 278.748 88.4091C291.955 82.6666 306.253 79.3888 320.652 79.005C335.107 78.6212 349.632 81.1616 363.097 86.4293C371.258 89.6212 379.071 93.8333 385.799 99.4495C405.794 116.146 414.001 143.338 415.592 169.338C417.182 195.338 413.198 221.379 413.703 247.424C413.723 248.404 413.733 249.444 413.228 250.288C412.622 251.303 411.43 251.778 410.319 252.177C374.581 264.955 335.854 266.525 297.905 266.086C275.561 265.833 232.415 258.116 233.783 258.354Z" fill="white"/>
</mask>
<g mask="url(#mask3_1413_45850)">
<path d="M367.217 120.237C330.773 119.752 336 172.49 371.399 167.157C397.374 163.247 397.768 121.848 367.217 120.237Z" fill="#68CBE3"/>
<path opacity="0.15" d="M342.556 141.909C340.152 141.263 307.071 130.308 318.955 124.899C334.056 118.025 382.738 137.697 397.874 143.687C401.51 145.126 421.743 152.919 419.758 158.823C417.313 166.096 388.798 158.157 388.49 156.444C388.43 156.106 388.541 155.015 388.95 154.944C389.414 154.864 389.97 155.086 390.414 155.187C396.036 156.424 403.864 158.843 409.546 156.975C410.152 156.778 410.788 156.414 410.425 155.702C409.526 153.944 406.859 152.717 405.238 151.823C403.642 150.944 402 150.146 400.329 149.424C383.207 142.04 365.258 135.071 347.031 131.116C344.763 130.626 330.132 127.646 329.571 131.727C328.854 136.939 339.435 136.353 342.909 137.374" fill="#004C76"/>
</g>
<g opacity="0.71">
<path d="M406.673 202.096C409.44 197.389 409.592 191.651 409.673 186.192C409.789 178.217 409.9 170.227 409.183 162.288C407.996 149.151 404.511 136.222 398.935 124.268C396.173 118.343 392.844 112.576 388.153 108.025C384.259 104.247 379.557 101.429 374.9 98.6413C371.44 96.5706 367.976 94.4999 364.516 92.4292C361.612 90.6918 358.688 88.9443 355.536 87.7019C348.658 84.9948 341.082 84.8282 333.688 84.6969C326.021 84.5605 318.314 84.4292 310.728 85.5454C304.678 86.4342 298.759 88.1161 293.006 90.1969C285.708 92.8383 278.173 96.5605 274.44 103.369C284.663 104.722 294.86 106.268 305.021 108.01C310.496 108.949 315.996 109.954 321.193 111.904C329.259 114.934 336.304 120.126 343.173 125.328C356.597 135.495 369.88 146.005 381.168 158.5C392.456 170.995 401.743 185.641 405.991 201.939" fill="white"/>
</g>
<path d="M387.693 184.899L388.698 183.273C388.915 182.919 389.456 183.091 389.441 183.505C389.42 183.965 389.34 184.449 389.491 184.869C389.688 185.424 390.208 185.722 390.794 185.894C391.097 185.985 391.163 186.379 390.92 186.581C390.082 187.288 389.552 188.374 389.521 189.475C389.511 189.803 389.127 189.975 388.87 189.768C388.43 189.414 388.011 189.035 387.663 188.591C387.557 188.455 387.365 188.409 387.198 188.475C386.653 188.697 386.122 188.949 385.597 189.217C385.274 189.384 384.905 189.076 385.031 188.737C385.228 188.197 385.355 187.641 385.355 187.071C385.355 186.414 385.163 185.737 384.784 185.207C384.582 184.934 384.804 184.54 385.143 184.576C385.577 184.621 386.006 184.737 386.4 184.924" fill="#F0B11D"/>
<path d="M297.819 146.848L298.824 145.222C299.041 144.869 299.582 145.04 299.567 145.455C299.546 145.914 299.466 146.399 299.617 146.818C299.814 147.374 300.334 147.672 300.92 147.843C301.223 147.934 301.289 148.328 301.046 148.53C300.208 149.237 299.678 150.323 299.647 151.424C299.637 151.752 299.253 151.924 298.996 151.717C298.556 151.364 298.137 150.985 297.789 150.54C297.683 150.404 297.491 150.359 297.324 150.424C296.779 150.646 296.248 150.899 295.723 151.167C295.4 151.333 295.031 151.025 295.157 150.687C295.354 150.146 295.481 149.591 295.481 149.02C295.481 148.364 295.289 147.687 294.91 147.157C294.708 146.884 294.93 146.49 295.269 146.525C295.703 146.571 296.132 146.687 296.526 146.874" fill="#F0B11D"/>
<path d="M359.501 206.177C359.728 205.308 360.173 204.975 360.607 204.384C360.794 204.131 361.188 204.162 361.319 204.444C361.506 204.828 361.643 205.237 361.723 205.662C361.764 205.869 361.951 206.01 362.158 205.995L363.784 205.889C364.148 205.864 364.365 206.288 364.137 206.576C363.915 206.859 363.658 207.121 363.38 207.354C363.218 207.485 363.042 207.621 362.976 207.818C362.92 207.985 362.956 208.172 362.996 208.343C363.082 208.692 363.188 209.04 363.314 209.374C363.435 209.692 363.132 210.025 362.804 209.924C362.526 209.843 362.259 209.712 362.021 209.545C361.799 209.384 361.562 209.177 361.289 209.212C361.112 209.232 360.966 209.348 360.829 209.46L359.577 210.49C359.334 210.692 358.951 210.561 358.9 210.247C358.855 209.99 358.779 209.737 358.683 209.495C358.365 208.697 357.794 208.005 357.087 207.515C356.799 207.318 356.865 206.874 357.203 206.773C357.996 206.53 358.839 206.182 359.501 206.177Z" fill="#F0B11D"/>
<path d="M210.087 122.359L211.092 120.732C211.309 120.379 211.849 120.55 211.834 120.965C211.814 121.424 211.733 121.909 211.885 122.328C212.082 122.884 212.602 123.182 213.188 123.354C213.491 123.444 213.556 123.838 213.314 124.04C212.476 124.747 211.945 125.833 211.915 126.934C211.905 127.263 211.521 127.434 211.263 127.227C210.824 126.874 210.405 126.495 210.056 126.05C209.95 125.914 209.758 125.869 209.592 125.934C209.046 126.157 208.516 126.409 207.991 126.677C207.667 126.843 207.299 126.535 207.425 126.197C207.622 125.657 207.748 125.101 207.748 124.53C207.748 123.874 207.556 123.197 207.178 122.667C206.976 122.394 207.198 122 207.536 122.035C207.97 122.081 208.4 122.197 208.794 122.384" fill="#F0B11D"/>
<path d="M335.349 53.7726L336.354 52.1464C336.572 51.7928 337.112 51.9646 337.097 52.3787C337.077 52.8383 336.996 53.3231 337.147 53.7423C337.344 54.2979 337.864 54.5959 338.45 54.7676C338.753 54.8585 338.819 55.2524 338.577 55.4545C337.738 56.1615 337.208 57.2474 337.178 58.3484C337.168 58.6767 336.784 58.8484 336.526 58.6413C336.087 58.2878 335.668 57.909 335.319 57.4646C335.213 57.3282 335.021 57.2827 334.854 57.3484C334.309 57.5706 333.779 57.8231 333.253 58.0908C332.93 58.2575 332.561 57.9494 332.688 57.611C332.885 57.0706 333.011 56.5151 333.011 55.9444C333.011 55.2878 332.819 54.611 332.44 54.0807C332.238 53.808 332.46 53.4141 332.799 53.4494C333.233 53.4949 333.662 53.611 334.056 53.7979" fill="#F0B11D"/>
<path d="M314.491 302.596L315.496 300.97C315.713 300.616 316.254 300.788 316.238 301.202C316.218 301.662 316.137 302.146 316.289 302.566C316.486 303.121 317.006 303.419 317.592 303.591C317.895 303.682 317.961 304.076 317.718 304.278C316.88 304.985 316.35 306.071 316.319 307.172C316.309 307.5 315.925 307.672 315.668 307.465C315.228 307.111 314.809 306.732 314.461 306.288C314.355 306.151 314.163 306.106 313.996 306.172C313.451 306.394 312.92 306.646 312.395 306.914C312.072 307.081 311.703 306.773 311.829 306.434C312.026 305.894 312.153 305.338 312.153 304.768C312.153 304.111 311.961 303.434 311.582 302.904C311.38 302.631 311.602 302.237 311.94 302.273C312.375 302.318 312.804 302.434 313.198 302.621" fill="#F0B11D"/>
<path d="M435.647 278.394C428.637 267 418.496 257.555 406.637 251.364C405.041 250.53 403.349 249.737 401.551 249.722C398.668 249.697 396.051 251.773 394.794 254.369C393.536 256.965 393.445 259.985 393.819 262.843C394.814 270.394 398.895 277.288 404.162 282.788C409.43 288.288 415.859 292.53 422.38 296.46C425.203 298.162 428.147 299.843 431.405 300.328C434.668 300.808 438.349 299.823 440.208 297.101C442.425 293.859 441.395 289.429 439.804 285.838C437.152 279.853 433.137 274.475 428.152 270.227" fill="#68CBE3"/>
<path d="M426.4 303.864C430.89 302.227 434.556 298.949 438.102 295.742C443.516 290.843 448.935 285.944 454.349 281.045C454.915 280.535 455.642 279.99 456.359 280.237C456.935 280.439 457.218 281.066 457.485 281.611C458.647 283.955 460.693 285.848 463.117 286.833C454.541 296.975 444.763 306.096 434.051 313.944C431.324 311.04 428.597 308.136 425.864 305.227" fill="#004D76"/>
<path d="M207.102 295.939C211.662 282.914 220.496 271.424 231.915 263.677C236.95 260.257 242.778 257.485 248.859 257.773C250.804 257.863 252.874 258.353 254.157 259.813C255.804 261.682 255.657 264.545 254.884 266.914C253.228 271.985 249.319 275.959 245.364 279.535C238.92 285.363 232.016 290.682 224.728 295.414C221.354 297.606 217.783 299.722 213.804 300.338C212.364 300.56 210.814 300.565 209.546 299.858C207.278 298.596 206.698 295.429 207.556 292.985C208.415 290.535 210.349 288.646 212.218 286.848" fill="#68CBE3"/>
<path d="M190.672 273.833C198.465 282.475 207.384 290.091 217.142 296.429C218.107 297.055 219.132 297.732 219.571 298.798C220.238 300.424 219.283 302.222 218.359 303.712C216.894 306.081 215.43 308.444 213.96 310.813C202.258 304.02 191.793 295.106 183.228 284.636C182.889 284.222 182.541 283.783 182.45 283.257C182.324 282.555 182.677 281.869 183.026 281.247C184.92 277.894 187.167 274.737 189.718 271.848" fill="#004D76"/>
</g>
<defs>
<linearGradient id="paint0_linear_1413_45850" x1="300.559" y1="339.315" x2="459.472" y2="118.583" gradientUnits="userSpaceOnUse">
<stop stop-color="white" stop-opacity="0"/>
<stop offset="1" stop-color="#51C7EA"/>
</linearGradient>
<linearGradient id="paint1_linear_1413_45850" x1="178.105" y1="349.662" x2="203.718" y2="279.719" gradientUnits="userSpaceOnUse">
<stop stop-color="white" stop-opacity="0"/>
<stop offset="1" stop-color="#004C75"/>
</linearGradient>
<linearGradient id="paint2_linear_1413_45850" x1="337.013" y1="234.209" x2="172.12" y2="171.571" gradientUnits="userSpaceOnUse">
<stop stop-color="white" stop-opacity="0"/>
<stop offset="1" stop-color="#51C7EA"/>
</linearGradient>
<linearGradient id="paint3_linear_1413_45850" x1="470.141" y1="353.812" x2="445.887" y2="287.582" gradientUnits="userSpaceOnUse">
<stop stop-color="white" stop-opacity="0"/>
<stop offset="1" stop-color="#004C75"/>
</linearGradient>
<linearGradient id="paint4_linear_1413_45850" x1="221.444" y1="218.865" x2="410.215" y2="298.479" gradientUnits="userSpaceOnUse">
<stop stop-color="white" stop-opacity="0"/>
<stop offset="1" stop-color="#51C7EA"/>
</linearGradient>
<linearGradient id="paint5_linear_1413_45850" x1="440.928" y1="164.962" x2="265.432" y2="59.267" gradientUnits="userSpaceOnUse">
<stop stop-color="white" stop-opacity="0"/>
<stop offset="1" stop-color="#51C7EA"/>
</linearGradient>
<linearGradient id="paint6_linear_1413_45850" x1="179.331" y1="116.272" x2="360.451" y2="184.192" gradientUnits="userSpaceOnUse">
<stop stop-color="white"/>
<stop offset="1" stop-color="#51C7EA"/>
</linearGradient>
<linearGradient id="paint7_linear_1413_45850" x1="155.047" y1="20.3644" x2="376.217" y2="103.303" gradientUnits="userSpaceOnUse">
<stop stop-color="white"/>
<stop offset="1" stop-color="#51C7EA"/>
</linearGradient>
<clipPath id="clip0_1413_45850">
<rect width="618.182" height="400" fill="white" transform="translate(0.90918)"/>
</clipPath>
</defs>
</svg>
