<svg width="640" height="415" fill="none" xmlns="http://www.w3.org/2000/svg"><g clip-path="url(#prefix__clip0_1413_14900)"><path opacity=".31" d="M454.42 139.195c-5.412 4.836-18.233 12.24-25.213 3.487-7.352-9.223 1.835-22.614 7.352-27.111 5.84-4.758 15.111-7.336 22.034-.502 7.613 7.53.763 19.713-4.173 24.126z" fill="url(#prefix__paint0_linear_1413_14900)" stroke="#fff" stroke-width=".166" stroke-miterlimit="10"/><path d="M451.199 126.395c0-.643.518-1.161 1.161-1.161s1.161.518 1.161 1.161-.518 1.16-1.161 1.16a1.158 1.158 0 01-1.161-1.16z" fill="#F7C132"/><path d="M438.823 123.242c3.028-.633 3.378-1.14 3.807-5.574.429 4.434.779 4.941 3.806 5.574-3.027.633-3.377 1.14-3.806 5.574-.429-4.434-.779-4.941-3.807-5.574zM445.458 134.97c1.328-.189 1.48-.34 1.668-1.668.188 1.323.34 1.479 1.663 1.668-1.328.188-1.48.34-1.663 1.668-.188-1.323-.345-1.475-1.668-1.668z" fill="#fff"/><path opacity=".31" d="M383.806 276.858c32.847-25.956 25.072-37.219 55.493-60.769 8.382-6.494 25.386-.272 21.381 9.678-3.174 7.891-4.685 8.785-18.264 12.769l3.257 38.039c38.285 7.89 56.617-11.461 56.617-35.9 0-37.898-25.056-35.096-27.493-48.884-1.835-10.369 18.599-16.57 4.617-30.557-14.829-14.829-47.587 21.997-62.248-6.787-8.899-17.464 19.195-37.474 9.819-67.911-12.82-41.647-88.376-52.005-118.75-50.855-86.379 3.268-134.097 72.612-133.448 134.688.815 78.164 100.162 192.496 209.019 106.489z" fill="url(#prefix__paint1_linear_1413_14900)" stroke="#fff" stroke-width=".166" stroke-miterlimit="10"/><path d="M196.794 154.16c-.653-6.421 4.021-12.157 10.442-12.806 6.421-.653 12.152 4.027 12.805 10.442.654 6.421-4.02 12.152-10.441 12.805-6.421.649-12.157-4.026-12.806-10.441zM221.642 261.543c.983-1.438-1.574-4.356-2.62-2.714-.397.627-.078 2.227.413 2.735.46.475 1.773.617 2.207-.021z" fill="#68CBE3"/><path d="M278.248 251.937c0-.847.69-1.537 1.537-1.537s1.538.69 1.538 1.537c0 .852-.691 1.537-1.538 1.537a1.532 1.532 0 01-1.537-1.537zM350.666 237.663a1.537 1.537 0 113.076-.002 1.537 1.537 0 01-3.076.002zM414.29 190.254c0-.848.69-1.538 1.537-1.538s1.538.69 1.538 1.538a1.537 1.537 0 01-3.075 0zM403.801 277.563a1.536 1.536 0 113.076-.002 1.536 1.536 0 01-3.076.002zM251.67 225.72a1.536 1.536 0 113.074 0 1.536 1.536 0 11-3.074 0zM332.016 136.46c0-.847.69-1.537 1.537-1.537s1.537.69 1.537 1.537a1.536 1.536 0 11-3.074 0zM325.626 83.76c0-.848.69-1.538 1.537-1.538s1.537.69 1.537 1.537a1.54 1.54 0 01-1.537 1.538 1.54 1.54 0 01-1.537-1.538zM388.292 142.018c0-.847.69-1.537 1.537-1.537s1.538.69 1.538 1.537a1.54 1.54 0 01-1.538 1.537 1.54 1.54 0 01-1.537-1.537z" fill="#fff"/><path d="M311.236 272.381a1.162 1.162 0 112.323.003 1.162 1.162 0 01-2.323-.003zM429.495 217.699a1.161 1.161 0 112.322.002 1.161 1.161 0 01-2.322-.002zM389.83 298.823a1.161 1.161 0 112.322.002 1.161 1.161 0 01-2.322-.002z" fill="#F7C132"/><path d="M383.911 235.571a1.161 1.161 0 112.322.002 1.161 1.161 0 01-2.322-.002zM263.539 68.837c0-.643.518-1.161 1.161-1.161s1.161.518 1.161 1.16c0 .644-.518 1.162-1.161 1.162a1.158 1.158 0 01-1.161-1.161zM227.55 103.08c0-.643.523-1.161 1.161-1.161.643 0 1.16.518 1.16 1.161s-.517 1.161-1.16 1.161a1.162 1.162 0 01-1.161-1.161zM239.717 112.826c0-.643.517-1.161 1.161-1.161.643 0 1.16.518 1.16 1.161s-.517 1.161-1.16 1.161a1.162 1.162 0 01-1.161-1.161zM276.078 74.557c0-.643.518-1.16 1.161-1.16s1.161.517 1.161 1.16a1.162 1.162 0 01-2.322 0zM197.029 192.868c3.028-.632 3.378-1.14 3.807-5.574.429 4.434.779 4.947 3.806 5.574-3.027.628-3.377 1.14-3.806 5.574-.429-4.429-.779-4.941-3.807-5.574zM189.417 202.667c3.027-.633 3.378-1.14 3.807-5.574.428 4.434.779 4.941 3.806 5.574-3.027.632-3.378 1.14-3.806 5.573-.429-4.433-.78-4.941-3.807-5.573zM438.975 181.678c3.027-.627 3.377-1.14 3.806-5.574.429 4.434.779 4.947 3.807 5.574-3.028.633-3.378 1.14-3.807 5.574-.429-4.434-.779-4.941-3.806-5.574zM377.458 295.671c3.027-.633 3.378-1.14 3.807-5.574.428 4.434.779 4.941 3.806 5.574-3.027.627-3.378 1.139-3.806 5.579-.434-4.44-.78-4.952-3.807-5.579zM212.058 227.388c1.328-.188 1.479-.34 1.668-1.668.188 1.323.339 1.475 1.668 1.668-1.329.188-1.48.34-1.668 1.668-.189-1.328-.34-1.48-1.668-1.668zM239.215 83.76c1.328-.189 1.48-.34 1.668-1.668.188 1.328.34 1.474 1.668 1.668-1.323.188-1.48.34-1.668 1.667-.194-1.328-.345-1.48-1.668-1.668zM249.877 78.452c1.328-.188 1.48-.34 1.668-1.668.188 1.323.34 1.475 1.668 1.668-1.323.189-1.48.34-1.668 1.668-.188-1.328-.345-1.48-1.668-1.668zM248.209 87.399c1.328-.189 1.48-.34 1.668-1.668.188 1.328.34 1.48 1.668 1.668-1.328.188-1.48.34-1.668 1.668-.188-1.328-.345-1.48-1.668-1.668zM303.733 264.089c1.329-.188 1.48-.34 1.668-1.668.189 1.328.34 1.48 1.668 1.668-1.328.188-1.479.34-1.668 1.668-.193-1.328-.345-1.48-1.668-1.668zM267.346 281.699c1.323-.188 1.479-.34 1.668-1.668.188 1.328.34 1.48 1.668 1.668-1.323.188-1.48.34-1.668 1.668-.194-1.328-.345-1.48-1.668-1.668zM241.855 295.67c1.329-.188 1.48-.339 1.668-1.668.189 1.329.34 1.48 1.668 1.668-1.328.189-1.479.34-1.668 1.668-.188-1.328-.339-1.479-1.668-1.668zM418.708 242.4c1.328-.188 1.48-.34 1.668-1.668.188 1.323.34 1.48 1.668 1.668-1.328.188-1.48.34-1.668 1.668-.188-1.328-.34-1.48-1.668-1.668zM411.712 99.859c1.328-.188 1.48-.34 1.668-1.668.188 1.323.34 1.48 1.663 1.668-1.328.188-1.48.34-1.663 1.668-.188-1.328-.34-1.48-1.668-1.668zM384.089 307.398c1.328-.188 1.48-.339 1.668-1.668.188 1.329.34 1.48 1.668 1.668-1.328.189-1.48.34-1.668 1.663-.188-1.323-.34-1.474-1.668-1.663zM377.929 186.688c1.328-.189 1.479-.34 1.668-1.668.188 1.328.34 1.479 1.668 1.668-1.328.188-1.48.339-1.668 1.667-.189-1.328-.34-1.479-1.668-1.667z" fill="#fff"/><path opacity=".31" d="M472.669 151.812c5.349-7.357-9.045-14.991-13.364-7.352-4.199 7.425 8.721 13.741 13.364 7.352z" fill="url(#prefix__paint2_linear_1413_14900)" stroke="#fff" stroke-width=".166" stroke-miterlimit="10"/><path opacity=".31" d="M488.575 149.736c2.379-4.089-6.871-6.782-8.612-2.63-1.694 4.037 6.552 6.18 8.612 2.63z" fill="url(#prefix__paint3_linear_1413_14900)" stroke="#fff" stroke-width=".166" stroke-miterlimit="10"/><path opacity=".15" d="M349.673 267.524l35.038-32.084a.247.247 0 01.345.016.248.248 0 010 .33l-32.084 35.037a2.337 2.337 0 01-3.299.147 2.332 2.332 0 010-3.446zM337.458 144.188l35.038-32.083a.246.246 0 01.345.015.248.248 0 010 .33l-32.084 35.038a2.338 2.338 0 01-3.299.146 2.332 2.332 0 01-.146-3.299.967.967 0 01.146-.147zM240.679 160.34l23.739-21.741a.165.165 0 01.235.01.17.17 0 010 .225l-21.741 23.739a1.58 1.58 0 11-2.332-2.134l.099-.099z" fill="#004C76"/><path d="M291.335 279.017c.643.225.988.925.764 1.574a1.234 1.234 0 11-2.332-.811 1.234 1.234 0 011.568-.763zM297.097 269.898c.482.167.738.69.57 1.171a.92.92 0 11-.57-1.171zM283.879 275.874a1.237 1.237 0 11-.81 2.34 1.237 1.237 0 01.81-2.34zM312.915 286.818a.906.906 0 01.56 1.145.902.902 0 11-.56-1.145zM296.46 260.376a1.237 1.237 0 11-1.574.764 1.242 1.242 0 011.574-.764zM286.473 289.328a1.237 1.237 0 01-.811 2.337 1.24 1.24 0 01-.768-1.574c.23-.643.931-.983 1.579-.763zM277.265 297.009a.707.707 0 11-.46 1.342.707.707 0 01.46-1.342z" fill="#fff"/><path d="M290.975 280.019l-.118.341 21.691 7.475.118-.341-21.691-7.475z" fill="#fff"/><path d="M290.774 280.104l-4.866 10.314.326.154 4.867-10.314-.327-.154z" fill="#fff"/><path d="M276.92 297.543l9.035-7.185.225.283-9.035 7.179-.225-.277zM283.403 277.208l.142-.335 7.461 3.148-.141.334-7.462-3.147z" fill="#fff"/><path d="M296.667 270.668l-5.864 9.42.306.191 5.864-9.42-.306-.191z" fill="#fff"/><path d="M295.874 261.558l.361-.026.742 9.219-.355.031-.748-9.224zM209.033 169.379l-21.32.748.011.309 21.32-.749-.011-.308z" fill="#fff"/><path d="M216.23 174.353l-.178.251-7.106-4.946.183-.257 7.101 4.952z" fill="#fff"/><path d="M231.81 160.584l-15.761 13.774.203.233 15.761-13.775-.203-.232z" fill="#fff"/><path d="M236.036 166.447l-.251.178-4.015-5.83.256-.178 4.01 5.83z" fill="#fff"/><path d="M236.063 166.517l-.305.047 5.888 38.004.305-.048-5.888-38.003z" fill="#fff"/><path d="M250.755 201.161l-8.878 3.524-.115-.288 8.878-3.524.115.288z" fill="#fff"/><path d="M250.855 201.025l-.314-.016.288-7.66.313.011-.287 7.665z" fill="#fff"/><path d="M251.058 193.49l-10.06 5.433-.146-.272 10.06-5.433.146.272z" fill="#fff"/><path d="M250.603 194.118a.853.853 0 11.764-1.527.853.853 0 11-.764 1.527zM241.433 205.302a.85.85 0 01-.377-1.145.856.856 0 011.145-.382.852.852 0 01.382 1.145.86.86 0 01-1.15.382zM231.518 161.469a.852.852 0 01-.381-1.145.851.851 0 111.521.764.852.852 0 01-1.14.381zM215.754 175.242a.857.857 0 01-.382-1.145.852.852 0 011.145-.382.856.856 0 01.382 1.145.852.852 0 01-1.145.382zM250.421 201.568a.62.62 0 11.553-1.107.62.62 0 01-.553 1.107zM240.642 199.341a.62.62 0 11.832-.277.618.618 0 01-.832.277zM235.425 166.985a.62.62 0 11.831-.277.617.617 0 01-.831.277zM208.758 170.081a.62.62 0 11.831-.277.613.613 0 01-.831.277zM340.826 102.724a1.279 1.279 0 111.359-1.197 1.28 1.28 0 01-1.359 1.197zM331.304 70.614a1.277 1.277 0 01-1.192-1.36 1.277 1.277 0 011.36-1.191 1.275 1.275 0 011.192 1.354 1.275 1.275 0 01-1.36 1.197zM340.063 114.233a.948.948 0 01-.884-1.015.956.956 0 011.009-.889.954.954 0 01-.125 1.904zM391.577 90.248a1.273 1.273 0 01-1.187-1.36 1.276 1.276 0 011.359-1.191 1.275 1.275 0 011.192 1.354 1.282 1.282 0 01-1.364 1.197zM333.045 120.021a1.277 1.277 0 01-1.187-1.36 1.277 1.277 0 011.36-1.192 1.275 1.275 0 011.192 1.354 1.285 1.285 0 01-1.365 1.198z" fill="#fff"/><path d="M277.364 74.436c-.031.053-.083.079-.12.12l55.775 44.335.23-.292-55.785-44.346c-.032.063-.058.126-.1.183z" fill="#fff"/><path d="M339.998 113.148l-6.992 5.463.228.292 6.992-5.462-.228-.293z" fill="#fff"/><path d="M341.092 101.459l-.784 11.838-.371-.021.784-11.838.371.021z" fill="#fff"/><path d="M341.087 101.396l-.355.105-9.522-32.105.361-.11 9.516 32.11zM356.977 47.504l-.284.24L391.499 89.1l.284-.24-34.806-41.357z" fill="#fff"/><path d="M389.563 142.254l-.372-.016 2.285-53.27.372.015-2.285 53.271z" fill="#fff"/><path d="M299.037 172.701c13.49-6.453 29.71-.727 36.162 12.758 6.452 13.49.727 29.71-12.758 36.162a26.902 26.902 0 01-11.66 2.651c-10.123 0-19.854-5.689-24.502-15.414-6.453-13.48-.727-29.705 12.758-36.157z" fill="#68CBE3"/><path opacity=".15" d="M261.986 222.343c.936 1.96 3.503 2.813 7.242 2.813 6.107 0 15.352-2.317 25.626-6.029 7.174-2.552 14.855-5.794 22.343-9.381 7.21-3.445 14.29-7.226 20.606-11.058 15.404-9.297 26.358-18.798 23.848-24.027-2.98-6.222-21.045-.977-32.135 2.939a22.159 22.159 0 012.054 2.191c18.51-6.4 26.646-5.919 27.598-3.943 1.087 2.291-5.543 9.878-21.365 19.64-5.945 3.67-13.187 7.655-21.793 11.78-8.962 4.277-16.868 7.503-23.624 9.861-17.046 5.904-26.839 6.265-27.916 4.016-.926-1.919 3.639-8.413 19.723-18.562a20.048 20.048 0 01-.429-2.991c-9.726 6.05-24.706 16.638-21.778 22.751z" fill="#004C76"/><path opacity=".31" d="M300.052 344.355c93.191 0 168.737-2.127 168.737-4.752s-75.546-4.753-168.737-4.753c-93.191 0-168.738 2.128-168.738 4.753s75.547 4.752 168.738 4.752z" fill="url(#prefix__paint4_linear_1413_14900)"/><path opacity=".31" d="M311.241 343.085c28.719 0 52-1.559 52-3.483 0-1.923-23.281-3.482-52-3.482s-52 1.559-52 3.482c0 1.924 23.281 3.483 52 3.483z" fill="url(#prefix__paint5_linear_1413_14900)"/><path d="M189.074 279.956l-.566-8.158-35.439 2.459.566 8.158 35.439-2.459z" fill="#67CBE4"/><path d="M303.759 258.735l-2.468 81.202h26.28l-2.442-80.193-21.37-1.009z" fill="#4585C5"/><path d="M326.902 317.757l-1.773-58.013-21.369-1.009-1.768 59.843c8.377 1.197 16.497 1.25 24.91-.821z" fill="#4585C5"/><path d="M262.393 280.222l-1.353-19.509-84.753 5.879 1.353 19.509 84.753-5.879z" fill="#67CBE4"/><path d="M384.651 282.438l-2.793-40.259-174.899 12.132 2.793 40.259 174.899-12.132z" fill="#67CBE4"/><path opacity=".15" d="M381.856 242.144l-.455.031 2.405 34.683-50.374 3.513c-8.465 9.051-22.243 11.708-33.72 5.627a28.44 28.44 0 01-4.502-2.965l-85.846 5.987.387 5.579 86.301-6.018a28.365 28.365 0 004.502 2.964c11.477 6.081 25.255 3.42 33.72-5.626l50.374-3.514-2.792-40.261z" fill="#004C76"/><path d="M422.94 284.369l-3.356-48.177-41.777 2.911 3.357 48.177 41.776-2.911z" fill="#67CBE4"/><path opacity=".15" d="M207.671 264.423l-5.768.403 1.323 19.514 5.799-.408-1.354-19.509zM378.248 242.159l-5.768.403 2.526 40.528 5.84-.408-2.598-40.523zM176.72 272.617l-3.077.215.569 8.158 3.077-.215-.569-8.158z" fill="#004C76"/><path d="M448.623 286.016l-3.842-55.141-26.863 1.872 3.841 55.141 26.864-1.872z" fill="#67CBE4"/><path opacity=".15" d="M418.175 236.183l-7.561.622 2.536 48.23 8.387-.58-3.362-48.272z" fill="#004C76"/><path d="M158.713 279.074c-.062.094-.324.659-.476.983-.015-.005-.026-.01-.041-.01.094-.246.245-.659.261-.722.026-.089-.073-.151-.125-.089a48.43 48.43 0 00-.597 1.046c-.193.309-.386.722-.407.764-.037.068-.178-.225-.178-.225s.183-.178.099-.534c-.083-.355-.225-.266-.225-.266s-.026.052-.057.261c-.032.209-.429.947-.429.947.277.434.042 1.589.042 1.589s.711.434.878.089c.168-.345.502-.758.748-.999.141-.141.34-.575.486-.915.006-.01.016-.015.016-.021a25.17 25.17 0 00.434-1.113c.026-.089-.073-.152-.125-.089-.037.057-.163.329-.299.627a.632.632 0 01-.062-.057c.12-.309.324-.837.345-.9.026-.089-.073-.151-.126-.089-.052.079-.24.502-.392.848-.016-.011-.036-.027-.052-.037.057-.115.382-.91.408-.994.021-.094-.073-.156-.126-.094z" fill="#FBC3A5"/><path d="M136.549 293.924s5.302 13.286 11.498 11.273 9.851-22.703 9.851-22.703l-1.417-.068s-8.063 13.176-9.407 14.63c-1.343 1.454-4.256-9.297-4.256-9.297l-6.269 6.165z" fill="#004C76"/><path d="M145.495 319.43s10.353-1.135 14.682-3.77l-5.301 21.506h3.048s11.268-19.686 13.213-26.337c1.945-6.651-25.642-2.777-25.642-2.777v11.378z" fill="#67CBE4"/><path d="M149.428 307.383s12.674-4.539 15.937-5.668c3.263-1.129 17.004 26.039 17.004 26.039l-2.949 1.882-17.945-14.243-15.31 1.987 3.263-9.997z" fill="#67CBE4"/><path d="M142.735 283.456s-8.45 3.765-10.876 15.059c-2.426 11.294 7.697 21.584 13.636 20.915l3.932-12.047-6.692-23.927z" fill="#4585C5"/><path d="M142.734 283.456l6.066.377 5.521 21.803-11.587 6.557v-28.737z" fill="#4585C5"/><path d="M145.024 286.954s4.351 17.062 4.11 21.616l1.286-.727s-.554-12.91-2.609-21.276l-2.787.387z" fill="#E9F5F6"/><path d="M150.17 277.019c-.413-1.338-5.819.628-6.912 2.165 0 0 .512 1.679.648 1.971.053.11-1.166 2.845-1.166 2.845 1.375.732 3.462 5.229 5.072 2.567.23-.382.335-1.203.387-1.856.005-.052.413-.136.591-.173.758-.141 1.276-.815 1.454-2.583.172-1.757.554-2.891-.074-4.936z" fill="#fff" stroke="#35444C" stroke-width=".516" stroke-miterlimit="10"/><path d="M152.131 272.622c-.795-.664-3.42.758-7.441 1.511-5.019.941-1.255 8.256-1.255 8.256l.325-.115c.198-.465.658-1.464.658-1.464a1.124 1.124 0 01-.219-.35l.162-.695s.01-.382.591-.492c.402.131.664.622.821 1.072.24-.241.376-.502.46-.737-.11-.675-.215-1.26-.241-1.391a.376.376 0 00.016-.042s4.287.852 5.396-.408c1.103-1.265 1.171-4.591.727-5.145z" fill="#FAB01D"/><path d="M148.444 320.716h-9.16a.63.63 0 01-.628-.627.63.63 0 01.628-.628h9.16a.63.63 0 01.628.628.629.629 0 01-.628.627z" fill="#67CBE4"/><path d="M141.228 320.308h-1.443v18.071h1.443v-18.071zM148.162 320.308h-1.443v18.071h1.443v-18.071z" fill="#67CBE4"/><path d="M154.949 337.474s-.194 1.245.115 1.804c0 0 .873-.036 1.071-.031l.22-.528s.345-.052.664.01c.319.068 3.09.779 4.1.126 0 0 .141-.141-.027-.236-.308-.177-6.143-1.145-6.143-1.145zM179.759 329.971s-.193 1.245.115 1.804c0 0 .873-.037 1.072-.031l.22-.528s.345-.053.664.01c.319.068 3.09.779 4.099.125 0 0 .141-.141-.026-.235-.314-.183-6.144-1.145-6.144-1.145z" fill="#004C76"/><path d="M157.626 278.118c-.079.12-.408.82-.591 1.223a.868.868 0 01-.047-.016c.12-.308.303-.826.329-.904.032-.11-.089-.194-.157-.11-.109.167-.747 1.307-.747 1.307-.241.382-.481.9-.513.952-.047.083-.219-.283-.219-.283s.225-.219.12-.664c-.105-.444-.282-.334-.282-.334s-.037.063-.074.324c-.036.261-.533 1.182-.533 1.182.345.543.052 1.987.052 1.987s.884.543 1.093.115c.209-.429.633-.947.936-1.25.178-.173.429-.716.607-1.145.01-.011.015-.021.021-.032.052-.094.507-1.281.538-1.39.032-.11-.089-.194-.157-.11-.047.068-.204.413-.371.784-.026-.021-.052-.047-.078-.073.151-.382.402-1.046.428-1.124.032-.11-.088-.194-.156-.11-.063.099-.304.627-.492 1.061-.021-.015-.047-.031-.068-.047.068-.141.481-1.14.512-1.244.037-.099-.088-.183-.151-.099z" fill="#FBC3A5"/><path d="M134.709 293.589s5.302 13.287 11.498 11.274c6.196-2.014 10.416-22.563 10.416-22.563l-1.569-.141s-8.476 13.109-9.82 14.568c-1.343 1.453-4.256-9.297-4.256-9.297l-6.269 6.159z" fill="#4585C5"/><path opacity=".15" d="M331.393 279.859c6.097-11.509 3.41-25.323-5.699-33.783l-41.025 2.86a28.561 28.561 0 00-3.027 4.575c-6.536 12.345-2.97 27.352 7.791 35.545l37.113-2.588a27.913 27.913 0 004.847-6.609z" fill="#004C76"/><path d="M340.566 275.267c4.735-14.806-3.429-30.648-18.236-35.383-14.806-4.735-30.648 3.43-35.383 18.236-4.735 14.807 3.43 30.648 18.236 35.383 14.807 4.735 30.648-3.43 35.383-18.236z" fill="#67CBE4"/><path d="M322.24 271.478c2.653-4.7.994-10.661-3.706-13.314-4.7-2.653-10.661-.994-13.314 3.706-2.653 4.7-.994 10.661 3.706 13.314 4.7 2.653 10.661.994 13.314-3.706z" fill="#0C5479"/><path d="M250.834 255.169l8.162-.67M262.719 254.379l3.754-.308M343.89 247.174l8.162-.669M355.774 246.379l3.755-.303M387.712 241.851l15.085-1.177M301.291 245.192s9.077-6.144 21.203-1.772" stroke="#fff" stroke-width="1.002" stroke-miterlimit="10" stroke-linecap="round" stroke-linejoin="round"/></g><defs><linearGradient id="prefix__paint0_linear_1413_14900" x1="156.289" y1="21.157" x2="385.265" y2="107.023" gradientUnits="userSpaceOnUse"><stop stop-color="#fff"/><stop offset="1" stop-color="#51C7EA"/></linearGradient><linearGradient id="prefix__paint1_linear_1413_14900" x1="181.087" y1="120.321" x2="393.394" y2="199.936" gradientUnits="userSpaceOnUse"><stop stop-color="#fff"/><stop offset="1" stop-color="#51C7EA"/></linearGradient><linearGradient id="prefix__paint2_linear_1413_14900" x1="243.539" y1="64.426" x2="472.515" y2="150.292" gradientUnits="userSpaceOnUse"><stop stop-color="#fff"/><stop offset="1" stop-color="#51C7EA"/></linearGradient><linearGradient id="prefix__paint3_linear_1413_14900" x1="245.65" y1="58.794" x2="474.627" y2="144.66" gradientUnits="userSpaceOnUse"><stop stop-color="#fff"/><stop offset="1" stop-color="#51C7EA"/></linearGradient><linearGradient id="prefix__paint4_linear_1413_14900" x1="131.317" y1="339.6" x2="468.787" y2="339.6" gradientUnits="userSpaceOnUse"><stop stop-color="#fff"/><stop offset="1" stop-color="#51C7EA"/></linearGradient><linearGradient id="prefix__paint5_linear_1413_14900" x1="259.24" y1="339.6" x2="363.243" y2="339.6" gradientUnits="userSpaceOnUse"><stop stop-color="#fff"/><stop offset="1" stop-color="#51C7EA"/></linearGradient><clipPath id="prefix__clip0_1413_14900"><path fill="#fff" d="M0 0h640v414.118H0z"/></clipPath></defs></svg>