<svg xmlns="http://www.w3.org/2000/svg" viewBox="0 0 640 415" fill="none"><g clip-path="url(#a)"><path fill="url(#b)" stroke="#fff" stroke-miterlimit="10" stroke-width=".166" d="M454.42 139.195c-5.412 4.836-18.233 12.24-25.213 3.487-7.352-9.223 1.835-22.614 7.352-27.111 5.84-4.758 15.111-7.336 22.034-.502 7.613 7.53.763 19.713-4.173 24.126z" opacity=".31"/><path fill="#F7C132" d="M451.199 126.395c0-.643.518-1.161 1.161-1.161s1.161.518 1.161 1.161-.518 1.16-1.161 1.16a1.158 1.158 0 0 1-1.161-1.16z"/><path fill="#fff" d="M438.823 123.242c3.028-.633 3.378-1.14 3.807-5.574.429 4.434.779 4.941 3.806 5.574-3.027.633-3.377 1.14-3.806 5.574-.429-4.434-.779-4.941-3.807-5.574zm6.635 11.728c1.328-.189 1.48-.34 1.668-1.668.188 1.323.34 1.479 1.663 1.668-1.328.188-1.48.34-1.663 1.668-.188-1.323-.345-1.475-1.668-1.668z"/><path fill="url(#c)" stroke="#fff" stroke-miterlimit="10" stroke-width=".166" d="M383.806 276.858c32.847-25.956 25.072-37.219 55.493-60.769 8.382-6.494 25.386-.272 21.381 9.678-3.174 7.891-4.685 8.785-18.264 12.769l3.257 38.039c38.285 7.89 56.617-11.461 56.617-35.9 0-37.898-25.056-35.096-27.493-48.884-1.835-10.369 18.599-16.57 4.617-30.557-14.829-14.829-47.587 21.997-62.248-6.787-8.899-17.464 19.195-37.474 9.819-67.911-12.82-41.647-88.376-52.005-118.75-50.855-86.379 3.268-134.097 72.612-133.448 134.688.815 78.164 100.162 192.496 209.019 106.489z" opacity=".31"/><path fill="#68CBE3" d="M196.794 154.16c-.653-6.421 4.021-12.157 10.442-12.806 6.421-.653 12.152 4.027 12.805 10.442.654 6.421-4.02 12.152-10.441 12.805-6.421.649-12.157-4.026-12.806-10.441zm24.848 107.383c.983-1.438-1.574-4.356-2.62-2.714-.397.627-.078 2.227.413 2.735.46.475 1.773.617 2.207-.021z"/><path fill="#fff" d="M278.248 251.937c0-.847.69-1.537 1.537-1.537s1.538.69 1.538 1.537c0 .852-.691 1.537-1.538 1.537a1.532 1.532 0 0 1-1.537-1.537zm72.418-14.274a1.537 1.537 0 1 1 3.076-.002 1.537 1.537 0 0 1-3.076.002zm63.624-47.409c0-.848.69-1.538 1.537-1.538s1.538.69 1.538 1.538a1.537 1.537 0 0 1-3.075 0zm-10.489 87.309a1.536 1.536 0 1 1 3.076-.002 1.536 1.536 0 0 1-3.076.002zM251.67 225.72a1.536 1.536 0 1 1 3.074 0 1.536 1.536 0 1 1-3.074 0zm80.346-89.26c0-.847.69-1.537 1.537-1.537s1.537.69 1.537 1.537a1.536 1.536 0 1 1-3.074 0zm-6.39-52.7c0-.848.69-1.538 1.537-1.538s1.537.69 1.537 1.537a1.54 1.54 0 0 1-1.537 1.538 1.54 1.54 0 0 1-1.537-1.538zm62.666 58.258c0-.847.69-1.537 1.537-1.537s1.538.69 1.538 1.537a1.54 1.54 0 0 1-1.538 1.537 1.54 1.54 0 0 1-1.537-1.537z"/><path fill="#F7C132" d="M311.236 272.381a1.162 1.162 0 1 1 2.323.003 1.162 1.162 0 0 1-2.323-.003zm118.259-54.682a1.161 1.161 0 1 1 2.322.002 1.161 1.161 0 0 1-2.322-.002zm-39.665 81.124a1.161 1.161 0 1 1 2.322.002 1.161 1.161 0 0 1-2.322-.002z"/><path fill="#fff" d="M383.911 235.571a1.161 1.161 0 1 1 2.322.002 1.161 1.161 0 0 1-2.322-.002zM263.539 68.837c0-.643.518-1.161 1.161-1.161s1.161.518 1.161 1.16c0 .644-.518 1.162-1.161 1.162a1.158 1.158 0 0 1-1.161-1.161zM227.55 103.08c0-.643.523-1.161 1.161-1.161.643 0 1.16.518 1.16 1.161s-.517 1.161-1.16 1.161a1.162 1.162 0 0 1-1.161-1.161zm12.167 9.746c0-.643.517-1.161 1.161-1.161.643 0 1.16.518 1.16 1.161s-.517 1.161-1.16 1.161a1.162 1.162 0 0 1-1.161-1.161zm36.361-38.269c0-.643.518-1.16 1.161-1.16s1.161.517 1.161 1.16a1.162 1.162 0 0 1-2.322 0zm-79.049 118.311c3.028-.632 3.378-1.14 3.807-5.574.429 4.434.779 4.947 3.806 5.574-3.027.628-3.377 1.14-3.806 5.574-.429-4.429-.779-4.941-3.807-5.574zm-7.612 9.799c3.027-.633 3.378-1.14 3.807-5.574.428 4.434.779 4.941 3.806 5.574-3.027.632-3.378 1.14-3.806 5.573-.429-4.433-.78-4.941-3.807-5.573zm249.558-20.989c3.027-.627 3.377-1.14 3.806-5.574.429 4.434.779 4.947 3.807 5.574-3.028.633-3.378 1.14-3.807 5.574-.429-4.434-.779-4.941-3.806-5.574zm-61.517 113.993c3.027-.633 3.378-1.14 3.807-5.574.428 4.434.779 4.941 3.806 5.574-3.027.627-3.378 1.139-3.806 5.579-.434-4.44-.78-4.952-3.807-5.579zm-165.4-68.283c1.328-.188 1.479-.34 1.668-1.668.188 1.323.339 1.475 1.668 1.668-1.329.188-1.48.34-1.668 1.668-.189-1.328-.34-1.48-1.668-1.668zM239.215 83.76c1.328-.189 1.48-.34 1.668-1.668.188 1.328.34 1.474 1.668 1.668-1.323.188-1.48.34-1.668 1.667-.194-1.328-.345-1.48-1.668-1.668zm10.662-5.308c1.328-.188 1.48-.34 1.668-1.668.188 1.323.34 1.475 1.668 1.668-1.323.189-1.48.34-1.668 1.668-.188-1.328-.345-1.48-1.668-1.668zm-1.668 8.947c1.328-.189 1.48-.34 1.668-1.668.188 1.328.34 1.48 1.668 1.668-1.328.188-1.48.34-1.668 1.668-.188-1.328-.345-1.48-1.668-1.668zm55.524 176.69c1.329-.188 1.48-.34 1.668-1.668.189 1.328.34 1.48 1.668 1.668-1.328.188-1.479.34-1.668 1.668-.193-1.328-.345-1.48-1.668-1.668zm-36.387 17.61c1.323-.188 1.479-.34 1.668-1.668.188 1.328.34 1.48 1.668 1.668-1.323.188-1.48.34-1.668 1.668-.194-1.328-.345-1.48-1.668-1.668zm-25.491 13.971c1.329-.188 1.48-.339 1.668-1.668.189 1.329.34 1.48 1.668 1.668-1.328.189-1.479.34-1.668 1.668-.188-1.328-.339-1.479-1.668-1.668zm176.853-53.27c1.328-.188 1.48-.34 1.668-1.668.188 1.323.34 1.48 1.668 1.668-1.328.188-1.48.34-1.668 1.668-.188-1.328-.34-1.48-1.668-1.668zm-6.996-142.541c1.328-.188 1.48-.34 1.668-1.668.188 1.323.34 1.48 1.663 1.668-1.328.188-1.48.34-1.663 1.668-.188-1.328-.34-1.48-1.668-1.668zm-27.623 207.539c1.328-.188 1.48-.339 1.668-1.668.188 1.329.34 1.48 1.668 1.668-1.328.189-1.48.34-1.668 1.663-.188-1.323-.34-1.474-1.668-1.663zm-6.16-120.71c1.328-.189 1.479-.34 1.668-1.668.188 1.328.34 1.479 1.668 1.668-1.328.188-1.48.339-1.668 1.667-.189-1.328-.34-1.479-1.668-1.667z"/><path fill="url(#d)" stroke="#fff" stroke-miterlimit="10" stroke-width=".166" d="M472.669 151.812c5.349-7.357-9.045-14.991-13.364-7.352-4.199 7.425 8.721 13.741 13.364 7.352z" opacity=".31"/><path fill="url(#e)" stroke="#fff" stroke-miterlimit="10" stroke-width=".166" d="M488.575 149.736c2.379-4.089-6.871-6.782-8.612-2.63-1.694 4.037 6.552 6.18 8.612 2.63z" opacity=".31"/><path fill="#004C76" d="m349.673 267.524 35.038-32.084a.247.247 0 0 1 .345.016.248.248 0 0 1 0 .33l-32.084 35.037a2.337 2.337 0 0 1-3.299.147 2.332 2.332 0 0 1 0-3.446zm-12.215-123.336 35.038-32.083a.246.246 0 0 1 .345.015.248.248 0 0 1 0 .33l-32.084 35.038a2.338 2.338 0 0 1-3.299.146 2.332 2.332 0 0 1-.146-3.299.967.967 0 0 1 .146-.147zm-96.779 16.152 23.739-21.741a.165.165 0 0 1 .235.01.17.17 0 0 1 0 .225l-21.741 23.739a1.58 1.58 0 1 1-2.332-2.134l.099-.099z" opacity=".15"/><path fill="#fff" d="M291.335 279.017c.643.225.988.925.764 1.574a1.234 1.234 0 1 1-2.332-.811 1.234 1.234 0 0 1 1.568-.763zm5.762-9.119c.482.167.738.69.57 1.171a.92.92 0 1 1-.57-1.171zm-13.218 5.976a1.237 1.237 0 1 1-.81 2.34 1.237 1.237 0 0 1 .81-2.34zm29.036 10.944a.906.906 0 0 1 .56 1.145.902.902 0 1 1-.56-1.145zm-16.455-26.442a1.237 1.237 0 1 1-1.574.764 1.242 1.242 0 0 1 1.574-.764zm-9.987 28.952a1.237 1.237 0 0 1-.811 2.337 1.24 1.24 0 0 1-.768-1.574c.23-.643.931-.983 1.579-.763zm-9.208 7.681a.707.707 0 1 1-.46 1.342.707.707 0 0 1 .46-1.342z"/><path fill="#fff" d="m290.975 280.019-.118.341 21.691 7.475.118-.341-21.691-7.475z"/><path fill="#fff" d="m290.774 280.104-4.866 10.314.326.154 4.867-10.314-.327-.154z"/><path fill="#fff" d="m276.92 297.543 9.035-7.185.225.283-9.035 7.179-.225-.277zm6.483-20.335.142-.335 7.461 3.148-.141.334-7.462-3.147z"/><path fill="#fff" d="m296.667 270.668-5.864 9.42.306.191 5.864-9.42-.306-.191z"/><path fill="#fff" d="m295.874 261.558.361-.026.742 9.219-.355.031-.748-9.224zm-86.841-92.179-21.32.748.011.309 21.32-.749-.011-.308z"/><path fill="#fff" d="m216.23 174.353-.178.251-7.106-4.946.183-.257 7.101 4.952z"/><path fill="#fff" d="m231.81 160.584-15.761 13.774.203.233 15.761-13.775-.203-.232z"/><path fill="#fff" d="m236.036 166.447-.251.178-4.015-5.83.256-.178 4.01 5.83z"/><path fill="#fff" d="m236.063 166.517-.305.047 5.888 38.004.305-.048-5.888-38.003z"/><path fill="#fff" d="m250.755 201.161-8.878 3.524-.115-.288 8.878-3.524.115.288z"/><path fill="#fff" d="m250.855 201.025-.314-.016.288-7.66.313.011-.287 7.665z"/><path fill="#fff" d="m251.058 193.49-10.06 5.433-.146-.272 10.06-5.433.146.272z"/><path fill="#fff" d="M250.603 194.118a.853.853 0 1 1 .764-1.527.853.853 0 1 1-.764 1.527zm-9.17 11.184a.85.85 0 0 1-.377-1.145.856.856 0 0 1 1.145-.382.852.852 0 0 1 .382 1.145.86.86 0 0 1-1.15.382zm-9.915-43.833a.852.852 0 0 1-.381-1.145.851.851 0 1 1 1.521.764.852.852 0 0 1-1.14.381zm-15.764 13.773a.857.857 0 0 1-.382-1.145.852.852 0 0 1 1.145-.382.856.856 0 0 1 .382 1.145.852.852 0 0 1-1.145.382zm34.667 26.326a.62.62 0 1 1 .553-1.107.62.62 0 0 1-.553 1.107zm-9.779-2.227a.62.62 0 1 1 .832-.277.618.618 0 0 1-.832.277zm-5.217-32.356a.62.62 0 1 1 .831-.277.617.617 0 0 1-.831.277zm-26.667 3.096a.62.62 0 1 1 .831-.277.613.613 0 0 1-.831.277zm132.068-67.357a1.279 1.279 0 1 1 1.359-1.197 1.28 1.28 0 0 1-1.359 1.197zm-9.522-32.11a1.277 1.277 0 0 1-1.192-1.36 1.277 1.277 0 0 1 1.36-1.191 1.275 1.275 0 0 1 1.192 1.354 1.275 1.275 0 0 1-1.36 1.197zm8.759 43.619a.948.948 0 0 1-.884-1.015.956.956 0 0 1 1.009-.889.954.954 0 0 1-.125 1.904zm51.514-23.985a1.273 1.273 0 0 1-1.187-1.36 1.276 1.276 0 0 1 1.359-1.191 1.275 1.275 0 0 1 1.192 1.354 1.282 1.282 0 0 1-1.364 1.197zm-58.532 29.773a1.277 1.277 0 0 1-1.187-1.36 1.277 1.277 0 0 1 1.36-1.192 1.275 1.275 0 0 1 1.192 1.354 1.285 1.285 0 0 1-1.365 1.198z"/><path fill="#fff" d="M277.364 74.436c-.031.053-.083.079-.12.12l55.775 44.335.23-.292-55.785-44.346c-.032.063-.058.126-.1.183z"/><path fill="#fff" d="m339.998 113.148-6.992 5.463.228.292 6.992-5.462-.228-.293z"/><path fill="#fff" d="m341.092 101.459-.784 11.838-.371-.021.784-11.838.371.021z"/><path fill="#fff" d="m341.087 101.396-.355.105-9.522-32.105.361-.11 9.516 32.11zm15.89-53.892-.284.24L391.499 89.1l.284-.24-34.806-41.357z"/><path fill="#fff" d="m389.563 142.254-.372-.016 2.285-53.27.372.015-2.285 53.271z"/><path fill="#68CBE3" d="M299.037 172.701c13.49-6.453 29.71-.727 36.162 12.758 6.452 13.49.727 29.71-12.758 36.162a26.902 26.902 0 0 1-11.66 2.651c-10.123 0-19.854-5.689-24.502-15.414-6.453-13.48-.727-29.705 12.758-36.157z"/><path fill="#004C76" d="M261.986 222.343c.936 1.96 3.503 2.813 7.242 2.813 6.107 0 15.352-2.317 25.626-6.029 7.174-2.552 14.855-5.794 22.343-9.381 7.21-3.445 14.29-7.226 20.606-11.058 15.404-9.297 26.358-18.798 23.848-24.027-2.98-6.222-21.045-.977-32.135 2.939a22.159 22.159 0 0 1 2.054 2.191c18.51-6.4 26.646-5.919 27.598-3.943 1.087 2.291-5.543 9.878-21.365 19.64-5.945 3.67-13.187 7.655-21.793 11.78-8.962 4.277-16.868 7.503-23.624 9.861-17.046 5.904-26.839 6.265-27.916 4.016-.926-1.919 3.639-8.413 19.723-18.562a20.048 20.048 0 0 1-.429-2.991c-9.726 6.05-24.706 16.638-21.778 22.751z" opacity=".15"/><path fill="url(#f)" d="M300.052 344.355c93.191 0 168.737-2.127 168.737-4.752s-75.546-4.753-168.737-4.753c-93.191 0-168.738 2.128-168.738 4.753s75.547 4.752 168.738 4.752z" opacity=".31"/><path fill="url(#g)" d="M311.241 343.085c28.719 0 52-1.559 52-3.483 0-1.923-23.281-3.482-52-3.482s-52 1.559-52 3.482c0 1.924 23.281 3.483 52 3.483z" opacity=".31"/><path fill="#67CBE4" d="m189.074 279.956-.566-8.158-35.439 2.459.566 8.158 35.439-2.459z"/><path fill="#4585C5" d="m303.759 258.735-2.468 81.202h26.28l-2.442-80.193-21.37-1.009z"/><path fill="#4585C5" d="m326.902 317.757-1.773-58.013-21.369-1.009-1.768 59.843c8.377 1.197 16.497 1.25 24.91-.821z"/><path fill="#67CBE4" d="m262.393 280.222-1.353-19.509-84.753 5.879 1.353 19.509 84.753-5.879z"/><path fill="#67CBE4" d="m384.651 282.438-2.793-40.259-174.899 12.132 2.793 40.259 174.899-12.132z"/><path fill="#004C76" d="m381.856 242.144-.455.031 2.405 34.683-50.374 3.513c-8.465 9.051-22.243 11.708-33.72 5.627a28.44 28.44 0 0 1-4.502-2.965l-85.846 5.987.387 5.579 86.301-6.018a28.365 28.365 0 0 0 4.502 2.964c11.477 6.081 25.255 3.42 33.72-5.626l50.374-3.514-2.792-40.261z" opacity=".15"/><path fill="#67CBE4" d="m422.94 284.369-3.356-48.177-41.777 2.911 3.357 48.177 41.776-2.911z"/><path fill="#004C76" d="m207.671 264.423-5.768.403 1.323 19.514 5.799-.408-1.354-19.509zm170.577-22.264-5.768.403 2.526 40.528 5.84-.408-2.598-40.523zM176.72 272.617l-3.077.215.569 8.158 3.077-.215-.569-8.158z" opacity=".15"/><path fill="#67CBE4" d="m448.623 286.016-3.842-55.141-26.863 1.872 3.841 55.141 26.864-1.872z"/><path fill="#004C76" d="m418.175 236.183-7.561.622 2.536 48.23 8.387-.58-3.362-48.272z" opacity=".15"/><path fill="#FBC3A5" d="M158.713 279.074c-.062.094-.324.659-.476.983-.015-.005-.026-.01-.041-.01.094-.246.245-.659.261-.722.026-.089-.073-.151-.125-.089a48.43 48.43 0 0 0-.597 1.046c-.193.309-.386.722-.407.764-.037.068-.178-.225-.178-.225s.183-.178.099-.534c-.083-.355-.225-.266-.225-.266s-.026.052-.057.261c-.032.209-.429.947-.429.947.277.434.042 1.589.042 1.589s.711.434.878.089c.168-.345.502-.758.748-.999.141-.141.34-.575.486-.915.006-.01.016-.015.016-.021a25.17 25.17 0 0 0 .434-1.113c.026-.089-.073-.152-.125-.089-.037.057-.163.329-.299.627a.632.632 0 0 1-.062-.057c.12-.309.324-.837.345-.9.026-.089-.073-.151-.126-.089-.052.079-.24.502-.392.848-.016-.011-.036-.027-.052-.037.057-.115.382-.91.408-.994.021-.094-.073-.156-.126-.094z"/><path fill="#004C76" d="M136.549 293.924s5.302 13.286 11.498 11.273 9.851-22.703 9.851-22.703l-1.417-.068s-8.063 13.176-9.407 14.63c-1.343 1.454-4.256-9.297-4.256-9.297l-6.269 6.165z"/><path fill="#67CBE4" d="M145.495 319.43s10.353-1.135 14.682-3.77l-5.301 21.506h3.048s11.268-19.686 13.213-26.337c1.945-6.651-25.642-2.777-25.642-2.777v11.378z"/><path fill="#67CBE4" d="M149.428 307.383s12.674-4.539 15.937-5.668c3.263-1.129 17.004 26.039 17.004 26.039l-2.949 1.882-17.945-14.243-15.31 1.987 3.263-9.997z"/><path fill="#4585C5" d="M142.735 283.456s-8.45 3.765-10.876 15.059c-2.426 11.294 7.697 21.584 13.636 20.915l3.932-12.047-6.692-23.927z"/><path fill="#4585C5" d="m142.734 283.456 6.066.377 5.521 21.803-11.587 6.557v-28.737z"/><path fill="#E9F5F6" d="M145.024 286.954s4.351 17.062 4.11 21.616l1.286-.727s-.554-12.91-2.609-21.276l-2.787.387z"/><path fill="#fff" stroke="#35444C" stroke-miterlimit="10" stroke-width=".516" d="M150.17 277.019c-.413-1.338-5.819.628-6.912 2.165 0 0 .512 1.679.648 1.971.053.11-1.166 2.845-1.166 2.845 1.375.732 3.462 5.229 5.072 2.567.23-.382.335-1.203.387-1.856.005-.052.413-.136.591-.173.758-.141 1.276-.815 1.454-2.583.172-1.757.554-2.891-.074-4.936z"/><path fill="#FAB01D" d="M152.131 272.622c-.795-.664-3.42.758-7.441 1.511-5.019.941-1.255 8.256-1.255 8.256l.325-.115c.198-.465.658-1.464.658-1.464a1.124 1.124 0 0 1-.219-.35l.162-.695s.01-.382.591-.492c.402.131.664.622.821 1.072.24-.241.376-.502.46-.737-.11-.675-.215-1.26-.241-1.391a.376.376 0 0 0 .016-.042s4.287.852 5.396-.408c1.103-1.265 1.171-4.591.727-5.145z"/><path fill="#67CBE4" d="M148.444 320.716h-9.16a.63.63 0 0 1-.628-.627.63.63 0 0 1 .628-.628h9.16a.63.63 0 0 1 .628.628.629.629 0 0 1-.628.627z"/><path fill="#67CBE4" d="M141.228 320.308h-1.443v18.071h1.443v-18.071zm6.934 0h-1.443v18.071h1.443v-18.071z"/><path fill="#004C76" d="M154.949 337.474s-.194 1.245.115 1.804c0 0 .873-.036 1.071-.031l.22-.528s.345-.052.664.01c.319.068 3.09.779 4.1.126 0 0 .141-.141-.027-.236-.308-.177-6.143-1.145-6.143-1.145zm24.81-7.503s-.193 1.245.115 1.804c0 0 .873-.037 1.072-.031l.22-.528s.345-.053.664.01c.319.068 3.09.779 4.099.125 0 0 .141-.141-.026-.235-.314-.183-6.144-1.145-6.144-1.145z"/><path fill="#FBC3A5" d="M157.626 278.118c-.079.12-.408.82-.591 1.223a.868.868 0 0 1-.047-.016c.12-.308.303-.826.329-.904.032-.11-.089-.194-.157-.11-.109.167-.747 1.307-.747 1.307-.241.382-.481.9-.513.952-.047.083-.219-.283-.219-.283s.225-.219.12-.664c-.105-.444-.282-.334-.282-.334s-.037.063-.074.324c-.036.261-.533 1.182-.533 1.182.345.543.052 1.987.052 1.987s.884.543 1.093.115c.209-.429.633-.947.936-1.25.178-.173.429-.716.607-1.145.01-.011.015-.021.021-.032.052-.094.507-1.281.538-1.39.032-.11-.089-.194-.157-.11-.047.068-.204.413-.371.784-.026-.021-.052-.047-.078-.073.151-.382.402-1.046.428-1.124.032-.11-.088-.194-.156-.11-.063.099-.304.627-.492 1.061-.021-.015-.047-.031-.068-.047.068-.141.481-1.14.512-1.244.037-.099-.088-.183-.151-.099z"/><path fill="#4585C5" d="M134.709 293.589s5.302 13.287 11.498 11.274c6.196-2.014 10.416-22.563 10.416-22.563l-1.569-.141s-8.476 13.109-9.82 14.568c-1.343 1.453-4.256-9.297-4.256-9.297l-6.269 6.159z"/><path fill="#004C76" d="M331.393 279.859c6.097-11.509 3.41-25.323-5.699-33.783l-41.025 2.86a28.561 28.561 0 0 0-3.027 4.575c-6.536 12.345-2.97 27.352 7.791 35.545l37.113-2.588a27.913 27.913 0 0 0 4.847-6.609z" opacity=".15"/><path fill="#67CBE4" d="M340.566 275.267c4.735-14.806-3.429-30.648-18.236-35.383-14.806-4.735-30.648 3.43-35.383 18.236-4.735 14.807 3.43 30.648 18.236 35.383 14.807 4.735 30.648-3.43 35.383-18.236z"/><path fill="#0C5479" d="M322.24 271.478c2.653-4.7.994-10.661-3.706-13.314-4.7-2.653-10.661-.994-13.314 3.706-2.653 4.7-.994 10.661 3.706 13.314 4.7 2.653 10.661.994 13.314-3.706z"/><path stroke="#fff" stroke-linecap="round" stroke-linejoin="round" stroke-miterlimit="10" stroke-width="1.002" d="m250.834 255.169 8.162-.67m3.723-.12 3.754-.308m77.417-6.897 8.162-.669m3.722-.126 3.755-.303m28.183-4.225 15.085-1.177m-101.506 4.518s9.077-6.144 21.203-1.772"/></g><defs><linearGradient id="b" x1="156.289" x2="385.265" y1="21.157" y2="107.023" gradientUnits="userSpaceOnUse"><stop stop-color="#fff"/><stop offset="1" stop-color="#51C7EA"/></linearGradient><linearGradient id="c" x1="181.087" x2="393.394" y1="120.321" y2="199.936" gradientUnits="userSpaceOnUse"><stop stop-color="#fff"/><stop offset="1" stop-color="#51C7EA"/></linearGradient><linearGradient id="d" x1="243.539" x2="472.515" y1="64.426" y2="150.292" gradientUnits="userSpaceOnUse"><stop stop-color="#fff"/><stop offset="1" stop-color="#51C7EA"/></linearGradient><linearGradient id="e" x1="245.65" x2="474.627" y1="58.794" y2="144.66" gradientUnits="userSpaceOnUse"><stop stop-color="#fff"/><stop offset="1" stop-color="#51C7EA"/></linearGradient><linearGradient id="f" x1="131.317" x2="468.787" y1="339.6" y2="339.6" gradientUnits="userSpaceOnUse"><stop stop-color="#fff"/><stop offset="1" stop-color="#51C7EA"/></linearGradient><linearGradient id="g" x1="259.24" x2="363.243" y1="339.6" y2="339.6" gradientUnits="userSpaceOnUse"><stop stop-color="#fff"/><stop offset="1" stop-color="#51C7EA"/></linearGradient><clipPath id="a"><path fill="#fff" d="M0 0h640v414.118H0z"/></clipPath></defs></svg>