<svg role="img" aria-hidden="true" focusable="false" xmlns="http://www.w3.org/2000/svg" xmlns:xlink="http://www.w3.org/1999/xlink" viewBox="0 0 504.76 227.49"><defs><linearGradient id="a" x1="169.28" x2="169.28" y1="166.49" y2="55.33" gradientUnits="userSpaceOnUse"><stop offset="0" stop-color="#570732"/><stop offset=".04" stop-color="#620a3a"/><stop offset=".16" stop-color="#7b114b"/><stop offset=".29" stop-color="#8e1758"/><stop offset=".44" stop-color="#9b1b61"/><stop offset=".64" stop-color="#a31d67"/><stop offset="1" stop-color="#a61e69"/></linearGradient><linearGradient xlink:href="#a" id="b" x1="469.59" x2="469.59" y1="187.99" y2="29.81"/><linearGradient xlink:href="#a" id="c" x1="281.03" x2="281.03" y1="166.12" y2="55"/><linearGradient xlink:href="#a" id="d" x1="384.1" x2="384.1" y1="166.55" y2="54.43"/><linearGradient id="e" x1="70.29" x2="70.29" y1="1.37" y2="220.34" gradientUnits="userSpaceOnUse"><stop offset=".3" stop-color="#77b227"/><stop offset=".43" stop-color="#73af27"/><stop offset=".53" stop-color="#69a627"/><stop offset=".63" stop-color="#589827"/><stop offset=".72" stop-color="#418428"/><stop offset=".8" stop-color="#246b29"/></linearGradient></defs><path fill="url(#a)" d="M169.36 166.49c-18.34 0-32.45-5.65-41.92-16.8-8.22-9.68-12.57-23.28-12.57-39.34s4.38-28.78 12.66-38.35c9.55-11.05 23.63-16.66 41.83-16.66 34.42 0 54.22 20.69 54.32 56.76.04 16.09-5.24 30.27-14.88 39.94-9.57 9.59-22.83 14.45-39.43 14.45Zm.2-87.04c-10.76 0-22.47 8.54-23.06 32.52.34 19.17 8.46 29.83 22.87 29.99h.3c8.24 0 14.36-3.79 18.2-11.27 7.04-13.72 3.79-35.25-1.82-43.06-3.63-5.05-9.95-8.19-16.49-8.19Z"/><path fill="#fff" d="M169.37 55.83c37.1 0 53.73 23.52 53.82 56.27.07 26.88-15.14 53.89-53.82 53.89s-53.98-25.79-53.98-55.64 15.43-54.51 53.98-54.51m.3 86.62c27.63 0 25.76-42.62 16.78-55.12-3.71-5.16-10.19-8.39-16.89-8.39-11.18 0-22.97 8.99-23.56 33.01.38 21.69 10.49 30.36 23.36 30.5h.31m-.3-87.63c-18.35 0-32.55 5.66-42.21 16.83-8.36 9.67-12.78 23.05-12.78 38.68s4.39 29.9 12.68 39.66c9.57 11.27 23.8 16.98 42.3 16.98 16.74 0 30.12-4.91 39.79-14.6 9.74-9.76 15.07-24.07 15.03-40.29-.1-36.39-20.08-57.26-54.82-57.26Zm.3 86.63h-.29c-14.1-.16-22.04-10.64-22.37-29.52.58-23.58 12.03-31.99 22.56-31.99 6.38 0 12.54 3.06 16.08 7.98 5.55 7.71 8.74 28.98 1.78 42.54-3.74 7.3-9.71 11-17.75 11Z"/><path fill="url(#b)" d="M494.09 187.92c-21.57-3.59-43.33-20.99-43.33-51.75V84.16h-15.65V58.99h15.65V29.8h31.84v29.19h19.97v25.17H482.6v55.17c.12 12.12 8.49 21.32 20.84 22.88l.63.08-9.57 25.69-.41-.07Z"/><path fill="#fff" d="M482.11 30.31V59.5h19.97v24.17h-19.97v55.67c.12 12.19 8.43 21.76 21.28 23.38l-9.21 24.71c-22.03-3.67-42.91-21.41-42.91-51.25V83.67h-15.65V59.5h15.65V30.31h30.84m1-1h-32.84V58.5h-15.65v26.17h15.65v51.51c0 31.05 21.97 48.61 43.75 52.24l.81.14.29-.77 9.21-24.71.44-1.18-1.25-.16c-12.09-1.53-20.29-10.53-20.4-22.4V84.68h19.97V58.51h-19.97V29.32Z"/><path fill="url(#c)" d="m302.28 166.12-5.03-12.09c-11.05 7.89-22.72 12.05-33.79 12.05-19.57 0-34.32-13.34-34.32-31.04 0-34.55 33.05-39.36 65.55-39.41 0-.53.02-1.08.03-1.64.08-3.79.18-8.08-1.9-10.87a3.03 3.03 0 0 0-.34-.4c-1.68-1.87-5.71-4.9-14.5-4.9-8.09 0-18.08 2.71-28.89 7.82l-.44.21-11.26-22.58.54-.19c14.98-5.21 30.85-8.08 44.69-8.08 26.97 0 42.64 10.4 44.13 29.27.17 1.62.25 3.02.25 4.4v41.85c0 5.74 1.61 13.74 3.48 23 .77 3.84 1.57 7.81 2.34 12.01l.11.59h-30.64Zm-7.36-47.31c-8.66 0-16.93.22-23.23 2.36-7.99 3.91-9.91 9.44-9.02 13.3 1.03 4.45 5.48 7.43 11.08 7.43 6.78 0 14.29-4.19 21.17-11.81V118.8Z"/><path fill="#fff" d="M282.61 55.5c23.04 0 41.99 7.97 43.64 28.81.15 1.4.25 2.84.25 4.36v41.85c0 8.14 3.17 20.58 5.83 35.1h-29.71l-5.14-12.36c-11.95 8.67-23.71 12.33-34.01 12.33-19.57 0-33.82-13.25-33.82-30.54 0-34.7 33.79-38.91 65.55-38.91 0-4.32.62-9.83-1.97-13.32-.01-.02-.03-.04-.04-.06-.12-.15-.25-.3-.38-.45-2.55-2.84-7.47-5-14.82-5s-16.99 2.14-29.11 7.87L238.1 63.55c14.3-4.98 30.2-8.05 44.53-8.05m-8.87 86.9c6.02 0 13.73-3.27 21.67-12.11v-11.98c-7.99 0-17.15.1-23.89 2.39-15.47 7.56-10.29 21.7 2.23 21.7m8.84-87.9c-13.89 0-29.82 2.88-44.85 8.11l-1.07.37.51 1.02 10.78 21.63.44.88.89-.42c10.75-5.09 20.67-7.77 28.68-7.77 6.28 0 11.41 1.7 14.07 4.67l.03.04c.1.11.2.22.29.34l.05.06c1.97 2.65 1.88 6.85 1.79 10.55 0 .39-.02.78-.02 1.15-32.59.1-65.55 5.09-65.55 39.91 0 17.98 14.97 31.54 34.82 31.54 11 0 22.58-4.07 33.57-11.79l4.66 11.2.26.62h31.57l-.22-1.18c-.77-4.2-1.57-8.17-2.34-12.02-1.86-9.24-3.47-17.21-3.47-22.9V88.66c0-1.4-.08-2.82-.25-4.47-.8-10.14-5.61-17.88-14.29-22.98-7.6-4.46-17.81-6.73-30.35-6.73Zm-10.7 67.13c6.1-2.06 14.1-2.3 22.51-2.32v10.59c-6.74 7.42-14.07 11.5-20.67 11.5-5.36 0-9.62-2.83-10.59-7.04-1.29-5.58 3.66-10.23 8.75-12.73Z"/><path fill="url(#d)" d="M383.55 166.55c-15.21 0-31.75-3.7-44.24-9.9l-.41-.2 9.67-24.72.52.36c10.5 7.19 22.41 11.31 32.66 11.31 9.11 0 14.78-3.32 14.81-8.66.03-6.5-9.53-9.36-18.78-12.12-2.83-.85-5.77-1.72-8.39-2.69-19.07-7.06-27.88-17.71-27.75-33.51.17-20.62 15.71-31.98 43.75-31.98 12.31 0 26.64 2.27 40.36 6.41l.53.16-9.44 22.85-.47-.21c-9.95-4.53-19.21-6.92-26.77-6.92-9.38 0-15.2 3.72-15.2 9.71 0 5.37 7.78 7.84 17.64 10.97 15.64 4.97 37.06 11.77 37.26 35.85.07 8.57-2.66 15.7-8.11 21.19-7.76 7.82-21.12 12.12-37.63 12.12Z"/><path fill="#fff" d="M385.39 54.93c13.18 0 27.53 2.57 40.21 6.38l-9.03 21.86c-10.79-4.91-19.94-6.97-26.97-6.97-10 0-15.7 4.16-15.7 10.21 0 14.93 54.59 8.33 54.89 46.82.19 23.7-21.31 32.81-45.24 32.81-15.38 0-31.76-3.77-44.02-9.85l9.28-23.71c11.58 7.93 23.73 11.4 32.94 11.4s15.28-3.36 15.31-9.16c.05-8.94-16.23-11.11-27.5-15.28-16.27-6.03-27.57-15.48-27.43-33.04.2-23.43 19.89-31.49 43.25-31.49m.01-.98c-28.36 0-44.08 11.53-44.25 32.48-.14 16.04 8.79 26.84 28.08 33.98 2.64.98 5.58 1.85 8.42 2.7 9.07 2.71 18.46 5.51 18.43 11.64-.03 5.04-5.51 8.16-14.31 8.16-10.16 0-21.96-4.09-32.38-11.23l-1.04-.71-.46 1.17-9.28 23.71-.33.85.82.41c12.56 6.23 29.19 9.95 44.46 9.95 16.64 0 30.13-4.36 37.98-12.27 5.54-5.59 8.32-12.84 8.25-21.55-.19-24.44-21.82-31.3-37.6-36.32-9.66-3.07-17.29-5.49-17.29-10.49 0-5.68 5.63-9.21 14.7-9.21 7.49 0 16.67 2.38 26.56 6.88l.94.43.4-.96 9.03-21.86.42-1.02-1.06-.32c-13.76-4.14-28.14-6.43-40.5-6.43v1-1ZM169.37 55.83c37.1 0 53.73 23.52 53.82 56.27.07 26.88-15.14 53.89-53.82 53.89s-53.98-25.79-53.98-55.64 15.43-54.51 53.98-54.51m.3 86.62c27.63 0 25.76-42.62 16.78-55.12-3.71-5.16-10.19-8.39-16.89-8.39-11.18 0-22.97 8.99-23.56 33.01.38 21.69 10.49 30.36 23.36 30.5h.31m-.3-87.63c-18.35 0-32.55 5.66-42.21 16.83-8.36 9.67-12.78 23.05-12.78 38.68s4.39 29.9 12.68 39.66c9.57 11.27 23.8 16.98 42.3 16.98 16.74 0 30.12-4.91 39.79-14.6 9.74-9.76 15.07-24.07 15.03-40.29-.1-36.39-20.08-57.26-54.82-57.26Zm.3 86.63h-.29c-14.1-.16-22.04-10.64-22.37-29.52.58-23.58 12.03-31.99 22.56-31.99 6.38 0 12.54 3.06 16.08 7.98 5.55 7.71 8.74 28.98 1.78 42.54-3.74 7.3-9.71 11-17.75 11ZM482.11 30.31V59.5h19.97v24.17h-19.97v55.67c.12 12.19 8.43 21.76 21.28 23.38l-9.21 24.71c-22.03-3.67-42.91-21.41-42.91-51.25V83.67h-15.65V59.5h15.65V30.31h30.84m1-1h-32.84V58.5h-15.65v26.17h15.65v51.51c0 31.05 21.97 48.61 43.75 52.24l.81.14.29-.77 9.21-24.71.44-1.18-1.25-.16c-12.09-1.53-20.29-10.53-20.4-22.4V84.68h19.97V58.51h-19.97V29.32ZM282.61 55.5c23.04 0 41.99 7.97 43.64 28.81.15 1.4.25 2.84.25 4.36v41.85c0 8.14 3.17 20.58 5.83 35.1h-29.71l-5.14-12.36c-11.95 8.67-23.71 12.33-34.01 12.33-19.57 0-33.82-13.25-33.82-30.54 0-34.7 33.79-38.91 65.55-38.91 0-4.32.62-9.83-1.97-13.32-.01-.02-.03-.04-.04-.06-.12-.15-.25-.3-.38-.45-2.55-2.84-7.47-5-14.82-5s-16.99 2.14-29.11 7.87L238.1 63.55c14.3-4.98 30.2-8.05 44.53-8.05m-8.87 86.9c6.02 0 13.73-3.27 21.67-12.11v-11.98c-7.99 0-17.15.1-23.89 2.39-15.47 7.56-10.29 21.7 2.23 21.7m8.84-87.9c-13.89 0-29.82 2.88-44.85 8.11l-1.07.37.51 1.02 10.78 21.63.44.88.89-.42c10.75-5.09 20.67-7.77 28.68-7.77 6.28 0 11.41 1.7 14.07 4.67l.03.04c.1.11.2.22.29.34l.05.06c1.97 2.65 1.88 6.85 1.79 10.55 0 .39-.02.78-.02 1.15-32.59.1-65.55 5.09-65.55 39.91 0 17.98 14.97 31.54 34.82 31.54 11 0 22.58-4.07 33.57-11.79l4.66 11.2.26.62h31.57l-.22-1.18c-.77-4.2-1.57-8.17-2.34-12.02-1.86-9.24-3.47-17.21-3.47-22.9V88.66c0-1.4-.08-2.82-.25-4.47-.8-10.14-5.61-17.88-14.29-22.98-7.6-4.46-17.81-6.73-30.35-6.73Zm-10.7 67.13c6.1-2.06 14.1-2.3 22.51-2.32v10.59c-6.74 7.42-14.07 11.5-20.67 11.5-5.36 0-9.62-2.83-10.59-7.04-1.29-5.58 3.66-10.23 8.75-12.73Z"/><path fill="#fff" d="M385.39 54.93c13.18 0 27.53 2.57 40.21 6.38l-9.03 21.86c-10.79-4.91-19.94-6.97-26.97-6.97-10 0-15.7 4.16-15.7 10.21 0 14.93 54.59 8.33 54.89 46.82.19 23.7-21.31 32.81-45.24 32.81-15.38 0-31.76-3.77-44.02-9.85l9.28-23.71c11.58 7.93 23.73 11.4 32.94 11.4s15.28-3.36 15.31-9.16c.05-8.94-16.23-11.11-27.5-15.28-16.27-6.03-27.57-15.48-27.43-33.04.2-23.43 19.89-31.49 43.25-31.49m.01-.98c-28.36 0-44.08 11.53-44.25 32.48-.14 16.04 8.79 26.84 28.08 33.98 2.64.98 5.58 1.85 8.42 2.7 9.07 2.71 18.46 5.51 18.43 11.64-.03 5.04-5.51 8.16-14.31 8.16-10.16 0-21.96-4.09-32.38-11.23l-1.04-.71-.46 1.17-9.28 23.71-.33.85.82.41c12.56 6.23 29.19 9.95 44.46 9.95 16.64 0 30.13-4.36 37.98-12.27 5.54-5.59 8.32-12.84 8.25-21.55-.19-24.44-21.82-31.3-37.6-36.32-9.66-3.07-17.29-5.49-17.29-10.49 0-5.68 5.63-9.21 14.7-9.21 7.49 0 16.67 2.38 26.56 6.88l.94.43.4-.96 9.03-21.86.42-1.02-1.06-.32c-13.76-4.14-28.14-6.43-40.5-6.43v1-1Z"/><path fill="url(#e)" d="M102.4 2.75 57.52 127.26 35.98 59.94H4.03l35.76 91.96a33.932 33.932 0 0 1 0 24.34c-4.01 10.22-10.62 19.03-26.85 21.24v27.25c31.55 0 48.68-19.43 63.91-62.01L136.56 2.75H102.4Z"/><path fill="#fff" d="M12.94 227.49h-2.75v-32.41l2.38-.32c15.82-2.15 21.34-11.07 24.65-19.51a31.094 31.094 0 0 0 0-22.35L0 57.2h37.99l19.68 61.52L100.46 0h40.06L79.43 163.69c-13.69 38.28-30.24 63.8-66.49 63.8Zm2.76-27.65v22.09c27.32-1.02 43.38-17.67 58.56-60.13L132.59 5.51h-28.25L57.37 135.83 33.98 62.71H8.05l34.3 88.21c3.27 8.5 3.27 17.84 0 26.33-3.51 8.96-9.72 19.47-26.66 22.6Z"/></svg>